<svg xmlns="http://www.w3.org/2000/svg" xmlns:xlink="http://www.w3.org/1999/xlink" fill="none" version="1.1" width="16" height="16" viewBox="0 0 16 16"><defs><clipPath id="master_svg0_26_061461"><rect x="0" y="0" width="16" height="16" rx="0"/></clipPath></defs><g><g clip-path="url(#master_svg0_26_061461)"><g><path d="M6.1039538,14.755395125L3.9502444,10.060593125L0,8.007284125L3.9502444,5.950420825L6.1039538,1.254729725L8.2576637,5.949531525L12.204354,8.007284125L8.2541103,10.064147125L6.1039538,14.755395125ZM13.559306,5.375565025L12.700132,3.509727725L11.135495,2.688759125L12.700132,1.867790425L13.559306,0.001953125L14.41848,1.867790425L15.992891,2.688759125L14.41848,3.509727725L13.559306,5.375565025ZM13.559306,16.000175125L12.700132,14.134338125L11.135495,13.313370125L12.700132,12.492402125L13.559306,10.626565125L14.41848,12.492402125L15.992891,13.313370125L14.41848,14.137893125L13.559306,16.000175125Z" fill="#000000" fill-opacity="1" style="mix-blend-mode:passthrough"/></g></g></g></svg>