<svg xmlns="http://www.w3.org/2000/svg" xmlns:xlink="http://www.w3.org/1999/xlink" fill="none" version="1.1" width="12" height="12" viewBox="0 0 12 12"><g><g><g><g><g><path d="M7.9361148,1L4.0638855,1C3.1755862,1,2.7400974,1.084096782,2.2873548,1.32622612C1.8742947,1.54713309,1.54713309,1.8742947,1.32622612,2.2873548C1.084096782,2.7400974,1,3.1755862,1,4.0638855L1,7.9361148C1,8.8244143,1.084096782,9.259903,1.32622612,9.7126455C1.54713309,10.1257057,1.8742947,10.4528675,2.2873548,10.6737738C2.7400974,10.9159031,3.1755862,11,4.0638855,11L7.9361148,11C8.8244143,11,9.259903,10.9159031,9.7126455,10.6737738C10.1257057,10.4528675,10.4528675,10.1257057,10.6737738,9.7126455C10.9159031,9.259903,11,8.8244143,11,7.9361148L11,4.0638855C11,3.1755862,10.9159031,2.7400974,10.6737738,2.2873548C10.4528675,1.8742947,10.1257057,1.54713309,9.7126455,1.32622612C9.259903,1.084096782,8.8244143,1,7.9361148,1ZM2.7589538,2.2080393000000003C3.0470197,2.05398,3.326551,2,4.0638852,2L7.9361148,2C8.6734495,2,8.952981000000001,2.05398,9.2410469,2.2080393000000003C9.4798384,2.3357465,9.6642542,2.5201621000000003,9.7919607,2.7589538C9.9460201,3.0470197,10,3.326551,10,4.0638852L10,7.9361148C10,8.6734495,9.9460201,8.952981000000001,9.7919607,9.2410469C9.6642542,9.4798384,9.4798384,9.6642542,9.2410469,9.7919607C8.952981000000001,9.9460201,8.6734495,10,7.9361148,10L4.0638852,10C3.326551,10,3.0470197,9.9460201,2.7589538,9.7919607C2.5201621000000003,9.6642542,2.3357465,9.4798384,2.2080393000000003,9.2410469C2.05398,8.952981000000001,2,8.6734495,2,7.9361148L2,4.0638852C2,3.326551,2.05398,3.0470197,2.2080393000000003,2.7589538C2.3357465,2.5201621000000003,2.5201621000000003,2.3357465,2.7589538,2.2080393000000003Z" fill-rule="evenodd" fill="#FFFFFF" fill-opacity="1"/></g></g></g><g><g><path d="M5.5,9.5L5.5,6.25L3.9409516,6.25C3.5807967,6.25,3.3664218200000002,6.292392574,3.14788342,6.40926817C2.93852696,6.52123326,2.77123326,6.68852696,2.65926817,6.89788342C2.542392574,7.11642182,2.5,7.3307967000000005,2.5,7.6909516L2.5,8.0590485C2.5,8.4192033,2.542392574,8.6335783,2.65926817,8.8521166C2.77123326,9.0614734,2.93852696,9.2287669,3.14788342,9.3407321C3.3664218200000002,9.4576077,3.5807967,9.5,3.9409516,9.5L5.5,9.5ZM4.5,7.25L4.5,8.5L3.9409514999999997,8.5C3.7323755,8.5,3.6751310999999998,8.488679900000001,3.6194823,8.4589188C3.5843943,8.4401534,3.5598466,8.4156058,3.5410813,8.3805177C3.5136094,8.3291497,3.5018507000000003,8.276422,3.5002041999999998,8.1045632L3.5,7.6909515C3.5,7.4823755,3.5113201,7.4251311,3.5410813,7.3694823C3.5598466,7.3343943,3.5843943,7.3098466,3.6194823,7.2910813L3.6324208000000002,7.2845374C3.6804657,7.2617198,3.7378997,7.2517135,3.8954367999999997,7.2502042L4.5,7.25Z" fill-rule="evenodd" fill="#FFFFFF" fill-opacity="1"/></g><g><path d="M7.5,9.5L7.5,4.5L5.961457,4.5C5.5811684,4.5,5.36912334,4.540947791,5.14788342,4.65926817C4.93852696,4.77123326,4.77123326,4.93852696,4.65926817,5.14788342C4.540947791,5.36912334,4.5,5.5811684,4.5,5.961457L4.5,9.5L7.5,9.5ZM5.9149044,5.5001689L6.5,5.5L6.5,8.5L5.5,8.5L5.5,5.961457C5.5,5.732133,5.510831,5.6760455,5.5410813,5.6194823C5.5598466,5.5843943,5.5843943,5.5598466,5.6194823,5.5410813C5.6720053,5.5129918,5.7241181,5.5016464,5.9149044,5.5001689Z" fill-rule="evenodd" fill="#FFFFFF" fill-opacity="1"/></g><g><path d="M8.8521166,2.65926817C8.640648800000001,2.546173997,8.420372799999999,2.5,8.1073617,2.5L7.8926384,2.5C7.5796273,2.5,7.35935116,2.546173997,7.14788342,2.65926817C6.93852696,2.77123326,6.77123326,2.93852696,6.65926817,3.14788342C6.546173997,3.35935116,6.5,3.5796273000000003,6.5,3.8926384L6.5,9.5L8.0385431,9.5C8.4188316,9.5,8.630877,9.459052100000001,8.8521166,9.3407316C9.0614734,9.2287669,9.2287669,9.0614729,9.3407321,8.852117100000001C9.4590526,8.6308765,9.5,8.4188323,9.5,8.0385432L9.5,3.8926384C9.5,3.5796273000000003,9.453826,3.35935116,9.3407321,3.14788342C9.2287669,2.93852696,9.0614734,2.77123326,8.8521166,2.65926817ZM7.8926383,3.5L8.1073617,3.5C8.2667595,3.5,8.327516,3.5127357,8.3805177,3.5410813C8.4156058,3.5598466,8.4401534,3.5843943,8.4589187,3.6194823C8.4872644,3.672484,8.5,3.7332405,8.5,3.8926382999999998L8.5,8.0385432C8.5,8.2678671,8.489169,8.3239546,8.4589187,8.3805175C8.4401534,8.4156055,8.4156058,8.4401541,8.3805177,8.4589186L8.368341000000001,8.465107C8.3150581,8.4906611,8.251486700000001,8.5,8.0385431,8.5L7.5,8.5L7.5,3.8926382999999998C7.5,3.7332405,7.5127357,3.672484,7.5410813,3.6194823C7.5598466,3.5843943,7.5843943,3.5598466,7.6194823,3.5410813C7.672484,3.5127357,7.7332405,3.5,7.8926383,3.5Z" fill-rule="evenodd" fill="#FFFFFF" fill-opacity="1"/></g></g></g></g></svg>