<svg xmlns="http://www.w3.org/2000/svg" xmlns:xlink="http://www.w3.org/1999/xlink" fill="none" version="1.1" width="16" height="16" viewBox="0 0 16 16"><g><g></g><g><path d="M2,4.6666667L2,11.333334C2,12.806094,3.1939073000000002,14,4.6666667,14L11.333334,14C12.806094,14,14,12.806094,14,11.333334L14,4.6666667C14,3.1939073000000002,12.806094,2,11.333334,2L4.6666667,2C3.1939073000000002,2,2,3.1939073000000002,2,4.6666667ZM9.920654299999999,5.5397639000000005L9.920654299999999,10.4603996Q9.9206538,10.5463839,9.9374285,10.6307163Q9.9542027,10.7150478,9.9871078,10.794487Q10.0200119,10.8739262,10.0677834,10.9454193Q10.1155539,11.0169134,10.1763544,11.077714Q10.237154,11.1385136,10.3086481,11.1862841Q10.3801422,11.2340546,10.4595814,11.2669592Q10.5390205,11.2998638,10.623353,11.3166389Q10.7076855,11.3334141,10.7936707,11.333415Q10.8796549,11.3334141,10.9639864,11.3166399Q11.0483189,11.2998648,11.127758,11.2669601Q11.2071972,11.2340546,11.2786913,11.186285Q11.3501844,11.1385145,11.410985,11.0777149Q11.4717846,11.0169144,11.5195541,10.9454203Q11.5673256,10.8739262,11.6002302,10.794487Q11.6331348,10.7150478,11.64991,10.6307154Q11.6666851,10.5463839,11.6666861,10.4603996L11.6666861,5.5397639000000005Q11.6666851,5.4537792,11.64991,5.3694465000000005Q11.6331348,5.2851143,11.6002302,5.2056749Q11.5673256,5.1262355,11.5195551,5.0547421Q11.4717846,4.9832487,11.410985,4.9224484Q11.3501844,4.8616481,11.2786903,4.8138776Q11.2071972,4.7661071,11.127758,4.7332022Q11.0483189,4.7002974,10.9639874,4.6835227Q10.8796549,4.666748,10.7936707,4.666748Q10.7076855,4.666748,10.623353,4.6835227Q10.5390205,4.7002974,10.4595814,4.7332022Q10.3801422,4.7661071,10.3086481,4.8138776Q10.237154,4.8616481,10.1763544,4.9224484Q10.1155539,4.9832487,10.0677834,5.0547421Q10.0200129,5.1262355,9.9871082,5.2056749Q9.9542031,5.2851143,9.9374285,5.3694465000000005Q9.9206538,5.4537792,9.920654299999999,5.5397639000000005ZM7.1269531,7.5397639L7.1269531,10.4603996Q7.1269531,10.5463839,7.1437278,10.6307163Q7.1605024,10.7150478,7.1934071,10.794487Q7.2263117,10.8739262,7.2740822,10.9454193Q7.3218527,11.0169134,7.3826532,11.077714Q7.4434533,11.1385136,7.5149469,11.1862841Q7.5864401,11.2340546,7.6658797,11.2669592Q7.7453194,11.2998638,7.8296518,11.3166389Q7.9139843,11.3334141,7.999969,11.333415Q8.085953199999999,11.3334141,8.1702852,11.3166399Q8.2546177,11.2998648,8.3340569,11.2669601Q8.413496,11.2340546,8.484989599999999,11.186285Q8.5564833,11.1385145,8.6172838,11.0777149Q8.6780839,11.0169144,8.7258544,10.9454203Q8.7736249,10.8739262,8.80653,10.794487Q8.8394346,10.7150478,8.8562098,10.6307154Q8.872984899999999,10.5463839,8.872984899999999,10.4603996L8.872984899999999,7.5397639Q8.872984899999999,7.4537792,8.8562098,7.3694468Q8.8394346,7.2851143,8.80653,7.2056746Q8.7736249,7.126235,8.7258544,7.0547419Q8.6780839,6.9832482,8.6172838,6.9224482Q8.5564833,6.8616476,8.484990100000001,6.8138771Q8.4134965,6.7661066,8.3340573,6.733202Q8.2546177,6.7002974,8.1702857,6.6835227Q8.085953199999999,6.666748,7.999969,6.666748Q7.9139843,6.666748,7.8296518,6.6835227Q7.7453189,6.7002974,7.6658792,6.733202Q7.5864401,6.7661066,7.5149469,6.8138771Q7.4434533,6.8616476,7.3826532,6.9224482Q7.3218527,6.9832482,7.2740822,7.0547419Q7.2263117,7.1262355,7.1934071,7.2056751Q7.1605024,7.2851143,7.1437278,7.3694468Q7.1269531,7.4537792,7.1269531,7.5397639ZM4.333252,8.6877131L4.333252,10.4601994Q4.333252,10.5461836,4.3500266,10.6305161Q4.3668013000000006,10.7148476,4.3997060999999995,10.7942867Q4.432611,10.8737259,4.4803815,10.945219Q4.528152,11.0167141,4.5889523,11.0775146Q4.649752599999999,11.1383152,4.721246,11.1860847Q4.7927394,11.2338552,4.8721788,11.2667599Q4.9516182,11.2996655,5.0359507,11.3164396Q5.1202831,11.3332157,5.2062678,11.3332157Q5.2922521,11.3332157,5.3765845,11.3164396Q5.4609168,11.2996655,5.5403562,11.2667599Q5.6197953,11.2338552,5.6912889,11.1860847Q5.7627825999999995,11.1383152,5.8235829,11.0775146Q5.8843832,11.0167141,5.932153700000001,10.94522Q5.9799240000000005,10.8737259,6.0128288,10.7942867Q6.0457335,10.7148476,6.0625086,10.6305151Q6.0792837,10.5461836,6.0792837,10.4601994L6.0792837,8.6877131Q6.0792837,8.601728399999999,6.0625086,8.517396Q6.0457335,8.4330635,6.0128288,8.353623899999999Q5.9799240000000005,8.2741842,5.932153700000001,8.2026911Q5.8843832,8.131197499999999,5.8235831000000005,8.070397400000001Q5.7627825999999995,8.0095968,5.6912889,7.9618263Q5.6197953,7.9140558,5.5403562,7.8811512Q5.4609168,7.8482466,5.3765845,7.8314719Q5.2922521,7.8146973,5.2062678,7.8146973Q5.1202831,7.8146973,5.0359507,7.8314719Q4.9516182,7.8482466,4.872179,7.8811512Q4.7927394,7.9140558,4.7212461999999995,7.9618263Q4.649752599999999,8.0095968,4.5889523,8.070397400000001Q4.528152,8.131197499999999,4.4803815,8.2026911Q4.432611,8.2741842,4.3997060999999995,8.353623899999999Q4.3668013000000006,8.4330635,4.3500266,8.517396Q4.333252,8.601728399999999,4.333252,8.6877131Z" fill-rule="evenodd" fill="#8A8A91" fill-opacity="1"/></g></g></svg>