<svg xmlns="http://www.w3.org/2000/svg" xmlns:xlink="http://www.w3.org/1999/xlink" fill="none" version="1.1" width="16" height="16" viewBox="0 0 16 16"><g><g><path d="M13.368422,7.5C13.717232,7.5,14,7.79847685,14,8.16666669C14,8.5348566,13.717232,8.8333334,13.368422,8.8333334L2.63157904,8.8333334C2.28276753,8.8333334,2,8.5348566,2,8.16666669C2,7.79847685,2.28276753,7.5,2.63157904,7.5L13.368422,7.5Z" fill="#0C0C0D" fill-opacity="1"/></g><g><path d="M8.16666669,2C8.5348566,2,8.8333334,2.28276753,8.8333334,2.63157904L8.8333334,13.368422C8.8333334,13.717232,8.5348566,14,8.16666669,14C7.79847685,14,7.5,13.717232,7.5,13.368422L7.5,2.63157904C7.5,2.28276753,7.79847685,2,8.16666669,2Z" fill="#0C0C0D" fill-opacity="1"/></g></g></svg>