<svg xmlns="http://www.w3.org/2000/svg" xmlns:xlink="http://www.w3.org/1999/xlink" fill="none" version="1.1" width="191" height="36" viewBox="0 0 191 36"><g><rect x="0" y="0" width="191" height="36" rx="18" fill="#D7FE03" fill-opacity="1"/><g><g><g><g><g><path d="M21.91443447734375,11.000213623046875C23.09883307734375,11.000213623046875,23.679483777343748,11.112342673046875,24.28314077734375,11.435181793046874C24.833887777343747,11.729724403046875,25.27010377734375,12.165940023046875,25.56464677734375,12.716686723046875C25.88748477734375,13.320343523046875,25.99961377734375,13.900995223046875,25.99961377734375,15.085394823046876L25.99961377734375,17.333547123046877C25.99961377734375,17.701737923046874,25.70113677734375,18.000213623046875,25.33294677734375,18.000213623046875C24.96475777734375,18.000213623046875,24.66628077734375,17.701737923046874,24.66628077734375,17.333547123046877L24.66628077734375,15.085394823046876C24.66628077734375,14.102281523046875,24.59430677734375,13.729573023046875,24.38889577734375,13.345485423046874C24.21861877734375,13.027096223046875,23.97273177734375,12.781209023046875,23.65434277734375,12.610932723046876C23.270255077343748,12.405520423046875,22.89754677734375,12.333547023046876,21.91443447734375,12.333547023046876L17.30736497734375,12.333869923046874C16.40632817734375,12.339280823046876,16.04753377734375,12.413420723046874,15.678218577343749,12.610932723046876C15.35982937734375,12.781209023046875,15.11394217734375,13.027096223046875,14.94366587734375,13.345485423046874C14.73825357734375,13.729573023046875,14.66628017734375,14.102281523046875,14.66628017734375,15.085394823046876L14.66660307734375,21.025796623046872C14.67201397734375,21.926833623046875,14.74615387734375,22.285627623046874,14.94366587734375,22.654941623046874C15.11394217734375,22.973331623046874,15.35982937734375,23.219218623046874,15.678218577343749,23.389494623046875C16.06230617734375,23.594907623046875,16.43501467734375,23.666880623046875,17.41812797734375,23.666880623046875L21.91443447734375,23.666880623046875C22.282623277343752,23.666880623046875,22.58110047734375,23.965357623046877,22.58110047734375,24.333547623046876C22.58110047734375,24.701736623046877,22.282623277343752,25.000213623046875,21.91443447734375,25.000213623046875L17.41812797734375,25.000213623046875C16.233728377343752,25.000213623046875,15.65307667734375,24.888084623046876,15.04941987734375,24.565245623046877C14.49867317734375,24.270704623046875,14.06245755734375,23.834487623046876,13.76791494734375,23.283740623046874C13.44507582734375,22.680084623046874,13.33294677734375,22.099433623046878,13.33294677734375,20.915033323046877L13.33294677734375,15.085394823046876C13.33294677734375,13.900995223046875,13.44507582734375,13.320343523046875,13.76791494734375,12.716686723046875C14.06245755734375,12.165940023046875,14.49867317734375,11.729724403046875,15.04941987734375,11.435181793046874C15.65307667734375,11.112342673046875,16.233728377343752,11.000213623046875,17.41812797734375,11.000213623046875L21.91443447734375,11.000213623046875Z" fill="#0C0C0D" fill-opacity="1"/></g><g><path d="M22.000386722656252,15.500213623046875C22.36857752265625,15.500213623046875,22.66705322265625,15.798690473046875,22.66705322265625,16.166880313046875C22.66705322265625,16.535070223046876,22.36857752265625,16.833547023046876,22.000386722656252,16.833547023046876L17.33371991265625,16.833547023046876C16.96553007265625,16.833547023046876,16.66705322265625,16.535070223046876,16.66705322265625,16.166880313046875C16.66705322265625,15.798690473046875,16.96553007265625,15.500213623046875,17.33371991265625,15.500213623046875L22.000386722656252,15.500213623046875Z" fill="#0C0C0D" fill-opacity="1"/></g><g><path d="M22.00012062265625,19.164882714203028C22.36831042265625,19.16473572180211,22.66690732265625,19.46309342991211,22.66705322265625,19.831283209912108C22.66720012265625,20.19947315991211,22.36884262265625,20.49806905991211,22.00065322265625,20.49821605991211L17.33398616265625,20.500079159912108C16.96579623265625,20.50022625991211,16.66720026932625,20.20186855991211,16.667053276947165,19.83367865991211C16.66690628456625,19.465488789912108,16.96526396265625,19.16689277971211,17.33345377265625,19.166745787412108L22.00012062265625,19.164882714203028Z" fill="#0C0C0D" fill-opacity="1"/></g><g><path d="M25.33371991265625,19.1666259765625C25.70190982265625,19.1666259765625,26.00038662265625,19.465102846562502,26.00038662265625,19.8332926665625L26.00038662265625,24.3332929765625C26.00038662265625,24.7014836765625,25.70190982265625,24.999959476562502,25.33371991265625,24.999959476562502C24.965530092656252,24.999959476562502,24.66705322265625,24.7014836765625,24.66705322265625,24.3332929765625L24.66705322265625,19.8332926665625C24.66705322265625,19.465102846562502,24.965530092656252,19.1666259765625,25.33371991265625,19.1666259765625Z" fill="#0C0C0D" fill-opacity="1"/></g></g></g><g transform="matrix(0.7071067690849304,-0.7071067690849304,0.7071067690849304,0.7071067690849304,-9.533994739342234,22.98092324068648)"><path d="M23.64107376354492,22.9980354309682C24.00926353354492,22.9980354309682,24.30774033354492,23.296512213408203,24.30774033354492,23.664701993408205L24.30774033354492,24.998035193408203L25.64107343354492,24.998035193408203C25.992527233544923,24.998035193408203,26.28046203354492,25.269994293408203,26.30591173354492,25.614947593408203L26.307740233544923,25.664701693408205C26.307740233544923,26.032891993408203,26.009263733544923,26.331368493408203,25.64107343354492,26.331368493408203L23.64107376354492,26.331368493408203C23.272883983544922,26.331368493408203,22.974407196044922,26.032891993408203,22.974407196044922,25.664701693408205L22.974407196044922,23.664701993408205C22.974407196044922,23.296512213408203,23.272883983544922,22.9980354309682,23.64107376354492,22.9980354309682Z" fill="#0C0C0D" fill-opacity="1"/></g></g></g><g><path d="M32.75534379,12.2121248L45.258657,12.2121248L45.258657,13.5493431L32.75534379,13.5493431L32.75534379,12.2121248ZM38.0127816,13.3400002L39.4221878,13.3400002L39.4221878,24.152374L38.0127816,24.152374L38.0127816,13.3400002ZM38.7727189,16.6978121L39.6612816,15.657218499999999Q40.2689686,15.9479375,40.9530001,16.3165312Q41.6370316,16.684905999999998,42.312531,17.0784378Q42.988251,17.4717503,43.577563,17.848875Q44.167094,18.226,44.577688,18.549749L43.61825,19.760312Q43.231280999999996,19.430656,42.661438000000004,19.034719000000003Q42.091813,18.638781,41.427907,18.226656Q40.7639999,17.814312,40.079969399999996,17.4161873Q39.3959379,17.0180626,38.7727189,16.6978121ZM56.304001,12.014374700000001L57.258188000000004,11.40625Q57.569030999999995,11.6696243,57.898468,11.9957809Q58.228127,12.3219376,58.516438,12.647437100000001Q58.80497,12.9727182,58.965096,13.2402496L57.956001,13.923625000000001Q57.721283,13.5202494,57.243313,12.9777498Q56.765343,12.435030900000001,56.304001,12.014374700000001ZM46.703281000000004,14.2937498L59.347687,14.2937498L59.347687,15.3426561L46.703281000000004,15.3426561L46.703281000000004,14.2937498ZM47.414,12.2289686L53.617094,12.2289686L53.617094,13.262125000000001L47.414,13.262125000000001L47.414,12.2289686ZM49.949093000000005,11.1796246L51.215876,11.1796246L51.215876,14.8570309L49.949093000000005,14.8570309L49.949093000000005,11.1796246ZM54.42078,11.198L55.732845,11.198Q55.701344,13.104187,55.783375,14.843030899999999Q55.865625,16.5818748,56.05397,18.028469Q56.242312999999996,19.474843999999997,56.523188000000005,20.542343000000002Q56.804062,21.609625,57.176376000000005,22.195656Q57.548906,22.781688000000003,57.987938,22.781688000000003Q58.223751,22.781688000000003,58.343188999999995,22.284469Q58.462845,21.787031,58.518845,20.617156Q58.714188,20.83,59.009501,21.019438Q59.305031,21.208655999999998,59.538,21.307094Q59.441092999999995,22.369999999999997,59.250563,22.968938Q59.060249,23.567875,58.733436999999995,23.811125Q58.406845000000004,24.054375,57.873751,24.054375Q57.193218,24.054375,56.671938,23.579469Q56.150658,23.104781,55.772655,22.239407Q55.394656999999995,21.373813,55.135000000000005,20.186438000000003Q54.875343,18.998844,54.717625,17.5627499Q54.560125,16.1266556,54.493406,14.5144682Q54.426907,12.9020624,54.42078,11.198ZM57.627876,16.0258121L58.805626000000004,16.3556871Q58.341875,17.975749999999998,57.652812999999995,19.439405999999998Q56.963749,20.902843,56.043688,22.11975Q55.123627,23.336657000000002,53.952,24.235937Q53.803688,24.023094,53.544906999999995,23.761907Q53.286125,23.500719,53.045280000000005,23.327030999999998Q54.148001,22.557688,55.028908,21.4215Q55.909813,20.285093,56.563438000000005,18.9085Q57.217281,17.5316868,57.627876,16.0258121ZM46.91,16.600250199999998L54.079094,16.600250199999998L54.079094,17.6552811L46.91,17.6552811L46.91,16.600250199999998ZM50.502312,18.033281000000002L51.737812000000005,18.033281000000002L51.737812000000005,24.120001L50.502312,24.120001L50.502312,18.033281000000002ZM47.596657,20.353344Q47.566906,20.219031,47.498875,20.001812Q47.430842999999996,19.784375,47.351,19.555343999999998Q47.271156,19.326312,47.190001,19.168374999999997Q47.369156000000004,19.124844,47.536500000000004,18.940657Q47.704062,18.75625,47.873813,18.471874Q48.001343,18.283751000000002,48.264282,17.790906Q48.527218000000005,17.298062299999998,48.822094,16.6380939Q49.116968,15.978124600000001,49.326969,15.295624700000001L50.62175,15.6410308Q50.316376000000005,16.3876247,49.937719,17.1287498Q49.55928,17.869875,49.156563,18.523062Q48.754063,19.17625,48.357031,19.690969000000003L48.357031,19.720717999999998Q48.357031,19.720717999999998,48.242188,19.783937Q48.127344,19.847157,47.976625,19.948Q47.826125,20.048842999999998,47.711281,20.156688000000003Q47.596657,20.264313,47.596657,20.353344ZM47.596657,20.353344L47.596657,19.390843L48.243938,19.036250000000003L53.843937,19.036250000000003L53.836062999999996,20.146186999999998L48.743342999999996,20.146186999999998Q48.314375,20.146186999999998,48.004406,20.203062Q47.694656,20.259937,47.596657,20.353344ZM46.846125,21.603281000000003Q47.73775,21.542906000000002,48.921406000000005,21.451468Q50.105282,21.359813000000003,51.444469,21.251967999999998Q52.783874999999995,21.144125000000003,54.124374,21.029282000000002L54.116718,22.109688Q52.839873999999995,22.233936999999997,51.548157,22.361468000000002Q50.256657000000004,22.488781,49.081312,22.598375Q47.906187,22.70775,46.971030999999996,22.804000000000002L46.846125,21.603281000000003ZM60.580126,12.7487183L65.873219,12.7487183L65.873219,13.9682493L60.580126,13.9682493L60.580126,12.7487183ZM63.29175,15.0206561L64.560062,15.0206561L64.560062,24.137281L63.29175,24.137281L63.29175,15.0206561ZM60.484967999999995,20.553281Q61.210125000000005,20.444781,62.153155999999996,20.305Q63.096188,20.165218,64.151218,19.994594Q65.206249,19.82375,66.25975,19.652906L66.319031,20.799156Q64.855156,21.075875,63.381001,21.350842999999998Q61.906842999999995,21.625813,60.752061999999995,21.834063L60.484967999999995,20.553281ZM61.081282,18.489157Q61.05175,18.362719,60.987438,18.153375Q60.923344,17.9438124,60.840437,17.7257185Q60.75775,17.5076246,60.682718,17.3496876Q60.877624999999995,17.298062299999998,61.046282000000005,16.9935627Q61.215157000000005,16.6888437,61.397155999999995,16.2347183Q61.487282,16.0122499,61.664469,15.498187099999999Q61.841875,14.9841251,62.042249999999996,14.2841244Q62.242844000000005,13.584124599999999,62.432281,12.7821875Q62.621937,11.9802494,62.730655999999996,11.18225L64.02521899999999,11.4276867Q63.773218,12.5649681,63.416656,13.716468800000001Q63.060311999999996,14.8677502,62.647095,15.9164371Q62.233875,16.9649067,61.812124,17.7987804L61.812124,17.8206558Q61.812124,17.8206558,61.70122,17.891750299999998Q61.590312999999995,17.9628429,61.446594000000005,18.070687Q61.303093000000004,18.178312,61.192188,18.290093Q61.081282,18.401875,61.081282,18.489157ZM61.081282,18.489157L61.081282,17.4107189L61.720905,17.0858746L65.827938,17.0858746L65.827938,18.283751000000002L62.133688,18.283751000000002Q61.788719,18.283751000000002,61.480937999999995,18.339750000000002Q61.173157,18.39575,61.081282,18.489157ZM67.87412599999999,18.009874L72.026657,18.009874L72.026657,19.246906L67.87412599999999,19.246906L67.87412599999999,18.009874ZM71.70903,18.009874L71.918373,18.009874L72.12181100000001,17.936374700000002L73.05696900000001,18.397938Q72.642654,19.003875,72.138874,19.702782Q71.63509400000001,20.401688,71.09631300000001,21.106719Q70.557751,21.81175,70.04697,22.454656999999997L68.908375,21.924188Q69.411282,21.311031,69.93825100000001,20.60775Q70.465218,19.904249999999998,70.935314,19.253031Q71.405624,18.601812000000002,71.70903,18.150312L71.70903,18.009874ZM67.248718,21.248905999999998L68.09484499999999,20.396656Q68.845158,20.807032,69.612534,21.301625Q70.380127,21.796,71.05256299999999,22.287531Q71.72522000000001,22.778844,72.159874,23.184844L71.29362499999999,24.220188Q70.868378,23.800187,70.19900100000001,23.271250000000002Q69.52962500000001,22.742312,68.757217,22.205719000000002Q67.98503099999999,21.668906,67.248718,21.248905999999998ZM69.307812,11.1936245L70.621624,11.357687Q70.38975099999999,12.3212805,70.106689,13.3938122Q69.823624,14.4661245,69.530281,15.5360312Q69.237156,16.605938000000002,68.961967,17.562969199999998Q68.68678299999999,18.52,68.448784,19.246906L67.031937,19.246906Q67.29968600000001,18.47625,67.607689,17.4857502Q67.915688,16.495031400000002,68.223686,15.4025936Q68.531689,14.3099375,68.811687,13.2266874Q69.09169,12.143218000000001,69.307812,11.1936245ZM66.48922,12.7563744L72.97625,12.7563744L72.97625,13.976124800000001L66.48922,13.976124800000001L66.48922,12.7563744ZM65.971874,15.3789687L73.470844,15.3789687L73.470844,16.6142502L65.971874,16.6142502L65.971874,15.3789687ZM81.134312,11.4090939L82.55793800000001,11.4090939L82.55793800000001,21.668906Q82.55793800000001,22.269813,82.692032,22.436937Q82.826126,22.604062,83.29665800000001,22.604062Q83.411282,22.604062,83.688,22.604062Q83.964718,22.604062,84.293938,22.604062Q84.62315799999999,22.604062,84.905125,22.604062Q85.187096,22.604062,85.320312,22.604062Q85.668125,22.604062,85.83897,22.35775Q86.009811,22.111218,86.089001,21.471594Q86.16819000000001,20.83175,86.21019,19.654656Q86.389999,19.782844,86.620564,19.914094Q86.85134500000001,20.045343000000003,87.09,20.144Q87.328655,20.242657,87.524002,20.294063Q87.44437400000001,21.632375,87.254063,22.424031Q87.063751,23.215688,86.641998,23.570719Q86.220249,23.92575,85.42728,23.92575Q85.327751,23.92575,85.09631300000001,23.92575Q84.865093,23.92575,84.571095,23.92575Q84.27709200000001,23.92575,83.980034,23.92575Q83.682968,23.92575,83.454811,23.92575Q83.226658,23.92575,83.126907,23.92575Q82.35362599999999,23.92575,81.920063,23.723406Q81.486717,23.521281000000002,81.310406,23.022531999999998Q81.134312,22.524,81.134312,21.640906L81.134312,11.4090939ZM86.000843,13.118186999999999L87.275284,13.9772186Q86.23819,15.4299374,84.91453200000001,16.6945305Q83.591095,17.9589062,82.159157,18.965375Q80.72721899999999,19.971624,79.340126,20.667687Q79.235344,20.517625000000002,79.068657,20.335406Q78.902187,20.152968,78.71690799999999,19.971624Q78.531624,19.790062,78.35793699999999,19.661875000000002Q79.721626,19.007812,81.12687700000001,18.023438Q82.532127,17.038843200000002,83.80328399999999,15.79Q85.074657,14.5411558,86.000843,13.118186999999999ZM78.201752,11.1553431L79.534374,11.5810308Q79.044376,12.764905899999999,78.373688,13.9319372Q77.70322,15.0989685,76.937595,16.1189995Q76.172188,17.1390305,75.372658,17.916906400000002Q75.29762600000001,17.7572184,75.140343,17.506093999999997Q74.98328000000001,17.254968599999998,74.81353,16.996843300000002Q74.644001,16.738718,74.50968900000001,16.593030900000002Q75.244907,15.935687099999999,75.935936,15.0683436Q76.626968,14.2007809,77.209938,13.1980305Q77.792908,12.195281,78.201752,11.1553431ZM76.74290500000001,14.8207188L78.12278,13.4469681L78.13503299999999,13.460968000000001L78.13503299999999,24.17425L76.74290500000001,24.17425L76.74290500000001,14.8207188ZM92.817093,14.0126562L93.042187,14.0126562L93.26903200000001,13.9689064L94.09,14.1627188Q93.867752,16.842844,93.234905,18.784686999999998Q92.60206199999999,20.726312999999998,91.579189,22.03925Q90.556313,23.352187,89.12722,24.16375Q89.04431199999999,23.997937,88.901249,23.804781Q88.758186,23.611625,88.601124,23.423062Q88.444061,23.234718,88.301876,23.114187Q89.579155,22.474781,90.519127,21.271438Q91.45909499999999,20.067875,92.04249999999999,18.314594Q92.626125,16.5610933,92.817093,14.279749899999999L92.817093,14.0126562ZM94.624844,12.137093499999999L100.097748,12.137093499999999L100.097748,13.3428431L94.624844,13.3428431L94.624844,12.137093499999999ZM94.026783,17.0510941L101.502129,17.0510941L101.502129,18.31175L94.026783,18.31175L94.026783,17.0510941ZM97.154907,15.5627184L98.523628,15.5627184L98.523628,22.682375Q98.523628,23.221156,98.375313,23.514063Q98.227219,23.806969000000002,97.848129,23.964907Q97.475159,24.114969,96.913406,24.152374Q96.351875,24.190001,95.525875,24.183876Q95.47425100000001,23.91,95.33665500000001,23.547093Q95.19928,23.184188,95.06321700000001,22.921687Q95.453033,22.929344,95.818344,22.936344Q96.183876,22.943344,96.461472,22.940281Q96.739281,22.937219,96.85128,22.937219Q97.021034,22.931094,97.087967,22.872031Q97.154907,22.812969000000002,97.154907,22.665093L97.154907,15.5627184ZM99.603157,12.137093499999999L99.952065,12.137093499999999L100.26181,12.0638123L101.170059,12.7110939Q100.759033,13.333874699999999,100.229874,13.994936899999999Q99.700722,14.6560001,99.112938,15.2571249Q98.525154,15.8582497,97.923813,16.313031199999998Q97.797157,16.141094199999998,97.561127,15.9190621Q97.325096,15.697030999999999,97.154907,15.5627184Q97.630905,15.1593437,98.100342,14.6037188Q98.57,14.047874499999999,98.967033,13.4688435Q99.364059,12.8898125,99.603157,12.4293432L99.603157,12.137093499999999ZM88.529156,14.0126562L93.182842,14.0126562L93.182842,15.2400622L88.529156,15.2400622L88.529156,14.0126562ZM88.76825,18.844842999999997L89.562313,17.884311699999998Q90.198658,18.318969,90.87875,18.8245Q91.558846,19.329812,92.205467,19.866405999999998Q92.852314,20.402780999999997,93.384094,20.914437Q93.915874,21.425874999999998,94.255157,21.872781L93.362656,23.000656Q93.03103300000001,22.545875000000002,92.514999,22.008625000000002Q91.99897,21.471156,91.370937,20.915093Q90.74290500000001,20.359032,90.070469,19.823968999999998Q89.398251,19.288906,88.76825,18.844842999999997ZM88.76825,18.844842999999997Q89.006248,18.115093,89.245564,17.186718Q89.48509200000001,16.2581253,89.699471,15.2256246Q89.914062,14.1929064,90.08643699999999,13.157780599999999Q90.259033,12.1226559,90.353748,11.1951561L91.669094,11.2859373Q91.543095,12.264842999999999,91.347969,13.341530800000001Q91.15284299999999,14.4179993,90.919437,15.489874799999999Q90.686249,16.5617504,90.438187,17.5443745Q90.190125,18.526781,89.95037500000001,19.311218L88.76825,18.844842999999997ZM103.909035,13.4412813L108.185814,13.4412813L108.185814,22.717156L103.909035,22.717156L103.909035,21.536780999999998L106.973938,21.536780999999998L106.973938,14.607874899999999L103.909035,14.607874899999999L103.909035,13.4412813ZM103.133347,13.4412813L104.345222,13.4412813L104.345222,23.797344000000002L103.133347,23.797344000000002L103.133347,13.4412813ZM103.846909,17.2678747L107.58316,17.2678747L107.58316,18.426374L103.846909,18.426374L103.846909,17.2678747ZM105.209938,11.1592808L106.647346,11.393343Q106.426186,12.06775,106.176376,12.7539682Q105.926781,13.4401875,105.716782,13.9196873L104.653221,13.6681252Q104.76194,13.3148432,104.869781,12.8744993Q104.977623,12.4339371,105.071251,11.9804688Q105.165092,11.526781100000001,105.209938,11.1592808ZM110.116066,13.3690939L114.326126,13.3690939L114.326126,14.5888433L110.116066,14.5888433L110.116066,13.3690939ZM113.860184,13.3690939L115.095688,13.3690939Q115.095688,13.3690939,115.095688,13.490937200000001Q115.095688,13.6127806,115.095688,13.764374700000001Q115.095688,13.9157495,115.087814,14.004780799999999Q115.013222,16.3920002,114.934029,18.048594Q114.854843,19.704968,114.747437,20.769844Q114.640251,21.834719,114.497185,22.425344000000003Q114.354126,23.01575,114.136253,23.285031Q113.875938,23.636125,113.593529,23.768031Q113.31134,23.899938,112.911034,23.953094Q112.540253,23.998375,111.95903,23.989187Q111.377815,23.98,110.772316,23.95375Q110.758316,23.677032,110.64019,23.30625Q110.522064,22.935687,110.334373,22.669687Q111.018845,22.725687,111.593498,22.739688Q112.168373,22.753688,112.423874,22.753688Q112.633873,22.753688,112.769936,22.706875Q112.905998,22.660063,113.027626,22.520062Q113.201752,22.331938,113.329941,21.764937Q113.458122,21.197937,113.550438,20.153624999999998Q113.642967,19.109094,113.721283,17.5006247Q113.799812,15.8919373,113.860184,13.6361876L113.860184,13.3690939ZM110.295219,11.1520624L111.571625,11.4478121Q111.309998,12.482062299999999,110.941841,13.492687199999999Q110.573685,14.5030937,110.136185,15.3916559Q109.698906,16.279999699999998,109.216782,16.951999700000002Q109.102371,16.8456879,108.899155,16.6978121Q108.695938,16.549937200000002,108.488785,16.409936899999998Q108.281624,16.269937499999997,108.123688,16.187030800000002Q108.597939,15.576062199999999,109.007874,14.7675619Q109.417816,13.9588432,109.744408,13.0280619Q110.07122,12.0972805,110.295219,11.1520624ZM109.630653,17.183218L110.666,16.5952187Q111.043343,17.083686800000002,111.454376,17.662937200000002Q111.865623,18.242188,112.226997,18.787531Q112.588379,19.332656,112.810844,19.752656L111.686249,20.451344Q111.485878,20.017344,111.14003,19.454281Q110.794189,18.891218000000002,110.398033,18.293156Q110.001877,17.695093200000002,109.630653,17.183218ZM123.643997,23L117.008003,23L117.008003,13.1999998L123.573997,13.1999998L123.573997,14.5859995L118.674004,14.5859995L118.674004,17.316000000000003L123,17.316000000000003L123,18.631999999999998L118.674004,18.631999999999998L118.674004,21.614L123.643997,21.614L123.643997,23ZM127.172005,19.205999L124.694,15.6639996L126.5,15.6639996L128.12400100000002,18.128L129.720001,15.6639996L131.526001,15.6639996L129.062004,19.205999L131.82,23L129.97199999999998,23L128.12400100000002,20.326L126.290001,23L124.456001,23L127.172005,19.205999ZM135.88,15.5379996Q136.86,15.523999700000001,137.58100000000002,15.8599997Q138.30200000000002,16.1959991,138.82,16.868000000000002L137.714,17.7080002Q137.406,17.2740002,136.958,17.0569992Q136.51,16.8400002,135.922,16.8400002Q134.95600000000002,16.8540001,134.438,17.5119991Q133.92000000000002,18.17,133.92000000000002,19.304000000000002Q133.92000000000002,20.48,134.459,21.145Q134.998,21.809998999999998,135.936,21.809998999999998Q136.51,21.809998999999998,136.951,21.593Q137.392,21.375999,137.714,20.955999L138.77800000000002,21.852Q138.24599999999998,22.496000000000002,137.553,22.811Q136.86,23.125999999999998,135.88,23.125999999999998Q134.24200000000002,23.125999999999998,133.276,22.118000000000002Q132.31,21.11,132.31,19.304000000000002Q132.31,17.5119991,133.255,16.5319996Q134.2,15.5519996,135.88,15.5379996ZM139.464,19.36Q139.464,17.469999299999998,140.374,16.5039997Q141.284,15.5379996,143.01999999999998,15.5379996Q144.672,15.5379996,145.561,16.4969997Q146.45,17.4559994,146.45,19.346L146.45,19.822L141.046,19.822Q141.102,20.802,141.662,21.326999999999998Q142.22199999999998,21.852,143.14600000000002,21.852Q143.804,21.852,144.329,21.649Q144.85399999999998,21.445999999999998,145.274,21.012L146.1,21.964Q145.498,22.566000000000003,144.763,22.846Q144.02800000000002,23.125999999999998,143.10399999999998,23.125999999999998Q141.95600000000002,23.125999999999998,141.123,22.678Q140.29000000000002,22.23,139.877,21.382998999999998Q139.464,20.536,139.464,19.36ZM144.91,18.757998999999998Q144.868,17.8479996,144.399,17.316000000000003Q143.93,16.7840004,143.006,16.7840004Q142.054,16.7840004,141.571,17.316000000000003Q141.088,17.8479996,141.046,18.757998999999998L144.91,18.757998999999998ZM149.558,12.5839996L149.558,20.606Q149.558,21.236,149.76801,21.537Q149.978,21.838,150.51,21.992L149.964,23.266Q149.138,23.125999999999998,148.71800000000002,22.817999999999998Q148.298,22.509999999999998,148.123,22.02Q147.94801,21.53,147.94801,20.844L147.94801,12.5839996L149.558,12.5839996ZM160.76369,14.210187000000001L162.13219,14.591687199999999Q161.26485,17.142969100000002,159.88737,18.991844Q158.51012,20.840719,156.57244,22.097438Q154.63497,23.353937000000002,152.07581,24.14975Q152.00079,23.990063,151.85772,23.756219Q151.71465999999998,23.522375,151.55277999999998,23.288531Q151.39091000000002,23.054906000000003,151.25637999999998,22.903093Q153.75297,22.226063,155.606,21.096218999999998Q157.45902999999998,19.966375,158.73390999999998,18.270187Q160.00879,16.573999399999998,160.76369,14.210187000000001ZM154.81369,14.2869682Q155.57975,16.404249200000002,156.901,18.118813Q158.22225,19.833157,160.1046,21.04Q161.98715,22.246843,164.43103,22.842063Q164.28709,22.986,164.1134,23.208906Q163.93994,23.431812,163.78593,23.659312Q163.63194,23.887031999999998,163.52716,24.074718Q160.99097,23.382375,159.08588,22.080156000000002Q157.18079,20.777937,155.8289,18.907844Q154.47704,17.037750199999998,153.58891,14.6700001L154.81369,14.2869682ZM151.48431,13.6031561L164.21535,13.6031561L164.21535,14.895093899999999L151.48431,14.895093899999999L151.48431,13.6031561ZM156.67437999999999,11.4797497L158.07,11.0636873Q158.3791,11.5598125,158.67812,12.1639996Q158.97716,12.7681875,159.11212999999998,13.210062L157.63206,13.6777496Q157.51897,13.243749600000001,157.24335000000002,12.620749499999999Q156.96794,11.9977493,156.67437999999999,11.4797497ZM173.1749,11.3537493L174.506,11.3537493L174.506,24.17425L173.1749,24.17425L173.1749,11.3537493ZM170.77193,11.9159374L172.04813,12.1740618Q171.85825,13.1350307,171.58043,14.076093700000001Q171.30284,15.017156100000001,170.96049,15.8330936Q170.61836,16.6490307,170.22374,17.2772808Q170.10168,17.1788435,169.88971,17.055468599999998Q169.67775,16.9318752,169.46184,16.8155003Q169.24593,16.6989059,169.08012,16.631750099999998Q169.47496,16.0627804,169.80222,15.2999997Q170.12968,14.5372181,170.37381,13.6705313Q170.61794,12.8036251,170.77193,11.9159374ZM171.08606,13.9822493L177.59999,13.9822493L177.59999,15.2803121L170.75465,15.2803121L171.08606,13.9822493ZM169.24812,18.075937L178.23831,18.075937L178.23831,19.374000000000002L169.24812,19.374000000000002L169.24812,18.075937ZM168.41031,11.2338743L169.66309,11.620186799999999Q169.22121,12.8040619,168.62993,13.9759064Q168.03865,15.1477499,167.34828,16.1874685Q166.65811,17.2269688,165.91284,18.026718000000002Q165.85333,17.8670311,165.72275,17.611969000000002Q165.59236,17.3569059,165.44624,17.0979061Q165.30013,16.838906299999998,165.18134,16.679218300000002Q165.82664,16.0139999,166.42427,15.1405311Q167.02213,14.2668438,167.53596,13.267375000000001Q168.0498,12.2676868,168.41031,11.2338743ZM167.00768,14.956124299999999L168.26199,13.7018118L168.27425,13.7158127L168.27425,24.155874L167.00768,24.155874L167.00768,14.956124299999999Z" fill="#0C0C0D" fill-opacity="1"/></g></g></svg>