<svg xmlns="http://www.w3.org/2000/svg" xmlns:xlink="http://www.w3.org/1999/xlink" fill="none" version="1.1" width="16" height="16" viewBox="0 0 16 16"><g><rect x="0" y="0" width="16" height="16" rx="4" fill="#BABABF" fill-opacity="1"/><g><g></g><g><path d="M13,8Q13,8.122743100000001,12.9939785,8.2453384Q12.9879551,8.3679338,12.9759245,8.4900861Q12.9638929,8.6122379,12.9458818,8.7336521Q12.9278717,8.8550663,12.9039259,8.9754515Q12.8799801,9.0958357,12.8501549,9.214900499999999Q12.8203316,9.3339653,12.7847013,9.4514232Q12.7490711,9.568881000000001,12.7077198,9.6844492Q12.6663685,9.8000164,12.6193972,9.9134164Q12.5724258,10.026816400000001,12.5199461,10.137774499999999Q12.4674664,10.248733,12.409606,10.3569832Q12.3517456,10.465232799999999,12.2886419,10.5705128Q12.2255392,10.675792699999999,12.1573467,10.7778502Q12.0891542,10.8799076,12.016037,10.978495599999999Q11.9429188,11.0770836,11.8650522,11.1719656Q11.7871847,11.2668476,11.7047548,11.3577938Q11.6223259,11.448741,11.5355339,11.5355339Q11.448741,11.6223259,11.3577948,11.7047558Q11.2668476,11.7871857,11.1719666,11.8650532Q11.0770845,11.9429207,10.978496100000001,12.0160379Q10.8799076,12.0891552,10.7778502,12.1573477Q10.675792699999999,12.2255402,10.5705128,12.2886429Q10.465232799999999,12.3517456,10.3569832,12.409606Q10.248733,12.4674664,10.1377749,12.5199461Q10.026816400000001,12.5724258,9.9134169,12.6193972Q9.8000169,12.6663685,9.6844487,12.7077198Q9.568881000000001,12.7490711,9.4514232,12.7847013Q9.3339653,12.8203316,9.214900499999999,12.8501568Q9.0958357,12.8799801,8.9754515,12.9039268Q8.8550663,12.9278727,8.7336521,12.9458828Q8.6122379,12.9638939,8.4900861,12.9759245Q8.3679338,12.9879551,8.2453384,12.9939775Q8.122743100000001,13,8,13Q7.8772569,13,7.7546616,12.9939775Q7.6320662,12.9879551,7.5099144,12.9759245Q7.3877621,12.9638929,7.2663474,12.9458818Q7.1449327,12.9278717,7.0245481,12.9039259Q6.9041634,12.8799801,6.7850985999999995,12.8501549Q6.6660342,12.8203316,6.5485766000000005,12.7847013Q6.4311185,12.7490711,6.3155506,12.7077198Q6.1999824,12.6663685,6.0865827,12.6193972Q5.973182700000001,12.5724258,5.862224599999999,12.5199461Q5.751266,12.4674664,5.6430163,12.409606Q5.5347667000000005,12.3517456,5.429486300000001,12.2886419Q5.3242059,12.2255392,5.2221487,12.1573467Q5.1200914,12.0891542,5.0215032,12.016037Q4.9229152,11.9429188,4.8280334,11.8650522Q4.7331517000000005,11.7871847,4.642205,11.7047548Q4.5512584,11.6223259,4.464466,11.5355339Q4.3776735,11.448741,4.2952442,11.3577948Q4.212815,11.2668476,4.1349477,11.1719666Q4.0570803,11.0770845,3.98396218,10.978496100000001Q3.91084421,10.8799076,3.8426517799999997,10.7778502Q3.77445936,10.675792699999999,3.71135676,10.5705128Q3.6482542799999997,10.465232799999999,3.5903936,10.3569832Q3.53253293,10.248733,3.4800534499999998,10.1377749Q3.42757404,10.026816400000001,3.38060227,9.9134169Q3.3336305,9.8000169,3.2922796,9.6844487Q3.25092873,9.568881000000001,3.2152983,9.4514232Q3.17966786,9.3339653,3.14984372,9.214900499999999Q3.12001957,9.0958357,3.096073583,8.9754515Q3.072127596,8.8550663,3.054117441,8.7336521Q3.036107291,8.6122379,3.024076365,8.4900861Q3.012045437,8.3679338,3.0060227183,8.2453384Q3,8.122743100000001,3,8Q3,7.8772569,3.0060227183,7.7546616Q3.012045437,7.6320662,3.024076365,7.5099144Q3.036107291,7.3877621,3.054117441,7.2663474Q3.072127596,7.1449327,3.096073583,7.0245481Q3.12001957,6.9041634,3.14984371,6.7850985999999995Q3.17966786,6.6660342,3.2152983,6.5485766000000005Q3.25092873,6.4311185,3.29227963,6.3155506Q3.3336305,6.1999824,3.38060227,6.0865827Q3.42757404,5.973182700000001,3.4800534499999998,5.862224599999999Q3.53253293,5.751266,3.5903936,5.6430163Q3.6482542799999997,5.5347667000000005,3.71135688,5.429486300000001Q3.77445936,5.3242059,3.8426517799999997,5.2221487Q3.91084421,5.1200914,3.98396218,5.0215032Q4.0570803,4.9229152,4.1349477,4.8280334Q4.212815,4.7331517000000005,4.2952442,4.642205Q4.3776735,4.5512584,4.464466,4.464466Q4.5512584,4.3776735,4.642205,4.2952442Q4.7331518,4.212815,4.8280335999999995,4.1349477Q4.9229152,4.0570803,5.0215034,3.98396218Q5.1200914,3.91084421,5.2221487,3.8426517799999997Q5.3242059,3.77445936,5.429486300000001,3.71135676Q5.5347667000000005,3.6482542799999997,5.6430163,3.5903936Q5.751266,3.53253293,5.862224100000001,3.4800534499999998Q5.973182700000001,3.42757404,6.0865824,3.38060227Q6.1999822,3.3336305,6.3155503,3.2922796Q6.4311185,3.25092873,6.5485766000000005,3.2152983Q6.6660345,3.17966786,6.785099000000001,3.14984372Q6.9041638,3.12001957,7.0245485,3.096073583Q7.1449327,3.072127596,7.2663474,3.054117441Q7.3877621,3.036107291,7.5099144,3.024076365Q7.6320662,3.012045437,7.7546616,3.0060227183Q7.8772569,3,8,3Q8.122743100000001,3,8.2453384,3.0060227183Q8.3679338,3.012045437,8.4900861,3.024076365Q8.6122379,3.036107291,8.7336521,3.054117441Q8.8550663,3.072127596,8.9754515,3.096073583Q9.0958357,3.12001957,9.214900499999999,3.14984371Q9.3339653,3.17966786,9.4514232,3.2152983Q9.568881000000001,3.25092873,9.6844492,3.29227963Q9.8000164,3.3336305,9.9134164,3.38060227Q10.026816400000001,3.42757404,10.137774499999999,3.4800534499999998Q10.248733,3.53253293,10.3569832,3.5903936Q10.465232799999999,3.6482542799999997,10.5705128,3.71135688Q10.675792699999999,3.77445936,10.7778502,3.8426517799999997Q10.8799076,3.91084421,10.978495599999999,3.98396218Q11.0770836,4.0570803,11.1719656,4.1349477Q11.2668476,4.212815,11.3577938,4.2952442Q11.448741,4.3776735,11.5355339,4.464466Q11.6223259,4.5512584,11.7047558,4.642205Q11.7871857,4.7331518,11.8650532,4.8280335999999995Q11.9429207,4.9229152,12.0160379,5.0215034Q12.0891552,5.1200914,12.1573477,5.2221487Q12.2255402,5.3242059,12.2886429,5.429486300000001Q12.3517456,5.5347667000000005,12.409606,5.6430163Q12.4674664,5.751266,12.5199461,5.862224100000001Q12.5724258,5.973182700000001,12.6193972,6.0865824Q12.6663685,6.1999822,12.7077198,6.3155503Q12.7490711,6.4311185,12.7847013,6.5485766000000005Q12.8203316,6.6660345,12.8501568,6.785099000000001Q12.8799801,6.9041638,12.9039268,7.0245485Q12.9278727,7.1449327,12.9458828,7.2663474Q12.9638939,7.3877621,12.9759245,7.5099144Q12.9879551,7.6320662,12.9939785,7.7546616Q13,7.8772569,13,8ZM5.75,6.75L5.75,6.25Q5.75,6.2007542,5.7596071,6.1524546Q5.7692146,6.1041551,5.7880599,6.0586579Q5.8069055,6.0131607,5.834265,5.9722145Q5.8616245,5.9312682,5.8964465,5.8964462Q5.9312682,5.8616242,5.9722145,5.8342648Q6.0131607,5.8069055,6.0586579,5.7880599Q6.1041551,5.7692146,6.1524546,5.7596073Q6.2007542,5.75,6.25,5.75Q6.2992456,5.75,6.3475451,5.7596073Q6.3958445,5.7692146,6.441341400000001,5.7880602Q6.4868386000000005,5.8069057,6.5277848,5.8342652Q6.5687313,5.8616247,6.6035533,5.8964465Q6.6383753,5.9312682,6.6657348,5.9722145Q6.6930938,6.0131607,6.7119393,6.0586579Q6.7307849,6.1041551,6.7403922000000005,6.1524546Q6.749999799999999,6.2007542,6.75,6.25L6.75,6.75Q6.749999799999999,6.7992454,6.7403922000000005,6.8475447Q6.7307849,6.8958442,6.7119393,6.941341400000001Q6.6930938,6.9868383000000005,6.6657343000000004,7.0277848Q6.638374799999999,7.0687313,6.6035531,7.1035533Q6.5687313,7.1383753,6.5277848,7.1657348Q6.4868386000000005,7.1930943,6.441341400000001,7.2119393Q6.3958445,7.2307854,6.3475449,7.2403927Q6.2992456,7.25,6.25,7.25Q6.2007542,7.25,6.1524546,7.2403927Q6.1041551,7.2307854,6.0586579,7.2119393Q6.0131607,7.1930943,5.9722145,7.1657348Q5.9312682,7.1383753,5.8964462,7.1035533Q5.8616242,7.0687313,5.8342648,7.0277848Q5.8069053,6.9868383000000005,5.7880599,6.941341400000001Q5.7692146,6.8958442,5.7596071,6.8475449Q5.75,6.7992454,5.75,6.75ZM9.25,6.25L9.25,6.75Q9.249999500000001,6.7992454,9.2596064,6.8475447Q9.2692137,6.8958442,9.2880592,6.941341400000001Q9.3069048,6.9868383000000005,9.3342648,7.0277848Q9.3616238,7.0687313,9.3964462,7.1035533Q9.4312677,7.1383753,9.4722142,7.1657348Q9.5131607,7.1930943,9.5586576,7.2119393Q9.604154600000001,7.2307854,9.6524544,7.2403927Q9.7007542,7.25,9.75,7.25Q9.7992458,7.25,9.8475451,7.2403927Q9.895844499999999,7.2307854,9.941341399999999,7.2119393Q9.986838299999999,7.1930943,10.0277843,7.1657348Q10.0687304,7.1383753,10.1035528,7.1035533Q10.138374299999999,7.0687313,10.1657338,7.0277848Q10.193093300000001,6.9868383000000005,10.2119389,6.941341400000001Q10.230784400000001,6.8958442,10.2403917,6.8475449Q10.25,6.7992454,10.25,6.75L10.25,6.25Q10.25,6.2007542,10.240392199999999,6.1524546Q10.230784400000001,6.1041551,10.2119389,6.0586579Q10.193093300000001,6.0131607,10.1657338,5.9722145Q10.138374299999999,5.9312682,10.1035528,5.8964462Q10.0687304,5.8616242,10.0277843,5.8342648Q9.986837900000001,5.8069055,9.9413409,5.7880599Q9.895844,5.7692146,9.8475447,5.7596073Q9.7992458,5.75,9.75,5.75Q9.7007542,5.75,9.6524544,5.7596073Q9.604154600000001,5.7692146,9.5586576,5.7880602Q9.5131607,5.8069057,9.4722147,5.8342652Q9.4312677,5.8616247,9.3964462,5.8964465Q9.3616238,5.9312682,9.334264300000001,5.9722145Q9.3069048,6.0131607,9.2880592,6.0586579Q9.2692137,6.1041551,9.2596068,6.1524546Q9.249999500000001,6.2007542,9.25,6.25Z" fill-rule="evenodd" fill="#FFFFFF" fill-opacity="1"/></g><g><rect x="6" y="9.300000190734863" width="4" height="1" rx="0.5" fill="#BABABF" fill-opacity="1"/></g></g></g></svg>