<svg xmlns="http://www.w3.org/2000/svg" xmlns:xlink="http://www.w3.org/1999/xlink" fill="none" version="1.1" width="36" height="36" viewBox="0 0 36 36"><g><rect x="0" y="0" width="36" height="36" rx="18" fill="#D7FE03" fill-opacity="1"/><g><g></g><g><path d="M15.418188112500001,11.333170413970947C15.2865884125,11.333170413970947,15.1624420125,11.334554723270948,15.0448899125,11.337458569570947L14.8183226125,11.345332378970948L14.6078105125,11.357498690970948C13.9311645125,11.405474356970947,13.4966340125,11.528998483970947,13.0494809125,11.768138583970947C12.4987341125,12.062681193970947,12.0625185925,12.498896713970947,11.7679759825,13.049643513970947C11.5288358825,13.496796613970947,11.4053117555,13.931327113970948,11.3573360895,14.607973113970948L11.3451697775,14.818485213970947L11.3372959681,15.045052513970948C11.3353600705,15.123420713970948,11.3340995228,15.204719513970947,11.33347425735,15.289203613970948L11.3330078125,20.581324113970947C11.3330078125,20.71292351397095,11.3343921218,20.837070013970948,11.3372959681,20.954621813970945L11.3451697775,21.181189013970947L11.3573360895,21.39170141397095C11.4053117555,22.068346413970946,11.5288358825,22.50287741397095,11.7679759825,22.950031413970947C12.0625185925,23.50077841397095,12.4987341125,23.936993413970946,13.0494809125,24.231535413970946C13.4966340125,24.47067641397095,13.9311645125,24.594200413970945,14.6078105125,24.642175413970946L14.8183226125,24.654341413970947L14.949225912500001,24.65889141397095C15.0221078125,24.664132413970947,15.1011126125,24.666504413970948,15.1882872125,24.666504413970948L20.812364612499998,24.666504413970948C20.9000225125,24.666504413970948,20.9794187125,24.66410641397095,21.0526361125,24.658804413970948L21.1810264125,24.654341413970947L21.391538812500002,24.642175413970946C22.0681838125,24.594200413970945,22.502714812500002,24.47067641397095,22.9498688125,24.231535413970946C23.5006158125,23.936993413970946,23.9368308125,23.50077841397095,24.2313728125,22.950031413970947C24.470513812500002,22.50287741397095,24.594037812499998,22.068346413970946,24.6420128125,21.39170141397095L24.6541788125,21.181189013970947L24.662053812499998,20.954621813970945C24.6630208125,20.915438213970948,24.6638198125,20.87552121397095,24.6644558125,20.834840313970947L24.6663418125,20.581324113970947L24.6663418125,15.418350713970948L24.6644558125,15.164834513970947C24.6638198125,15.124153413970948,24.6630208125,15.084236613970948,24.662053812499998,15.045052513970948L24.6541788125,14.818485213970947L24.6420128125,14.607973113970948C24.594037812499998,13.931327113970948,24.470513812500002,13.496796613970947,24.2313728125,13.049643513970947C23.9368308125,12.498896713970947,23.5006158125,12.062681193970947,22.9498688125,11.768138583970947C22.502714812500002,11.528998483970947,22.0681838125,11.405474356970947,21.391538812500002,11.357498690970948L21.1810264125,11.345332378970948L20.954459212499998,11.337458569570947C20.876091012499998,11.335522671970947,20.7947922125,11.334262124270948,20.7103081125,11.333636858820947L15.418188112500001,11.333170413970947ZM22.333658812499998,23.049498413970948C22.6461058125,22.87949341397095,22.8878668125,22.63585041397095,23.0559498125,22.32156041397095C23.0717518125,22.292015413970947,23.0867638125,22.262537413970946,23.101012812500002,22.232843413970947L23.1415048125,22.142833413970948C23.198899812500002,22.005997413970945,23.241439812499998,21.859062413970946,23.2716728125,21.676240413970948L23.2900338125,21.54875941397095C23.2983298125,21.48207741397095,23.3053218125,21.410770413970948,23.3111038125,21.333883413970945L23.321081812499997,21.17238951397095C23.3224858125,21.144138813970947,23.323761812500003,21.115198613970946,23.3249138125,21.085531713970948L23.3303668125,20.898535213970945L23.3330138125,20.692414713970948L23.3330138125,15.307916413970947L23.3303668125,15.101795713970947C23.3296968125,15.069083013970946,23.3289098125,15.037167113970947,23.3280018125,15.006012913970947L23.321081812499997,14.827941413970947L23.3111038125,14.666446713970947C23.3053218125,14.589560713970947,23.2983298125,14.518254013970948,23.2900338125,14.451571913970948L23.2716728125,14.324090513970948C23.241439812499998,14.141267813970947,23.198899812500002,13.994333313970948,23.1415048125,13.857497713970947L23.101012812500002,13.767486813970947C23.0867638125,13.737793413970948,23.0717518125,13.708315413970947,23.0559498125,13.678770313970947C22.8856748125,13.360381413970947,22.6397868125,13.114493813970947,22.321397812500003,12.944217713970946C22.2918528125,12.928416713970947,22.2623748125,12.913405313970948,22.2326808125,12.899155513970948L22.1426708125,12.858663113970948C22.005834812499998,12.801267613970948,21.8588998125,12.758728013970947,21.6760778125,12.728495113970947L21.5485968125,12.710135013970948C21.4819148125,12.701838513970948,21.4106078125,12.694846513970948,21.333720812499998,12.689064513970948L21.3302517125,12.688850213970948C21.3325748125,12.740958613970948,21.333658812499998,12.796169613970948,21.333658812499998,12.855116413970947L21.333658812499998,14.327685313970948C21.333658812499998,14.934276613970948,21.2651996125,15.280469413970948,21.076779412500002,15.632784413970947C20.898441312499997,15.966247513970949,20.6327515125,16.231937413970947,20.2992887125,16.410275013970946C19.946973812499998,16.598695313970946,19.600780512500002,16.667154813970946,18.9941897125,16.667154813970946L17.0064616125,16.667154813970946C16.3998704125,16.667154813970946,16.053677512500002,16.598695313970946,15.701362612499999,16.410275013970946C15.3678994125,16.231937413970947,15.1022098125,15.966247513970949,14.9238720125,15.632784413970947C14.7354517125,15.280469413970948,14.6669922125,14.934276613970948,14.6669922125,14.327685313970948L14.6669922125,12.855116413970947C14.6669922125,12.796252813970947,14.6680736125,12.741114413970948,14.6703896125,12.689070713970947L14.6440163125,12.690785413970946L14.4936964125,12.705118613970948C14.1838159125,12.740133013970947,13.9722123125,12.801324813970947,13.7710371125,12.897378213970947L13.6786077125,12.944217713970946C13.3602188125,13.114493813970947,13.1143312125,13.360381413970947,12.9440551125,13.678770313970947C12.9282541125,13.708315413970947,12.9132427125,13.737793413970948,12.8989929125,13.767486813970947L12.858500512500001,13.857497713970947C12.8011050125,13.994333313970948,12.7585654125,14.141267813970947,12.7283325125,14.324090513970948L12.7099724125,14.451571913970948C12.7016759125,14.518254013970948,12.6946839125,14.589560713970947,12.6889019125,14.666446713970947L12.6789234125,14.827941413970947C12.6775198125,14.856191413970947,12.676243812500001,14.885132113970947,12.6750916125,14.914799013970947L12.6696384125,15.101795713970947L12.6669922125,15.307916413970947L12.6669922125,20.692414713970948L12.6698084125,20.906696813970946C12.6705270125,20.940634213970945,12.6713728125,20.97371051397095,12.6723497125,21.005964713970947L12.6798172125,21.189956213970948L12.6906228125,21.356152413970946L12.7049560125,21.506472413970947C12.7399704125,21.816352413970947,12.8011622125,22.027956413970948,12.8972156125,22.229131413970947L12.9440551125,22.32156041397095C13.1122547125,22.636066413970948,13.3542330125,22.879829413970945,13.6669922125,23.049850413970947L13.6669922125,20.70909361397095C13.6669922125,20.06657271397095,13.7330956125,19.724260813970947,13.9238720125,19.367540813970948C14.1022098125,19.034077613970947,14.3678996125,18.768387813970946,14.7013626125,18.590050213970947C15.0580830125,18.399273913970948,15.400394912500001,18.333170413970947,16.0429158125,18.333170413970947L19.9577360125,18.333170413970947C20.600256012499997,18.333170413970947,20.942567812500002,18.399273913970948,21.2992887125,18.590050213970947C21.6327518125,18.768387813970946,21.8984418125,19.034077613970947,22.0767798125,19.367540813970948C22.267554812500002,19.724260813970947,22.333658812499998,20.06657271397095,22.333658812499998,20.70909361397095L22.333658812499998,23.049498413970948ZM20.958797412499997,23.329134413970948C20.9389620125,23.329645413970947,20.9188232125,23.330111413970947,20.898372612499998,23.330529413970947L20.6922521125,23.333176413970946L15.3077538125,23.333176413970946L15.1016331125,23.330529413970947L15.0354092125,23.328598413970948L15.0218434125,23.327665413970948L15.007066012500001,23.325846413970947L15.0036085125,23.287504413970947L15.0000000125,23.18837941397095L15.0000419125,20.630224713970946L15.002610712500001,20.491564313970947L15.0079894125,20.376230713970948C15.0182900125,20.21890881397095,15.0389221125,20.128065613970946,15.0737038125,20.04858731397095L15.0990300125,19.996680713970946C15.1531014125,19.895576013970945,15.2284632125,19.820213813970945,15.3295681125,19.766142413970947L15.381474512499999,19.74081661397095C15.4609523125,19.706035113970948,15.5517964125,19.685402413970948,15.7091179125,19.675101713970946L15.824451912499999,19.66972401397095L15.9631119125,19.667154813970946L20.0363541125,19.667154813970946L20.1750135125,19.66972401397095L20.2903480125,19.675101713970946C20.4476690125,19.685402413970948,20.5385132125,19.706035113970948,20.6179914125,19.74081661397095L20.6698971125,19.766142413970947C20.7710028125,19.820213813970945,20.8463640125,19.895576013970945,20.900435412500002,19.996680713970946L20.9257622125,20.04858731397095C20.9605436125,20.128065613970946,20.9811754125,20.21890881397095,20.9914760125,20.376230713970948L20.9968548125,20.491564313970947L20.9994240125,20.630224713970946L20.9994659125,23.18837941397095L20.997477512499998,23.259163413970946L20.9938860125,23.31140141397095L20.9920664125,23.325846413970947L20.958797412499997,23.329134413970948ZM16.1314669125,12.667154813970948L16.0743484125,12.668759113970948L16.0221109125,12.672350613970947L16.007333312500002,12.674170213970948L16.0038757125,12.712511313970948L16.0002670125,12.811636713970948L16.0000000125,14.327034513970947C16.0000000125,14.380965913970947,16.0004806125,14.430136413970947,16.0014849125,14.475177313970947L16.0061116125,14.598541213970947C16.0176325125,14.804308613970948,16.0463009125,14.904240613970947,16.0992975125,15.003335013970947C16.1533689125,15.104440013970947,16.2287302125,15.179801513970947,16.3298354125,15.233873113970947C16.4289298125,15.286869513970947,16.5288620125,15.315537713970947,16.734629112500002,15.327058813970947L16.8579931125,15.331685513970948C16.8805137125,15.332187613970948,16.9040661125,15.332559113970948,16.9287305125,15.332804713970948L18.993864012499998,15.333170413970947C19.0477958125,15.333170413970947,19.0969663125,15.332689713970947,19.1420069125,15.331685513970948L19.2653713125,15.327058813970947C19.4711380125,15.315537713970947,19.571069712499998,15.286869513970947,19.6701641125,15.233873113970947C19.7712698125,15.179801513970947,19.846631012499998,15.104440013970947,19.9007034125,15.003335013970947C19.9536991125,14.904240613970947,19.982367512499998,14.804308613970948,19.9938888125,14.598541213970947L19.9985151125,14.475177313970947L20.0000000125,14.327034513970947L19.999733012500002,12.811636713970948L19.9977445125,12.740852313970947L19.9941530125,12.688614413970948L19.992333412500003,12.674170213970948L19.953992812499997,12.670379413970947L19.8654117125,12.667154813970948L16.1314669125,12.667154813970948Z" fill-rule="evenodd" fill="#0C0C0D" fill-opacity="1"/></g></g></g></svg>