<svg xmlns="http://www.w3.org/2000/svg" xmlns:xlink="http://www.w3.org/1999/xlink" fill="none" version="1.1" width="36" height="36" viewBox="0 0 36 36"><g><rect x="0" y="0" width="36" height="36" rx="18" fill="#000000" fill-opacity="1"/><g><g></g><g><path d="M15.418920553125,11.333242416381836C15.287320853125,11.333242416381836,15.163174353125001,11.334626725681836,15.045622353125001,11.337530571981835L14.819055053125,11.345404381381837L14.608542953125,11.357570693381836C13.931896953125,11.405546359381836,13.497366453125,11.529070486381835,13.050213353125,11.768210586381835C12.499466553125,12.062753196381836,12.063251023125,12.498968716381835,11.768708403125,13.049715516381836C11.529568303125,13.496868616381835,11.406044178125,13.931399116381836,11.358068511125,14.608045116381836L11.345902199125,14.818557216381835L11.338028389925,15.045124516381836C11.336092492325,15.123492716381836,11.334831944625,15.204791516381835,11.334206679255,15.289275616381836L11.333740234375,20.581396116381836C11.333740234375,20.712995516381838,11.335124543625,20.837142016381836,11.338028389925,20.954693816381834L11.345902199125,21.181261016381836L11.358068511125,21.391773416381838C11.406044178125,22.068418416381835,11.529568303125,22.50294941638184,11.768708403125,22.950103416381836C12.063251023125,23.500850416381837,12.499466553125,23.937065416381834,13.050213353125,24.231607416381834C13.497366453125,24.470748416381838,13.931896953125,24.594272416381834,14.608542953125,24.642247416381835L14.819055053125,24.654413416381836L14.948072653125,24.658897416381834C15.021206653125,24.664184416381836,15.100505853125,24.666576416381837,15.188043153125001,24.666576416381837L20.812120453125,24.666576416381837C20.899416953124998,24.666576416381837,20.978519453125,24.664198416381836,21.051486053125,24.658941416381836L21.181758853125,24.654413416381836L21.392270953125,24.642247416381835C22.068915953125,24.594272416381834,22.503447953125,24.470748416381838,22.950601953125002,24.231607416381834C23.501348953125,23.937065416381834,23.937562953125,23.500850416381837,24.232104953125003,22.950103416381836C24.471246953125,22.50294941638184,24.594769953125002,22.068418416381835,24.642744953125,21.391773416381838L24.654910953125,21.181261016381836L24.662786953125,20.954693816381834C24.663753953125,20.915510216381836,24.664552953125,20.875593216381837,24.665187953125,20.834912316381835L24.667073953124998,20.581396116381836L24.667073953124998,15.418422716381837L24.665187953125,15.164906516381835C24.664552953125,15.124225416381837,24.663753953125,15.084308616381836,24.662786953125,15.045124516381836L24.654910953125,14.818557216381835L24.642744953125,14.608045116381836C24.594769953125002,13.931399116381836,24.471246953125,13.496868616381835,24.232104953125003,13.049715516381836C23.937562953125,12.498968716381835,23.501348953125,12.062753196381836,22.950601953125002,11.768210586381835C22.503447953125,11.529070486381835,22.068915953125,11.405546359381836,21.392270953125,11.357570693381836L21.181758853125,11.345404381381837L20.955191653125,11.337530571981835C20.876823453125,11.335594674381836,20.795524553125,11.334334126681837,20.711040453125,11.333708861231836L19.857947353125,11.333633670001836C19.842923153125,11.333480296571835,19.827651053125003,11.333405017851836,19.812120453125,11.333405017851836L17.263740053124998,11.333405017851836L15.418920553125,11.333242416381836ZM14.670133153125,12.688931116381836L14.644260453125,12.690613316381835L14.493940553125,12.704946516381836C14.184060053125,12.739960916381836,13.972456453125,12.801152716381836,13.771281253125,12.897206116381836L13.678851853125,12.944045516381836C13.360462953125,13.114321716381836,13.114575353125,13.360209216381836,12.944299253125,13.678598116381835C12.928498253125,13.708143216381835,12.913486853125,13.737621316381837,12.899237053125,13.767314716381836L12.858744653125001,13.857325516381836C12.801349153125,13.994161116381836,12.758809553125,14.141095616381836,12.728576653125,14.323918316381835L12.710216553125,14.451399816381835C12.701920053125,14.518081916381835,12.694928053125,14.589388616381836,12.689146053125,14.666274516381836L12.679167553125,14.827769316381836C12.677763953125,14.856019216381835,12.676487953125001,14.884959916381836,12.675335753125,14.914626816381837L12.669882553125,15.101623516381835L12.667236353125,15.307744216381836L12.667236353125,20.692242616381836L12.670052553125,20.906524616381837C12.670771153125,20.940462116381838,12.671616953125,20.973538416381835,12.672593853125,21.005792616381836L12.680061353125,21.189784016381836L12.690866953125,21.355980416381836L12.705200153125,21.506300416381833C12.740214553125,21.816180416381837,12.801406353125,22.027784416381834,12.897459753125,22.228959416381834L12.944299253125,22.321388416381836C13.112411353125,22.635730416381836,13.354225353124999,22.879403416381834,13.666748053125,23.049411416381837L13.666748053125,20.70916561638184C13.666748053125,20.066644716381838,13.732851553125,19.724332816381835,13.923627853125,19.367612816381836C14.101965653125,19.034149616381836,14.367655553125001,18.768459816381835,14.701118453125,18.590122216381836C15.057838953125,18.399345916381836,15.400150753125,18.333242416381836,16.042671653124998,18.333242416381836L19.957491853125,18.333242416381836C20.600011853125,18.333242416381836,20.942323653125,18.399345916381836,21.299044653125,18.590122216381836C21.632506953125002,18.768459816381835,21.898196953125,19.034149616381836,22.076534953124998,19.367612816381836C22.267310953124998,19.724332816381835,22.333414953125,20.066644716381838,22.333414953125,20.70916561638184L22.333414953125,23.049592416381834C22.646097953125,22.879575416381837,22.888022953125002,22.635841416381837,23.056193953125,22.321388416381836C23.071995953125,22.291843416381838,23.087007953125,22.262365416381837,23.101256953125002,22.232671416381834L23.141748953125,22.142661416381834C23.199143953125002,22.005825416381835,23.241683953124998,21.858890416381836,23.271916953125,21.67606841638184L23.290277953125,21.548586416381838C23.298573953125,21.481905416381835,23.305565953125,21.410597416381837,23.311347953125,21.33371141638184L23.321325953124997,21.172217416381834C23.322729953125,21.143966716381836,23.324005953125003,21.115026516381835,23.325157953125,21.085359616381837L23.330610953125,20.898363116381837L23.333257953125,20.692242616381836L23.333257953125,15.307744216381836L23.330610953125,15.101623516381835C23.329940953125,15.068910816381836,23.329153953125,15.036994916381836,23.328245953125,15.005840816381836L23.321325953124997,14.827769316381836L23.311347953125,14.666274516381836C23.305565953125,14.589388616381836,23.298573953125,14.518081916381835,23.290277953125,14.451399816381835L23.271916953125,14.323918316381835C23.241683953124998,14.141095616381836,23.199143953125002,13.994161116381836,23.141748953125,13.857325516381836L23.101256953125002,13.767314716381836C23.087007953125,13.737621316381837,23.071995953125,13.708143216381835,23.056193953125,13.678598116381835C22.885918953125,13.360209216381836,22.640030953125,13.114321716381836,22.321641953125003,12.944045516381836C22.292096953125,12.928244616381836,22.262618953125,12.913233116381836,22.232924953125,12.898983316381836L22.142914953125,12.858490916381836C22.006078953124998,12.801095516381835,21.859143953125,12.758555916381836,21.676321953125,12.728323016381836L21.548840953125,12.709962816381836C21.482158953125,12.701666316381836,21.410851953125,12.694674416381837,21.333964953124998,12.688892316381835L21.330017053124998,12.688648416381836C21.332333553125,12.740693916381836,21.333414953125,12.795834316381836,21.333414953125,12.854700116381835L21.333414953125,14.327269116381835C21.333414953125,14.933860316381836,21.264955553125,15.280053116381836,21.076535253125,15.632368116381837C20.898197153125,15.965831316381836,20.632507353125,16.231521116381835,20.299044653125,16.409858716381837C19.946729653125,16.598279016381838,19.600536353125,16.666738516381834,18.993945553125002,16.666738516381834L17.006217453125,16.666738516381834C16.399626253125,16.666738516381834,16.053433453125,16.598279016381838,15.701118453125,16.409858716381837C15.367655253125001,16.231521116381835,15.101965653125,15.965831316381836,14.923627853125,15.632368116381837C14.735207553125,15.280053116381836,14.666748053125,14.933860316381836,14.666748053125,14.327269116381835L14.666748053125,12.854700116381835C14.666748053125,12.795940916381836,14.667825653125,12.740893516381837,14.670133153125,12.688931116381836ZM16.140402753125,12.666982616381835L19.858948753125,12.666982616381835L19.954236953124997,12.670451416381836L19.992577553125003,12.674242216381836L19.994397153125,12.688686416381836L19.997988653125,12.740924316381836L19.999977153125002,12.811708716381837L20.000244153125,14.327106516381836L19.998759253125,14.475249316381836L19.994132953125,14.598613216381835C19.982611653124998,14.804380616381836,19.953943253125,14.904312616381835,19.900947553125,15.003407016381836C19.846875153124998,15.104512016381836,19.771513953125,15.179873516381836,19.670408253125,15.233945116381836C19.571313853124998,15.286941516381836,19.471382153125,15.315609716381836,19.265615453125,15.327130816381835L19.142251053125,15.331757516381836C19.097210453125,15.332761716381835,19.048039953125,15.333242416381836,18.994108153124998,15.333242416381836L16.928974653125,15.332876716381836C16.904310253125,15.332631116381837,16.880757853125,15.332259616381837,16.858237253125,15.331757516381836L16.734873253125002,15.327130816381835C16.529106153125,15.315609716381836,16.429173953125,15.286941516381836,16.330079553125,15.233945116381836C16.228974353125,15.179873516381836,16.153613053125,15.104512016381836,16.099541653125,15.003407016381836C16.046545053125,14.904312616381835,16.017876653125,14.804380616381836,16.006355753125,14.598613216381835L16.001729053125,14.475249316381836C16.000724753125,14.430208416381836,16.000244153125,14.381037916381835,16.000244153125,14.327106516381836L16.000511153125,12.811708716381837L16.004119853125,12.712583316381837L16.007577453125002,12.674242216381836L16.022355053125,12.672422616381835L16.074592553125,12.668831116381837L16.140402753125,12.666982616381835ZM20.959702453125,23.328945416381835L20.992798853125002,23.325674416381837L20.994618453125,23.311229416381835L20.998209953125,23.258991416381836L21.000198353125,23.188207416381836L21.000156353125,20.630052616381835L20.997587253124998,20.491392116381835L20.992208453125002,20.376058616381837C20.981907853125,20.218736616381836,20.961276053124998,20.127893416381838,20.926494553125,20.048415216381834L20.901167853125,19.99650861638184C20.847096453124998,19.895403816381837,20.771735153125,19.820041616381836,20.670629453125002,19.765970216381838L20.618723853124997,19.740644416381834C20.539245653125,19.705863016381834,20.448401453125,19.685230216381836,20.291080453124998,19.67492961638184L20.175745953125002,19.669551816381833L20.037086453125,19.666982616381837L15.963844253125,19.666982616381837L15.825184353125,19.669551816381833L15.709850353124999,19.67492961638184C15.552528853125,19.685230216381836,15.461684753124999,19.705863016381834,15.382206953125,19.740644416381834L15.330300553125,19.765970216381838C15.229195553124999,19.820041616381836,15.153833853125,19.895403816381837,15.099762453124999,19.99650861638184L15.074436153125,20.048415216381834C15.039654453125,20.127893416381838,15.019022453125,20.218736616381836,15.008721853125,20.376058616381837L15.003343153125,20.491392116381835L15.000774353125,20.630052616381835L15.000732453125,23.188207416381836L15.004340853125,23.287332416381837L15.007798453125,23.325674416381837L15.022575853125,23.327493416381834L15.036501153125,23.328451416381835L15.101877253125,23.330357416381837L15.307997953125,23.333004416381836L20.692496253125,23.333004416381836L20.898616753124998,23.330357416381837C20.919294353125,23.329934416381835,20.939653353125,23.329463416381834,20.959702453125,23.328945416381835Z" fill-rule="evenodd" fill="#FFFFFF" fill-opacity="1"/></g></g></g></svg>