<svg xmlns="http://www.w3.org/2000/svg" xmlns:xlink="http://www.w3.org/1999/xlink" fill="none" version="1.1" width="16" height="16" viewBox="0 0 16 16"><g><g></g><g><path d="M15.3334151875,7.99983740625Q15.3334151875,8.17986110625,15.3245821875,8.35966730625Q15.3157481875,8.539473506250001,15.2981031875,8.71862980625Q15.2804561875,8.89778520625,15.2540411875,9.07586000625Q15.2276271875,9.25393490625,15.1925071875,9.43049910625Q15.1573851875,9.60706330625,15.1136431875,9.78169060625Q15.0699011875,9.95631980625,15.0176441875,10.12859150625Q14.9653851875,10.30086330625,14.9047371875,10.47036170625Q14.8440891875,10.63986210625,14.7751971875,10.80618090625Q14.7063051875,10.97250090625,14.6293351875,11.13524090625Q14.5523661875,11.29797890625,14.4675041875,11.45674590625Q14.3826411875,11.61551190625,14.2900891875,11.76992190625Q14.1975381875,11.92433390625,14.0975241875,12.07401790625Q13.9975081875,12.22370190625,13.8902681875,12.36829790625Q13.7830291875,12.51289390625,13.6688241875,12.65205390625Q13.5546191875,12.79121390625,13.4337211875,12.92460190625Q13.3128251875,13.05798990625,13.1855301875,13.18528590625Q13.0582331875,13.31258090625,12.9248461875,13.43347690625Q12.7914561875,13.55437490625,12.6522971875,13.66857990625Q12.5131371875,13.78278590625,12.3685411875,13.89002490625Q12.2239441875,13.99726490625,12.0742611875,14.09727990625Q11.9245781875,14.19729490625,11.7701661875,14.28984590625Q11.6157551875,14.38239590625,11.4569891875,14.46725890625Q11.2982221875,14.55211990625,11.1354841875,14.62908990625Q10.9727441875,14.70606090625,10.8064251875,14.77495190625Q10.6401061875,14.84384390625,10.4706058875,14.90449190625Q10.3011073875,14.96513990625,10.1288356875,15.01739890625Q9.9565639875,15.06965590625,9.7819356875,15.11339890625Q9.6073073875,15.15714090625,9.4307431875,15.19226190625Q9.2541789875,15.22738290625,9.0761050875,15.25379790625Q8.8980292875,15.28021190625,8.7188739875,15.29785890625Q8.5397176875,15.31550390625,8.359910987500001,15.32433790625Q8.1801042875,15.33317090625,8.0000815875,15.33317090625Q7.8200578875,15.33317090625,7.6402515875,15.32433690625Q7.4604453875,15.31550390625,7.2812890875,15.29785890625Q7.1021327875,15.28021190625,6.9240574875,15.25379790625Q6.7459830875,15.22738290625,6.5694188875,15.19226190625Q6.3928546875,15.15714090625,6.2182268875,15.11339890625Q6.0435986875,15.06965590625,5.8713273875,15.01739890625Q5.6990556875,14.96513990625,5.5295557875,14.90449190625Q5.3600558875,14.84384390625,5.1937360875,14.77495190625Q5.0274161875,14.70606090625,4.8646769875,14.62908990625Q4.7019381875,14.55211990625,4.5431723875,14.46725990625Q4.3844058875,14.38239690625,4.2299944875,14.28984590625Q4.075583487499999,14.19729490625,3.9258994875,14.09727990625Q3.7762155875,13.99726490625,3.6316196875,13.89002390625Q3.4870237875,13.78278590625,3.3478641875,13.66857990625Q3.2087041875,13.55437490625,3.0753156875,13.43347790625Q2.9419273875,13.31258190625,2.8146316875,13.18528690625Q2.6873359875,13.05799090625,2.5664398875,12.92460290625Q2.4455436875,12.79121390625,2.3313381875,12.65205490625Q2.2171325875,12.51289490625,2.1098928875,12.36829890625Q2.0026530874999997,12.22370190625,1.9026374875,12.07401790625Q1.8026218875,11.92433390625,1.7100714875,11.76992290625Q1.6175210475,11.61551290625,1.5326587575000001,11.45674690625Q1.4477963475,11.29797990625,1.3708265375000002,11.13524090625Q1.2938566175,10.97250190625,1.2249647375000001,10.80618190625Q1.1560728574999999,10.63986210625,1.0954248575,10.47036270625Q1.0347768675,10.30086330625,0.9825188775,10.12859150625Q0.9302608975,9.95631980625,0.8865188075,9.78169250625Q0.8427767475,9.60706330625,0.8076559575,9.43050000625Q0.7725351775,9.25393580625,0.7461202885,9.07586100625Q0.7197054025,8.89778610625,0.7020600435,8.71862980625Q0.6844146845,8.539473506250001,0.6755813668,8.35966730625Q0.66674804688,8.17986110625,0.66674804688,7.99983740625Q0.66674804688,7.81981420625,0.6755813695,7.64000750625Q0.6844146905,7.46020130625,0.7020600545,7.28104500625Q0.7197054174999999,7.10188870625,0.7461203035,6.92381380625Q0.7725351975,6.74573900625,0.8076559875,6.56917480625Q0.8427767775,6.39261050625,0.8865188475,6.21798280625Q0.9302609275,6.04335400625,0.9825189075,5.87108330625Q1.0347768975,5.69881150625,1.0954248875,5.52931120625Q1.1560728875,5.35981130625,1.2249647975,5.19349150625Q1.2938566775,5.02717160625,1.3708265375000002,4.86443280625Q1.4477964075,4.70169350625,1.5326588175,4.54292750625Q1.6175211075,4.38416100625,1.7100715875,4.2297499062499995Q1.8026218875,4.0753388062500004,1.9026374875,3.92565510625Q2.0026530874999997,3.77597140625,2.1098928875,3.63137550625Q2.2171325875,3.48677970625,2.3313381875,3.34761980625Q2.4455436875,3.20845980625,2.5664398875,3.07507160625Q2.6873359875,2.94168300625,2.8146316875,2.81438730625Q2.9419273875,2.68709180625,3.0753156875,2.5661955062499997Q3.2087041875,2.44529940625,3.3478641875,2.33109390625Q3.4870237875,2.21688830625,3.6316196875,2.10964850625Q3.7762155875,2.00240870625,3.9258994875,1.90239320625Q4.075583487499999,1.80237770625,4.2299947875,1.70982730625Q4.3844055875,1.6172769062499999,4.5431720875,1.53241449625Q4.7019381875,1.44755208625,4.8646773875,1.37058234625Q5.0274161875,1.2936124762499999,5.1937360875,1.22472059625Q5.3600558875,1.15582871625,5.5295557875,1.09518071625Q5.6990556875,1.03453272625,5.8713273875,0.98227476625Q6.0435986875,0.93001678625,6.2182263875,0.88627470625Q6.3928546875,0.84253263625,6.5694188875,0.80741183625Q6.7459830875,0.77229104625,6.9240579875,0.74587615625Q7.1021327875,0.71946126925,7.2812895875,0.70181591025Q7.4604453875,0.68417054825,7.6402520875,0.67533722705Q7.8200578875,0.66650390625,8.0000815875,0.66650390625Q8.1801042875,0.66650390625,8.359910987500001,0.67533722705Q8.5397176875,0.68417054825,8.7188739875,0.70181591025Q8.8980292875,0.71946126925,9.0761041875,0.74587616325Q9.2541789875,0.77229104625,9.4307431875,0.80741183625Q9.6073073875,0.84253263625,9.7819356875,0.88627469625Q9.9565639875,0.93001678625,10.1288356875,0.98227476625Q10.3011073875,1.03453272625,10.4706058875,1.09518071625Q10.6401061875,1.15582871625,10.8064251875,1.22472059625Q10.9727441875,1.2936124762499999,11.1354841875,1.37058234625Q11.2982231875,1.44755214625,11.4569901875,1.53241455625Q11.6157571875,1.6172769062499999,11.7701681875,1.70982730625Q11.9245781875,1.80237770625,12.0742621875,1.90239330625Q12.2239461875,2.00240890625,12.3685431875,2.10964860625Q12.5131391875,2.21688840625,12.6522991875,2.33109400625Q12.7914581875,2.44529940625,12.9248461875,2.5661955062499997Q13.0582351875,2.68709180625,13.1855301875,2.81438730625Q13.3128261875,2.94168300625,13.4337231875,3.07507160625Q13.5546191875,3.20845980625,13.6688251875,3.34761980625Q13.7830291875,3.48677970625,13.8902691875,3.63137580625Q13.9975091875,3.77597140625,14.0975241875,3.92565540625Q14.1975401875,4.07533910625,14.2900891875,4.229750206249999Q14.3826411875,4.38416120625,14.4675031875,4.5429277062499995Q14.5523661875,4.70169400625,14.6293351875,4.86443330625Q14.7063051875,5.02717210625,14.7751971875,5.19349190625Q14.8440891875,5.35981180625,14.9047371875,5.52931170625Q14.9653851875,5.69881150625,15.0176431875,5.87108330625Q15.0699001875,6.04335400625,15.1136431875,6.21798230625Q15.1573851875,6.39261050625,15.1925071875,6.56917480625Q15.2276271875,6.74573900625,15.2540411875,6.92381380625Q15.2804561875,7.10188870625,15.2981031875,7.28104500625Q15.3157481875,7.46020130625,15.3245811875,7.64000800625Q15.3334151875,7.81981420625,15.3334151875,7.99983740625ZM14.0000001875,7.99951170625Q14.0000001875,8.146803406250001,13.9927731875,8.29391760625Q13.9855461875,8.44103190625,13.9711081875,8.587614506249999Q13.9566711875,8.73419670625,13.9350581875,8.87989430625Q13.9134461875,9.02559180625,13.8847101875,9.17005350625Q13.8559761875,9.31451510625,13.8201861875,9.45739270625Q13.7843991875,9.60027120625,13.7416421875,9.74122050625Q13.6988851875,9.88216970625,13.6492631875,10.02085020625Q13.5996421875,10.15953160625,13.5432761875,10.29561140625Q13.4869101875,10.43169120625,13.4239341875,10.56484130625Q13.3609591875,10.69799190625,13.2915271875,10.82789090625Q13.2220931875,10.95778990625,13.1463701875,11.08412690625Q13.0706461875,11.21046290625,12.9888161875,11.33293190625Q12.9069851875,11.45540090625,12.8192431875,11.57370690625Q12.7315021875,11.69201290625,12.6380611875,11.80586990625Q12.5446201875,11.91972790625,12.4457051875,12.02886390625Q12.3467901875,12.13800090625,12.2426391875,12.24215090625Q12.1384891875,12.34630190625,12.0293521875,12.44521690625Q11.9202161875,12.54413190625,11.8063581875,12.63757390625Q11.6925011875,12.73101390625,11.5741951875,12.81875590625Q11.4558891875,12.90649690625,11.3334201875,12.98832790625Q11.2109511875,13.07015790625,11.0846151875,13.14588190625Q10.9582781875,13.22160390625,10.8283791875,13.29103790625Q10.6984801875,13.36046990625,10.5653295875,13.42344490625Q10.4321794875,13.48642190625,10.2960996875,13.54278790625Q10.1600198875,13.59915390625,10.0213384875,13.64877490625Q9.8826579875,13.69839690625,9.7417087875,13.74115390625Q9.6007594875,13.78391090625,9.4578809875,13.81969990625Q9.3150033875,13.85548790625,9.1705417875,13.88422290625Q9.0260800875,13.91295790625,8.8803825875,13.93456990625Q8.7346849875,13.95618390625,8.588102787499999,13.97062090625Q8.4415201875,13.98505790625,8.2944058875,13.99228390625Q8.147291687500001,13.99951190625,7.9999999875,13.99951190625Q7.8527083875,13.99951190625,7.7055940875,13.99228390625Q7.5584792875,13.98505690625,7.4118966875,13.97061990625Q7.2653140875,13.95618290625,7.1196164875,13.93456990625Q6.9739188875,13.91295790625,6.8294577875,13.88422190625Q6.6849960875,13.85548790625,6.5421185875,13.81969790625Q6.3992409875,13.78391090625,6.2582916875,13.74115390625Q6.1173419875,13.69839690625,5.9786605875,13.64877490625Q5.8399786875,13.59915390625,5.7038988875,13.54278790625Q5.5678186875,13.48642190625,5.4346689875,13.42344590625Q5.3015188875,13.36047090625,5.1716193875,13.29103890625Q5.0417193875,13.22160490625,4.9153833875,13.14588190625Q4.7890462875,13.07015790625,4.6665780875,12.98832790625Q4.5441095874999995,12.90649690625,4.4258038875,12.81875490625Q4.3074981875,12.73101390625,4.1936401875,12.63757290625Q4.0797819875000005,12.54413190625,3.9706461875,12.44521690625Q3.8615100875,12.34630190625,3.7573589875,12.24215090625Q3.6532082875,12.13800090625,3.5542931875,12.02886390625Q3.4553780875,11.91972790625,3.3619374875,11.80586990625Q3.2684964875,11.69201290625,3.1807548875,11.57370690625Q3.0930132875,11.45540090625,3.0111822875,11.33293190625Q2.9293512875,11.21046290625,2.8536281875,11.08412690625Q2.7779051875,10.95778990625,2.7084724875,10.82789090625Q2.6390395875,10.69799190625,2.5760641875,10.56484130625Q2.5130889874999998,10.43169120625,2.4567226875,10.29561140625Q2.4003564875,10.15953160625,2.3507355875,10.02085020625Q2.3011144875,9.88216970625,2.2583579875,9.74122050625Q2.2156014875,9.60027120625,2.1798122875,9.45739270625Q2.1440233875,9.31451510625,2.1152882875000003,9.17005350625Q2.0865530875,9.02559180625,2.0649408874999997,8.87989430625Q2.0433287875,8.73419670625,2.0288916875,8.587614506249999Q2.0144544875,8.44103190625,2.0072271875,8.29391760625Q1.9999999875,8.146803406250001,1.9999999875,7.99951170625Q1.9999999875,7.85222010625,2.0072271875,7.70510580625Q2.0144544875,7.55799100625,2.0288916875,7.41140840625Q2.0433287875,7.26482580625,2.0649408874999997,7.11912820625Q2.0865530875,6.97343060625,2.1152882875000003,6.82896950625Q2.1440233875,6.68450780625,2.1798123875,6.54163030625Q2.2156014875,6.39875270625,2.2583579875,6.25780340625Q2.3011144875,6.11685370625,2.3507355875,5.97817230625Q2.4003564875,5.83949040625,2.4567226875,5.70341060625Q2.5130889874999998,5.56733040625,2.5760643874999998,5.43418070625Q2.6390395875,5.30103060625,2.7084724875,5.17113110625Q2.7779051875,5.04123110625,2.8536283875,4.91489510625Q2.9293512875,4.78855800625,3.0111822875,4.66608980625Q3.0930132875,4.5436213062499995,3.1807548875,4.42531560625Q3.2684964875,4.30700990625,3.3619374875,4.19315190625Q3.4553780875,4.0792937062500005,3.5542931875,3.97015790625Q3.6532082875,3.86102180625,3.7573589875,3.75687070625Q3.8615100875,3.65272000625,3.9706461875,3.55380490625Q4.0797819875000005,3.45488980625,4.1936401875,3.36144920625Q4.3074981875,3.26800820625,4.4258038875,3.18026660625Q4.5441095874999995,3.09252500625,4.6665782875,3.01069400625Q4.7890462875,2.92886300625,4.9153828875,2.85313990625Q5.0417193875,2.77741690625,5.1716193875,2.70798420625Q5.3015188875,2.63855130625,5.4346689875,2.57557590625Q5.5678186875,2.5126007062499998,5.7038988875,2.45623440625Q5.8399786875,2.39986820625,5.9786605875,2.35024730625Q6.1173419875,2.30062620625,6.2582912875,2.25786970625Q6.3992404875,2.21511320625,6.5421185875,2.17932400625Q6.6849960875,2.14353510625,6.8294577875,2.1148000062500003Q6.9739188875,2.08606480625,7.1196169875,2.0644526062499997Q7.2653140875,2.04284050625,7.4118971875,2.02840340625Q7.5584797875,2.01396620625,7.7055940875,2.00673890625Q7.8527083875,1.99951170625,7.9999999875,1.99951170625Q8.147291687500001,1.99951170625,8.2944058875,2.00673890625Q8.4415201875,2.01396620625,8.588102787499999,2.02840340625Q8.7346849875,2.04284050625,8.8803825875,2.0644526062499997Q9.0260800875,2.08606480625,9.1705417875,2.1148000062500003Q9.3150033875,2.14353510625,9.4578809875,2.17932410625Q9.6007594875,2.21511320625,9.7417087875,2.25786970625Q9.8826579875,2.30062620625,10.0213384875,2.35024730625Q10.1600198875,2.39986820625,10.2960996875,2.45623440625Q10.4321794875,2.5126007062499998,10.5653295875,2.5755761062499998Q10.6984801875,2.63855130625,10.8283791875,2.70798420625Q10.9582781875,2.77741690625,11.0846151875,2.85314010625Q11.2109511875,2.92886300625,11.3334201875,3.01069400625Q11.4558891875,3.09252500625,11.5741951875,3.18026660625Q11.6925011875,3.26800820625,11.8063581875,3.36144920625Q11.9202161875,3.45488980625,12.0293521875,3.55380490625Q12.1384891875,3.65272000625,12.2426391875,3.75687070625Q12.3467901875,3.86102180625,12.4457051875,3.97015790625Q12.5446201875,4.0792937062500005,12.6380621875,4.19315190625Q12.7315021875,4.30700990625,12.8192441875,4.42531560625Q12.9069851875,4.5436213062499995,12.9888161875,4.66609000625Q13.0706461875,4.78855800625,13.1463701875,4.91489460625Q13.2220921875,5.04123110625,13.2915261875,5.17113110625Q13.3609581875,5.30103060625,13.4239331875,5.43418070625Q13.4869101875,5.56733040625,13.5432761875,5.70341060625Q13.5996421875,5.83949040625,13.6492631875,5.97817230625Q13.6988851875,6.11685370625,13.7416421875,6.25780300625Q13.7843991875,6.39875220625,13.8201881875,6.54163030625Q13.8559761875,6.68450780625,13.8847111875,6.82896950625Q13.9134461875,6.97343060625,13.9350581875,7.11912870625Q13.9566721875,7.26482580625,13.9711091875,7.41140890625Q13.9855461875,7.55799150625,13.9927731875,7.70510580625Q14.0000001875,7.85222010625,14.0000001875,7.99951170625ZM7.1647567875,6.28341670625C7.1393069875,5.93846320625,6.8513726875,5.66650390625,6.4999184875,5.66650390625C6.1317286875,5.66650390625,5.8332519875,5.96498060625,5.8332519875,6.33317040625L5.8332519875,9.66650390625L5.8350805875,9.71625800625C5.8605303875,10.06121160625,6.1484646875,10.33317090625,6.4999184875,10.33317090625C6.8681087875,10.33317090625,7.1665854875,10.03469370625,7.1665854875,9.66650390625L7.1665854875,6.33317040625L7.1647567875,6.28341670625ZM10.1647567875,6.28341670625C10.1393069875,5.93846320625,9.8513726875,5.66650390625,9.4999189875,5.66650390625C9.1317290875,5.66650390625,8.8332519875,5.96498060625,8.8332519875,6.33317040625L8.8332519875,9.66650390625L8.8350801875,9.71625800625C8.8605298875,10.06121160625,9.1484641875,10.33317090625,9.4999189875,10.33317090625C9.8681087875,10.33317090625,10.1665849875,10.03469370625,10.1665849875,9.66650390625L10.1665849875,6.33317040625L10.1647567875,6.28341670625Z" fill-rule="evenodd" fill="#0C0C0D" fill-opacity="1"/></g></g></svg>