<svg xmlns="http://www.w3.org/2000/svg" xmlns:xlink="http://www.w3.org/1999/xlink" fill="none" version="1.1" width="40" height="40" viewBox="0 0 40 40"><g><rect x="0" y="0" width="40" height="40" rx="20" fill="#FFFFFF" fill-opacity="1"/><rect x="0.5" y="0.5" width="39" height="39" rx="19.5" fill-opacity="0" stroke-opacity="1" stroke="#D9D9DE" fill="none" stroke-width="1"/><g><g><path d="M19.333333500000002,25.666667Q19.4888077,25.666666,19.6440954,25.659038000000002Q19.7993827,25.651408,19.9541092,25.636169000000002Q20.1088352,25.62093,20.2626266,25.598117000000002Q20.4164186,25.575304,20.5689058,25.544972Q20.7213926,25.514640999999997,20.8722086,25.476864Q21.023023600000002,25.439087,21.1718035,25.393955Q21.3205833,25.348823,21.466969499999998,25.296444Q21.6133556,25.244066,21.7569952,25.184569Q21.9006348,25.125072,22.0411816,25.058598Q22.1817293,24.992124,22.3188457,24.918834Q22.455962200000002,24.845543,22.589317299999998,24.765614Q22.7226715,24.685682999999997,22.851944,24.599306Q22.9812164,24.512929,23.106095,24.420313Q23.230974,24.327697999999998,23.351157999999998,24.229067Q23.471342,24.130434,23.58654,24.026024Q23.701739,23.921613999999998,23.811676,23.811676Q23.921613999999998,23.701739,24.026024,23.58654Q24.130434,23.471342,24.229066,23.351157999999998Q24.327697999999998,23.230974,24.420313999999998,23.106095Q24.512929,22.9812164,24.599306,22.851944Q24.685682999999997,22.7226715,24.765614,22.589317299999998Q24.845544,22.455962200000002,24.918835,22.3188457Q24.992125,22.1817293,25.058599,22.0411816Q25.125072,21.9006348,25.18457,21.7569952Q25.244068,21.6133556,25.296446,21.466969499999998Q25.348824,21.3205833,25.393955,21.1718035Q25.439087,21.023023600000002,25.476864,20.8722086Q25.514640999999997,20.7213926,25.544972,20.5689054Q25.575304,20.4164181,25.598117000000002,20.2626262Q25.62093,20.1088347,25.63617,19.9541092Q25.651409,19.7993827,25.659038000000002,19.6440954Q25.666666,19.4888077,25.666667,19.333333500000002Q25.666666,19.1778593,25.659038000000002,19.022572Q25.651408,18.8672848,25.636169000000002,18.7125587Q25.62093,18.5578322,25.598117000000002,18.4040403Q25.575304,18.250248,25.544972,18.0977612Q25.514640999999997,17.9452739,25.476864,17.7944584Q25.439087,17.643643400000002,25.393955,17.4948635Q25.348823,17.3460836,25.296444,17.1996975Q25.244066,17.0533113,25.184569,16.9096713Q25.125072,16.7660317,25.058598,16.6254845Q24.992124,16.4849372,24.918834,16.3478208Q24.845543,16.2107043,24.765614,16.0773492Q24.685682999999997,15.943994,24.599306,15.814721800000001Q24.512929,15.6854494,24.420313,15.5605712Q24.327697999999998,15.4356928,24.229067,15.3155093Q24.130434,15.1953259,24.026024,15.0801268Q23.921613999999998,14.9649276,23.811676,14.8549904Q23.701739,14.745053200000001,23.58654,14.6406429Q23.471342,14.5362325,23.351157999999998,14.4376005Q23.230974,14.3389684,23.106095,14.2463523Q22.9812164,14.1537361,22.851944,14.067359100000001Q22.7226715,13.98098207,22.589317299999998,13.90105218Q22.455962200000002,13.82112229,22.3188457,13.74783206Q22.1817293,13.67454183,22.0411816,13.60806781Q21.9006348,13.54159379,21.7569952,13.48209625Q21.6133556,13.42259872,21.466969499999998,13.3702209Q21.3205833,13.31784308,21.1718035,13.27271119Q21.023023600000002,13.22757928,20.8722086,13.18980205Q20.7213926,13.15202479,20.5689054,13.12169321Q20.4164181,13.091361627,20.2626262,13.068548761Q20.1088347,13.045735903,19.9541092,13.03049673Q19.7993827,13.015257553,19.6440954,13.0076287766Q19.4888077,13,19.333333500000002,13Q19.1778593,13,19.022572,13.0076287766Q18.8672848,13.015257553,18.7125587,13.03049673Q18.5578322,13.045735903,18.4040403,13.068548761Q18.250248,13.091361627,18.0977612,13.12169321Q17.9452739,13.15202479,17.7944584,13.18980204Q17.643643400000002,13.22757928,17.4948635,13.27271119Q17.3460836,13.31784308,17.1996975,13.3702209Q17.0533113,13.42259872,16.9096713,13.48209625Q16.7660317,13.54159379,16.6254845,13.60806781Q16.4849372,13.67454183,16.3478208,13.74783206Q16.2107043,13.82112229,16.0773492,13.90105212Q15.943994,13.98098207,15.814721800000001,14.067359100000001Q15.6854494,14.1537361,15.5605712,14.2463522Q15.4356928,14.3389684,15.3155093,14.4376005Q15.1953259,14.5362325,15.0801268,14.6406428Q14.9649276,14.745053200000001,14.8549904,14.8549904Q14.745053200000001,14.9649276,14.6406429,15.0801268Q14.5362325,15.1953259,14.4376005,15.3155093Q14.3389684,15.4356928,14.2463523,15.560571Q14.1537361,15.6854494,14.067359100000001,15.814721800000001Q13.98098207,15.943994,13.90105218,16.0773492Q13.82112229,16.2107043,13.74783206,16.3478208Q13.67454183,16.4849372,13.60806781,16.6254845Q13.54159379,16.7660317,13.48209625,16.9096713Q13.42259872,17.0533113,13.3702209,17.1996975Q13.31784308,17.3460836,13.27271119,17.4948635Q13.22757928,17.643643400000002,13.18980205,17.7944584Q13.15202479,17.9452739,13.12169321,18.0977612Q13.091361627,18.250248,13.068548761,18.4040403Q13.045735903,18.5578322,13.03049673,18.7125587Q13.015257553,18.8672848,13.0076287766,19.022572Q13,19.1778593,13,19.333333500000002Q13,19.4888077,13.0076287766,19.6440954Q13.015257553,19.7993827,13.03049673,19.9541092Q13.045735903,20.1088352,13.068548761,20.2626266Q13.091361627,20.4164186,13.12169321,20.5689058Q13.15202479,20.7213926,13.18980204,20.8722086Q13.22757928,21.023023600000002,13.27271119,21.1718035Q13.31784308,21.3205833,13.3702209,21.466969499999998Q13.42259872,21.6133556,13.48209625,21.7569952Q13.54159379,21.9006348,13.60806781,22.0411816Q13.67454183,22.1817293,13.74783206,22.3188457Q13.82112229,22.455962200000002,13.90105212,22.589317299999998Q13.98098207,22.7226715,14.067359100000001,22.851944Q14.1537361,22.9812164,14.2463522,23.106095Q14.3389684,23.230974,14.4376005,23.351157999999998Q14.5362325,23.471342,14.6406428,23.58654Q14.745053200000001,23.701739,14.8549904,23.811676Q14.9649276,23.921613999999998,15.0801268,24.026024Q15.1953259,24.130434,15.3155093,24.229066Q15.4356928,24.327697999999998,15.560571,24.420313999999998Q15.6854494,24.512929,15.814721800000001,24.599306Q15.943994,24.685682999999997,16.0773492,24.765614Q16.2107043,24.845544,16.3478208,24.918835Q16.4849372,24.992125,16.6254845,25.058599Q16.7660317,25.125072,16.9096713,25.18457Q17.0533113,25.244068,17.1996975,25.296446Q17.3460836,25.348824,17.4948635,25.393955Q17.643643400000002,25.439087,17.7944584,25.476864Q17.9452739,25.514640999999997,18.0977612,25.544972Q18.250248,25.575304,18.4040403,25.598117000000002Q18.5578322,25.62093,18.7125587,25.63617Q18.8672848,25.651409,19.022572,25.659038000000002Q19.1778593,25.666666,19.333333500000002,25.666667ZM19.333252,24.333313Q19.4559956,24.333313,19.5785904,24.327289999999998Q19.701186200000002,24.321267,19.8233385,24.309237Q19.9454899,24.297204999999998,20.066904100000002,24.279196Q20.1883187,24.261184999999998,20.3087034,24.237239000000002Q20.4290876,24.213293,20.548152899999998,24.183469000000002Q20.6672173,24.153644999999997,20.7846756,24.118014000000002Q20.902133,24.082383999999998,21.0177002,24.041033Q21.1332684,23.999681000000002,21.246668800000002,23.95271Q21.360068300000002,23.905739,21.4710264,23.853259Q21.581985500000002,23.800779,21.690235100000002,23.742919Q21.7984848,23.685059000000003,21.9037647,23.621956Q22.0090456,23.558853,22.1111031,23.490661Q22.213159599999997,23.422468000000002,22.3117485,23.34935Q22.410335500000002,23.276232,22.505218499999998,23.198365000000003Q22.6000996,23.120497999999998,22.691045799999998,23.038069Q22.781992000000002,22.9556389,22.8687849,22.8688469Q22.9555779,22.7820549,23.038007,22.6911077Q23.120435999999998,22.600160600000002,23.198304,22.5052795Q23.276170999999998,22.4103966,23.349289,22.3118086Q23.422407,22.2132206,23.490599,22.1111641Q23.558791,22.009106600000003,23.621893,21.9038267Q23.684995999999998,21.7985458,23.742857,21.6902962Q23.800717,21.5820465,23.853196,21.4710884Q23.905676,21.360129399999998,23.952648,21.2467299Q23.99962,21.1333294,24.040971,21.0177622Q24.082321,20.902194,24.117952000000002,20.7847366Q24.153584000000002,20.6672783,24.183408,20.548213Q24.213231999999998,20.4291487,24.237178999999998,20.3087645Q24.261125,20.1883793,24.279135,20.0669651Q24.297145,19.945550400000002,24.309175,19.8233986Q24.321207,19.7012463,24.327229000000003,19.578651Q24.333252,19.4560556,24.333252,19.333313Q24.333252,19.2105699,24.327229000000003,19.0879745Q24.321207,18.9653792,24.309175,18.8432274Q24.297144,18.7210751,24.279135,18.5996604Q24.261124000000002,18.478245700000002,24.237178,18.357861Q24.213231999999998,18.2374763,24.183408,18.118412Q24.153584000000002,17.9993472,24.117953999999997,17.8818893Q24.082323000000002,17.764431000000002,24.040972,17.6488628Q23.99962,17.5332952,23.952649,17.4198952Q23.905678,17.3064957,23.853198,17.1955371Q23.800719,17.0845785,23.742859,16.9763288Q23.684998,16.8680789,23.621895000000002,16.7627988Q23.558792,16.6575184,23.490599,16.5554614Q23.422407,16.4534044,23.349289,16.3548164Q23.276170999999998,16.256228,23.198303,16.1613464Q23.120435999999998,16.0664649,23.038007,15.9755182Q22.9555779,15.884571600000001,22.8687849,15.7977791Q22.781992000000002,15.7109866,22.6910448,15.6285574Q22.600098600000003,15.5461283,22.5052176,15.4682608Q22.410335500000002,15.3903933,22.3117476,15.317275Q22.213159599999997,15.2441573,22.1111021,15.1759648Q22.0090446,15.1077724,21.9037647,15.0446699Q21.7984848,14.9815674,21.690235100000002,14.9237067Q21.5819845,14.8658459,21.4710255,14.8133664Q21.3600674,14.7608869,21.2466679,14.7139152Q21.1332684,14.6669436,21.0177002,14.6255927Q20.902132,14.5842419,20.7846751,14.5486114Q20.6672173,14.5129808,20.548152,14.483156600000001Q20.4290876,14.4533324,20.3087034,14.4293865Q20.1883187,14.4054406,20.066904100000002,14.3874304Q19.9454899,14.3694203,19.823338,14.3573895Q19.701186200000002,14.3453584,19.578590900000002,14.3393357Q19.4559956,14.333313,19.333252,14.333313Q19.2105088,14.333313,19.0879135,14.3393357Q18.9653182,14.3453584,18.8431664,14.3573895Q18.721014,14.3694203,18.5995994,14.3874304Q18.4781847,14.4054406,18.3578,14.4293866Q18.237415300000002,14.4533325,18.118351,14.4831567Q17.9992862,14.5129807,17.8818283,14.5486112Q17.76437,14.5842416,17.6488018,14.6255925Q17.5332341,14.6669433,17.4198341,14.7139151Q17.3064346,14.7608869,17.1954761,14.8133664Q17.0845175,14.8658458,16.9762681,14.9237065Q16.8680182,14.9815671,16.7627378,15.0446696Q16.6574574,15.1077724,16.5554004,15.1759646Q16.4533432,15.244157099999999,16.3547549,15.317275Q16.2561669,15.3903933,16.1612854,15.4682605Q16.0664036,15.5461278,15.975457200000001,15.6285572Q15.884510500000001,15.7109861,15.797718,15.7977788Q15.7109256,15.884571300000001,15.6284962,15.9755182Q15.546067,16.0664647,15.4681997,16.1613464Q15.3903322,16.256228,15.3172143,16.354816200000002Q15.244096299999999,16.4534044,15.1759038,16.5554614Q15.1077113,16.6575184,15.044608799999999,16.7627988Q14.9815063,16.8680789,14.9236456,16.9763288Q14.8657849,17.0845785,14.8133054,17.1955366Q14.7608259,17.3064957,14.7138541,17.4198952Q14.6668823,17.5332952,14.6255314,17.648863300000002Q14.5841806,17.764431000000002,14.5485501,17.8818893Q14.5129197,17.9993472,14.4830955,18.118412Q14.4532714,18.2374763,14.429325500000001,18.357861Q14.4053794,18.478245700000002,14.3873693,18.5996604Q14.3693591,18.7210751,14.3573283,18.8432274Q14.3452973,18.9653792,14.3392746,19.0879745Q14.333252,19.2105699,14.333252,19.333313Q14.333252,19.4560556,14.3392746,19.5786514Q14.3452973,19.7012463,14.3573283,19.8233986Q14.3693591,19.945550400000002,14.3873693,20.0669651Q14.4053794,20.1883793,14.429325500000001,20.3087645Q14.4532714,20.4291487,14.4830955,20.548214Q14.5129197,20.6672783,14.5485501,20.7847366Q14.5841806,20.902194,14.6255314,21.017761200000002Q14.6668823,21.1333294,14.7138541,21.2467299Q14.7608259,21.360129399999998,14.8133054,21.4710875Q14.8657848,21.5820465,14.9236455,21.6902962Q14.9815062,21.7985458,15.044608799999999,21.9038258Q15.1077113,22.009106600000003,15.1759036,22.1111641Q15.244095999999999,22.2132206,15.317214,22.311809500000003Q15.3903322,22.4103966,15.4681997,22.5052795Q15.5460668,22.600160600000002,15.6284962,22.6911077Q15.7109251,22.7820549,15.797717800000001,22.8688469Q15.88451,22.9556389,15.9754567,23.038069Q16.0664034,23.120497999999998,16.161285200000002,23.198365000000003Q16.2561669,23.276232,16.3547549,23.34935Q16.4533432,23.422466999999997,16.5554004,23.49066Q16.6574574,23.558852,16.7627378,23.621955Q16.8680182,23.685057999999998,16.9762678,23.742919Q17.0845175,23.800779,17.1954756,23.85326Q17.3064346,23.905739,17.4198341,23.95271Q17.5332341,23.999681000000002,17.6488023,24.041033Q17.76437,24.082383999999998,17.8818283,24.118015Q17.9992862,24.153644999999997,18.118351,24.183469000000002Q18.237415300000002,24.213293,18.3578,24.237239000000002Q18.4781847,24.261184999999998,18.5995994,24.279195Q18.721014,24.297204999999998,18.8431664,24.309237Q18.9653182,24.321267,19.0879135,24.327289999999998Q19.2105088,24.333313,19.333252,24.333313Z" fill-rule="evenodd" fill="#8A8A91" fill-opacity="1"/></g><g><path d="M23.44313355892578,23.443248004375C23.70348307892578,23.182898447375,24.12559306892578,23.182898447375,24.38594269892578,23.443248004375L26.55009719892578,25.607402834375C26.810447198925782,25.867752534375,26.810447198925782,26.289862434375,26.55009719892578,26.550211634375C26.289747998925783,26.810561634375,25.86763809892578,26.810561634375,25.607288398925782,26.550211634375L23.44313355892578,24.386057134375C23.182784005925782,24.125707504375,23.182784005925782,23.703597514375,23.44313355892578,23.443248004375Z" fill="#8A8A91" fill-opacity="1"/></g></g></g></svg>