<svg xmlns="http://www.w3.org/2000/svg" xmlns:xlink="http://www.w3.org/1999/xlink" fill="none" version="1.1" width="12" height="12" viewBox="0 0 12 12"><defs><clipPath id="master_svg0_26_061450"><rect x="0" y="0" width="12" height="12" rx="0"/></clipPath></defs><g clip-path="url(#master_svg0_26_061450)"><g><path d="M4.5,4.5L7.5,4.5L7.5,5.49999982L4.5,5.49999982L4.5,4.5ZM4.5,6.4999996L7.5,6.4999996L7.5,7.4999994999999995L4.5,7.4999994999999995L4.5,6.4999996Z" fill="#8A8A91" fill-opacity="1"/></g><g><path d="M9,2.7069999L9.8535004,1.8534998900000001L9.1464996,1.14649993L8.3650002,1.9275000100000002C7.7414994,1.35399997,6.9119997,1,6,1C5.0880001,1,4.2584999,1.35399997,3.635,1.9275000100000002L2.8535,1.14650005L2.14650005,1.8535000099999999L3,2.7069999C2.6730784,3.2479455,2.5001854999999997,3.8679402,2.5,4.5L1.5,4.5L1.5,5.5L2.49999982,5.5L2.49999982,6.4999995L1.5,6.4999995L1.5,7.4999995L2.49999982,7.4999995C2.49999982,9.4299994,4.0704994,10.999999,6,10.999999C7.9295001,10.999999,9.499999500000001,9.4299994,9.499999500000001,7.5L10.5,7.5L10.5,6.5L9.499999500000001,6.5L9.499999500000001,5.5000005L10.5,5.5000005L10.5,4.5L9.499999500000001,4.5C9.4998145,3.8679407,9.3269219,3.247946,9,2.7069999ZM8.5,6.5L8.5,7.5C8.5,8.878499999999999,7.3785005,10,6,10C4.6214995000000005,10,3.4999998999999997,8.878499999999999,3.4999998999999997,7.5L3.4999998999999997,4.5C3.4999998999999997,3.1215003,4.6214995000000005,1.99999994,6,1.99999994C7.3785005,1.99999994,8.5,3.1214998,8.5,4.5L8.5,6.5Z" fill="#8A8A91" fill-opacity="1"/></g></g></svg>