<svg xmlns="http://www.w3.org/2000/svg" xmlns:xlink="http://www.w3.org/1999/xlink" fill="none" version="1.1" width="12" height="12" viewBox="0 0 12 12"><g><g></g><g><path d="M3.625,1.25L8.375,1.25C10.0750809,1.25,11.25,2.4137694,11.25,4.1024613L11.25,7.175415C11.25,8.6794066,10.3180389,9.7670221,8.9131413,9.9869461L8.875,9.9922504L8.875,10.5300274C8.875,11.290569,8.0424161,11.745176,7.4025898,11.362545L7.3636665,11.338067L5.375,10.02775L3.625,10.0278769C1.951483,10.0278769,0.78684444,8.9001908,0.75085805793,7.2541857L0.75,7.175415L0.75,4.1024613C0.75,2.4137694,1.9249192,1.25,3.625,1.25ZM8.375,2.25L3.625,2.25C2.4750807,2.25,1.75,2.9681997,1.75,4.1024613L1.75,7.175415C1.75,8.3096766,2.4750807,9.0278764,3.625,9.0278764L5.5250001,9.0278764C5.6227884,9.0278764,5.718431,9.056551500000001,5.8000894,9.110353L7.875,10.4775L7.875,9.5278759C7.875,9.264286,8.0789695,9.0483351,8.3376846,9.0292478L8.375,9.0278764C9.5249195,9.0278764,10.25,8.3096766,10.25,7.175415L10.25,4.1024613C10.25,2.9681997,9.5249195,2.25,8.375,2.25Z" fill-rule="evenodd" fill="#8A8A91" fill-opacity="1"/></g><g><rect x="3.5" y="5.25" width="5" height="1.100000023841858" rx="0.550000011920929" fill="#8A8A91" fill-opacity="1"/></g></g></svg>