<svg xmlns="http://www.w3.org/2000/svg" xmlns:xlink="http://www.w3.org/1999/xlink" fill="none" version="1.1" width="17.67822265625" height="17.67803955078125" viewBox="0 0 17.67822265625 17.67803955078125"><g><g transform="matrix(0.7071067690849304,0.7071067690849304,-0.7071067690849304,0.7071067690849304,3.774133488478382,-7.223909229457517)"><g><path d="M14.939431216589355,0.27670159938951233C17.700251616589355,0.27670159938951233,19.939428816589356,2.5068153806095124,19.939428816589356,5.259155880609512L19.939428816589356,7.057401280609512C19.939428816589356,7.425591180609512,19.640954016589355,7.7240682806095124,19.272763216589354,7.7240682806095124C18.904573416589358,7.7240682806095124,18.606096316589355,7.425591180609512,18.606096316589355,7.057401280609512L18.606096316589355,5.259155880609512C18.606096316589355,3.244408480609512,16.965079816589355,1.6100344806095124,14.939431216589355,1.6100344806095124C12.913784016589355,1.6100344806095124,11.272766016589355,3.244408480609512,11.272766016589355,5.259155880609512L11.272766016589355,10.294241880609512C11.272766016589355,12.308987880609513,12.913784016589355,13.943363880609512,14.939431216589355,13.943363880609512C16.356492016589357,13.943363880609512,17.627059416589354,13.136565880609512,18.237244616589358,11.891570880609512C18.399284316589355,11.560956880609512,18.798660316589356,11.424295880609513,19.129276316589355,11.586336880609512C19.459893216589357,11.748374880609513,19.596550916589358,12.147750880609513,19.434513116589358,12.478368880609512C18.602227216589355,14.176517880609513,16.869639416589354,15.276695880609513,14.939431216589355,15.276695880609513C12.178612516589356,15.276695880609513,9.939433097839355,13.046582880609513,9.939433097839355,10.294241880609512L9.939433097839355,5.259155880609512C9.939433097839355,2.5068153806095124,12.178612516589356,0.27670159938951233,14.939431216589355,0.27670159938951233Z" fill="#0B0B0D" fill-opacity="1"/></g><g><path d="M14.939961913151855,3.857645660638809C15.308151643151856,3.857645660638809,15.606628443151855,4.156122390638809,15.606628443151855,4.524312170638809L15.606628443151855,7.888345860638809C15.606628443151855,8.71132146063881,16.277596943151856,9.37957346063881,17.106628143151855,9.37957346063881C17.935659443151856,9.37957346063881,18.606627443151854,8.71132146063881,18.606627443151854,7.888345860638809L18.606627443151854,5.670511160638809C18.606627443151854,5.302321360638809,18.905104143151856,5.003844660638809,19.273293943151856,5.003844660638809C19.641484743151857,5.003844660638809,19.939960943151856,5.302321360638809,19.939960943151856,5.670511160638809L19.939960943151856,7.888345860638809C19.939960943151856,9.44891466063881,18.670830243151855,10.712906960638808,17.106628143151855,10.712906960638808C15.542425743151856,10.712906960638808,14.273295402531856,9.44891466063881,14.273295402531856,7.888345860638809L14.273295402531856,4.524312170638809C14.273295402531856,4.156122390638809,14.571772153151855,3.857645660638809,14.939961913151855,3.857645660638809Z" fill="#0B0B0D" fill-opacity="1"/></g></g></g></svg>