<svg xmlns="http://www.w3.org/2000/svg" xmlns:xlink="http://www.w3.org/1999/xlink" fill="none" version="1.1" width="36" height="36" viewBox="0 0 36 36"><g><g><rect x="0" y="0" width="36" height="36" rx="18" fill="#FFFFFF" fill-opacity="1"/><rect x="0.5" y="0.5" width="35" height="35" rx="17.5" fill-opacity="0" stroke-opacity="1" stroke="#D9D9DE" fill="none" stroke-width="1"/><g><g><g><g><path d="M21.410338446875002,13.411222475390625C21.735775946875002,13.085785545390625,22.263412446875,13.085785545390625,22.588850046875002,13.411222475390625C22.914286646875,13.736659405390625,22.914286646875,14.264296875390626,22.588850046875002,14.589733875390625L14.588848846874999,22.589735075390625C14.263411846875,22.915171575390623,13.735774396875,22.915171575390623,13.410337466875,22.589735075390625C13.084900535875,22.264297475390627,13.084900535875,21.736660975390627,13.410337466875,21.411223375390627L21.410338446875002,13.411222475390625Z" fill="#8A8A91" fill-opacity="1"/></g><g><path d="M13.410337466875,13.411222475390625C13.735774396875,13.085785545390625,14.263411846875,13.085785545390625,14.588848846874999,13.411222475390625L22.588850046875002,21.411223375390627C22.914286646875,21.736660975390627,22.914286646875,22.264297475390627,22.588850046875002,22.589735075390625C22.263412446875,22.915171575390623,21.735775946875002,22.915171575390623,21.410338446875002,22.589735075390625L13.410337466875,14.589733875390625C13.084900535875,14.264296875390626,13.084900535875,13.736659405390625,13.410337466875,13.411222475390625Z" fill="#8A8A91" fill-opacity="1"/></g></g></g></g></g></g></svg>

