<svg xmlns="http://www.w3.org/2000/svg" xmlns:xlink="http://www.w3.org/1999/xlink" fill="none" version="1.1" width="16" height="16" viewBox="0 0 16 16"><g><g><g><path d="M8.767954389154053,0.7554726754262084C8.252509589154052,0.6377026254262085,7.747726889154053,0.6377026254262085,7.240320689154053,0.7535843704262085C7.212975989154053,0.7598832174262085,7.212975989154053,0.7598832174262085,7.185421489154053,0.7664657164262085L7.083203289154053,0.7925732184262085L6.969580189154053,0.8251910984262085L6.852021689154053,0.8634428784262085L6.730465889154052,0.9080512984262085L6.604733489154053,0.9595652784262085C6.5303253891540525,0.9917764984262085,6.465263889154053,1.0220181384262084,6.397902989154053,1.0552627484262085L6.267750289154053,1.1217741984262086L6.120756589154053,1.2015852884262084L5.9644136891540525,1.2910780884262085C5.932118389154053,1.3099839684262085,5.904886689154052,1.3261218084262085,5.877116689154053,1.3427408384262085L5.708432689154053,1.4455212384262084L5.520780789154053,1.5634344784262084L2.303969979154053,3.6374644384262087C2.1462767691540527,3.7391568384262084,2.010746659154053,3.8712629384262085,1.9056595991540528,4.0260905384262085C1.4699763791540528,4.667993938426209,1.6511981131540527,5.535310138426208,2.303969979154053,5.9562667384262085L5.418110089154053,7.9644998384262085L5.609315389154053,8.08634653842621L5.788176989154053,8.197221138426208L5.953768689154053,8.296415638426208L6.107934489154053,8.384977738426208L6.2525133891540525,8.463911438426209L6.389299889154053,8.534144738426209C6.465263889154053,8.571712838426208,6.5303253891540525,8.60195483842621,6.593910689154053,8.629576538426209L6.707575789154053,8.676702838426209L6.828549389154053,8.722073938426208L6.946902289154052,8.761519838426208C6.963196789154053,8.766562838426209,6.972972889154053,8.769588838426209,6.980682889154052,8.771944438426209L7.002061389154052,8.778347338426208C7.006075389154053,8.779528938426209,7.010685489154053,8.780879338426208,7.016446089154052,8.782567338426208L7.119872089154053,8.81082853842621L7.232282189154053,8.838258138426209C7.747726889154053,8.956028338426208,8.252509589154052,8.956028338426208,8.759915789154054,8.840147338426208C8.787260989154053,8.833848338426208,8.787260989154053,8.833848338426208,8.814815989154052,8.827265138426208L8.917033189154052,8.801157338426208L9.030657289154053,8.768540738426209L9.148215789154053,8.730287938426208L9.269770589154053,8.685679838426209L9.395503089154053,8.63416613842621C9.469912089154054,8.60195483842621,9.534972689154053,8.571712838426208,9.602333589154053,8.538468238426209L9.732487189154053,8.471956638426208L9.879479889154053,8.39214553842621L10.035823389154054,8.302652738426207C10.068119489154054,8.28374703842621,10.095351689154052,8.26760943842621,10.123120789154052,8.250990238426208L10.291804789154053,8.148209438426209L10.479456389154052,8.030297138426208L13.696222289154052,5.956295338426209C13.853961289154054,5.854574038426208,13.989490289154054,5.722468238426209,14.094577289154053,5.567640638426209C14.530261289154053,4.925737238426208,14.349038289154052,4.058421038426209,13.696266289154053,3.6374644384262087L10.582127089154053,1.6292310984262084L10.390922089154053,1.5073841784262085L10.212060489154053,1.3965094684262085L10.046468289154053,1.2973158984262085L9.892302989154052,1.2087539484262084L9.747724089154053,1.1298198384262084L9.610936689154052,1.0595863784262085C9.534972689154053,1.0220181384262084,9.469912089154054,0.9917764984262085,9.406325789154053,0.9641540384262085L9.292660689154053,0.9170283684262085L9.171687089154052,0.8716575384262085L9.053334189154054,0.8322109984262085C9.012598989154053,0.8196037284262085,9.012598989154053,0.8196037284262085,8.983790389154052,0.8111636384262085L8.880364889154052,0.7829024784262085L8.767954389154053,0.7554726754262084ZM7.537104089154052,2.0533585384262087C7.849115889154053,1.9821010384262086,8.150958489154053,1.9821010384262086,8.462971189154054,2.0533585384262087L8.548616889154053,2.0740906384262088L8.622887089154052,2.0946099384262085C8.630269489154053,2.0968966384262084,8.630269489154053,2.0968966384262084,8.648025989154053,2.1023244384262085L8.731245989154052,2.1298360384262085L8.805856189154053,2.1580151384262085L8.885808489154051,2.1915750384262083C8.918333989154053,2.205817438426209,8.963818589154052,2.2269595384262084,9.012160789154052,2.2508181384262085L9.125107289154052,2.3086823384262085L9.241627189154052,2.3724020384262086L9.372324489154053,2.4475575384262083L9.518519389154052,2.5351842384262087L9.681484689154052,2.6362406384262087L9.862491089154053,2.7516399384262087L12.973576289154053,4.757914438426209C12.999737289154053,4.774785438426209,13.004770289154052,4.798878038426208,12.991279289154052,4.818756438426209C12.987060289154053,4.824972938426209,12.981101289154052,4.830781338426209,12.973576289154053,4.835633638426208L9.763253689154054,6.905531738426209L9.589913889154053,7.014471438426209L9.433742989154052,7.109574638426208C9.413906589154053,7.121420738426209,9.390052289154053,7.135557038426208,9.366754989154053,7.149221338426209L9.228804589154052,7.228315238426209L9.109869989154053,7.292911838426209L9.003557689154054,7.347054338426209C8.963818589154052,7.366588938426209,8.918333989154053,7.387731938426208,8.874985189154053,7.406561738426208L8.782966089154053,7.444510338426208L8.707773689154052,7.471927038426209L8.636364889154052,7.494943938426209L8.565807789154054,7.514975438426209L8.493050089154053,7.5332607384262085L8.462971189154054,7.540190138426208C8.150958489154053,7.611447238426209,7.849115889154053,7.611447238426209,7.537104089154052,7.540190138426208L7.451457489154053,7.5194581384262085L7.377186789154052,7.498938438426208C7.369804389154052,7.4966515384262085,7.369804389154052,7.4966515384262085,7.352047889154052,7.491224638426209L7.268828389154053,7.463713038426208L7.194217689154053,7.435532938426208L7.114265489154053,7.401973138426208C7.081740389154053,7.387731938426208,7.036255789154053,7.366588938426209,6.987912689154053,7.342730838426209L6.874967089154053,7.284865738426208L6.758447189154053,7.221145938426209L6.627749889154053,7.1459907384262085L6.481554489154052,7.058364238426209L6.318589189154053,6.957307738426208L6.137583289154053,6.841908338426209L3.0264981891540526,4.835633638426208C3.0003368891540525,4.818763138426209,2.995302789154053,4.794670438426208,3.008794689154053,4.774792538426208C3.0130140891540527,4.768576038426208,3.0189731891540528,4.762767238426209,3.026453689154053,4.757943038426209L6.236820689154053,2.6880167384262084L6.410160589154053,2.5790771384262086L6.566331389154053,2.4839735384262083C6.586167789154053,2.4721274384262086,6.610022089154053,2.4579914384262085,6.633319389154053,2.4443272384262085L6.7712697891540525,2.3652334384262086L6.8902039891540525,2.3006366384262087L6.996516689154053,2.2464944384262084C7.036255789154053,2.2269595384262084,7.081740389154053,2.205817438426209,7.125088689154053,2.1869863384262085L7.217107289154053,2.1490380384262084L7.292300689154053,2.1216215384262087L7.363709489154052,2.0986042384262085L7.434266589154053,2.0785727384262085L7.5070237891540526,2.0602874384262084L7.537104089154052,2.0533585384262087Z" fill-rule="evenodd" fill="#8A8A91" fill-opacity="1"/></g><g><path d="M12.351551974151612,5.974568724629763L13.697745974151612,6.842696075569763C14.351205974151611,7.264097335569764,14.531925974151612,8.132027535569764,14.09430197415161,8.773505535569763C13.98946297415161,8.927178535569762,13.854556974151611,9.058340935569763,13.697745974151612,9.159464735569763L10.588660674151612,11.164437635569763C9.739147674151612,11.712269235569764,9.305540074151612,11.917967635569763,8.761763074151611,12.042052135569763C8.253080374151612,12.158129535569763,7.746959674151611,12.158129535569763,7.238276974151612,12.042052135569763C6.694500474151611,11.917967635569763,6.260893374151611,11.712269235569764,5.411379774151611,11.164437635569763L2.302294914151611,9.159464735569763C1.6488336771516112,8.738063735569764,1.4681133341516113,7.870133535569764,1.9057393641516114,7.228655235569763C2.010577144151611,7.074982535569763,2.145483494151611,6.943819995569763,2.302294914151611,6.842696075569763L3.5957901741516114,6.0085525775697635L4.318399874151611,7.129094035569763L3.0249045741516114,7.963237535569763C3.0173310741516115,7.968121635569763,3.0113682741516112,7.973918635569763,3.007172474151611,7.980069235569763C2.9940879741516113,7.999248835569763,2.998850374151611,8.022121835569763,3.0249045741516114,8.038923335569763L6.133989374151612,10.043896535569763C6.8641972741516115,10.514789435569764,7.1659617741516115,10.657943135569763,7.534907774151612,10.742133535569764C7.848346274151611,10.813658135569764,8.15169377415161,10.813658135569764,8.46513227415161,10.742133535569764C8.834079274151613,10.657943135569763,9.135842774151612,10.514789435569764,9.866051174151611,10.043896535569763L12.975134974151612,8.038923335569763C12.98270797415161,8.034039635569762,12.988670974151612,8.028242035569763,12.992866974151612,8.022091935569764C13.005952974151612,8.002911935569763,13.001189974151611,7.980039435569763,12.975134974151612,7.963237535569763L11.628942974151611,7.095110135569763L12.351551974151612,5.974568724629763Z" fill="#8A8A91" fill-opacity="1"/></g><g><path d="M12.403227974151612,9.212117552759763L13.697745974151612,10.046920124319763C14.351205974151611,10.468321404319763,14.531925974151612,11.336251404319764,14.09430197415161,11.977729904319762C13.98946297415161,12.131402404319763,13.854556974151611,12.262565004319763,13.697745974151612,12.363688804319763L10.588660674151612,14.368662204319763C9.739147674151612,14.916492804319763,9.305540074151612,15.122191304319763,8.761763074151611,15.246276304319764C8.253080374151612,15.362354604319762,7.746959674151611,15.362354604319762,7.238276974151612,15.246276304319764C6.694500474151611,15.122191304319763,6.260893374151611,14.916492804319763,5.411379774151611,14.368662204319763L2.302294914151611,12.363688804319763C1.6488336771516112,11.942287604319763,1.4681133341516113,11.074357704319763,1.9057393641516114,10.432879204319763C2.010577144151611,10.279206504319763,2.145483494151611,10.148043994319764,2.302294914151611,10.046920124319763L3.5263669741516113,9.257546138319762L4.248976674151612,10.378087604319763L3.0249045741516114,11.167461504319764C3.0173310741516115,11.172345504319763,3.0113682741516112,11.178142904319763,3.007172474151611,11.184293104319764C2.9940879741516113,11.203472804319762,2.998850374151611,11.226345704319764,3.0249045741516114,11.243147504319763L6.133989374151612,13.248120204319763C6.8641972741516115,13.719014004319764,7.1659617741516115,13.862167204319764,7.534907774151612,13.946358104319764C7.848346274151611,14.017881704319763,8.15169377415161,14.017881704319763,8.46513227415161,13.946358104319764C8.834079274151613,13.862167204319764,9.135842774151612,13.719014004319764,9.866051174151611,13.248120204319763L12.975134974151612,11.243147504319763C12.98270797415161,11.238263504319763,12.988670974151612,11.232466104319762,12.992866974151612,11.226315904319764C13.005952974151612,11.207136004319763,13.001189974151611,11.184263304319764,12.975134974151612,11.167461504319764L11.68061797415161,10.332659004319764L12.403227974151612,9.212117552759763Z" fill="#8A8A91" fill-opacity="1"/></g></g></g></svg>