<svg xmlns="http://www.w3.org/2000/svg" xmlns:xlink="http://www.w3.org/1999/xlink" fill="none" version="1.1" width="16" height="16" viewBox="0 0 16 16"><g><g></g><g><path d="M3.596459425,6.541626024999999Q3.691264125,6.541626024999999,3.785612625,6.532296625Q3.879960525,6.522966825,3.972943525,6.5043974250000005Q4.065926525,6.485828424999999,4.1566491249999995,6.458197825Q4.2473716249999995,6.4305677249999995,4.334959725,6.394142425Q4.4225478250000005,6.357717525,4.506158125,6.312848525Q4.589768425,6.267979125,4.668595825000001,6.215098125Q4.747423125,6.162217425,4.820708225000001,6.101833624999999Q4.893993425,6.041450025,4.961030525,5.974145125Q5.028067625,5.906840525,5.088211025,5.833262925Q5.148354525,5.759685025,5.201025025,5.680542925Q5.253695925000001,5.601401125000001,5.298386525,5.517457025000001Q5.343077425000001,5.433512725,5.379357325,5.345574624999999Q5.415637525,5.257637025,5.443158125,5.166552325Q5.470678325,5.075467625,5.489173924999999,4.982113125Q5.5076697249999995,4.888759125,5.516962325,4.794034225Q5.526254625,4.699309325,5.526254625,4.604126025Q5.526254625,4.508942825,5.516962025,4.414217825Q5.5076697249999995,4.319492825,5.489173924999999,4.226138325Q5.470678325,4.132784025,5.443158125,4.041699325Q5.415637525,3.9506147250000003,5.379357325,3.862676725Q5.343077425000001,3.7747390249999997,5.298386525,3.690794725Q5.253695925000001,3.606850625,5.201025025,3.527708535Q5.148354525,3.448566615,5.088211025,3.374988975Q5.028067625,3.301411275,4.961030525,3.234106545Q4.893993425,3.166801815,4.820708225000001,3.106418195Q4.747423125,3.046034575,4.668595825000001,2.993153545Q4.589768425,2.940272565,4.506158125,2.895403485Q4.4225478250000005,2.850534405,4.334959725,2.814109355Q4.2473716249999995,2.777684305,4.1566491249999995,2.750054061Q4.065926525,2.722423822,3.972943525,2.703854486Q3.879960525,2.685285158,3.785612625,2.6759555666Q3.691264125,2.66662597662,3.596459425,2.66662597656Q3.501654625,2.66662597662,3.407306425,2.6759555684Q3.312958025,2.68528516,3.219974925,2.70385449Q3.126991725,2.722423825,3.036269225,2.750054061Q2.945546725,2.777684305,2.857958525,2.814109355Q2.7703705249999997,2.850534405,2.686760025,2.895403505Q2.603149775,2.940272595,2.5243225049999998,2.993153575Q2.445495305,3.046034575,2.372210205,3.106418195Q2.298925165,3.166801815,2.2318880549999998,3.234106545Q2.164851005,3.301411275,2.104707475,3.374988975Q2.044564005,3.448566615,1.991893265,3.527708535Q1.939222575,3.6068505650000002,1.894531905,3.690794725Q1.849841235,3.774738825,1.813561025,3.8626766249999998Q1.777280825,3.9506145249999998,1.749760464,4.041699325Q1.7222400900000001,4.132784025,1.703744594,4.226138325Q1.685249107,4.319492825,1.6759566152,4.414217825Q1.66666412354,4.508942825,1.66666412354,4.604126025Q1.66666412354,4.699309325,1.6759566152,4.794034225Q1.685249107,4.888759125,1.703744594,4.982113125Q1.7222400900000001,5.075467625,1.749760456,5.166552025Q1.777280825,5.257637025,1.813561025,5.345574624999999Q1.849841235,5.433512725,1.894531905,5.517457025000001Q1.939222545,5.601401125000001,1.991893235,5.680542925Q2.044563945,5.759685025,2.104707445,5.833262725Q2.164850955,5.906840525,2.231887995,5.974145125Q2.298925105,6.041450025,2.372210205,6.101833624999999Q2.445495245,6.162217125,2.5243225049999998,6.215097925Q2.603149775,6.267979125,2.686760225,6.312848125Q2.7703705249999997,6.357717324999999,2.857958525,6.394142125Q2.945546725,6.430567525,3.036269225,6.458197825Q3.126991725,6.485828124999999,3.219974925,6.5043974250000005Q3.312958025,6.522966825,3.407306325,6.532296625Q3.501654625,6.541626024999999,3.596459425,6.541626024999999ZM13.567129625,3.148071285C13.925450625,3.148071285,14.215926625,3.438548145,14.215926625,3.796869525C14.215926625,4.138127925,13.952455625,4.417849425,13.617832625,4.443715825L13.567129625,4.445667725L7.134477625,4.445667725C6.776156425,4.445667725,6.485679625,4.155190925,6.485679625,3.796869525C6.485679625,3.455611055,6.749150725,3.175889615,7.083774525,3.150023285L7.134477625,3.148071285L13.567129625,3.148071285ZM13.567129625,7.346069325C13.925450625,7.346069325,14.215926625,7.636546125,14.215926625,7.994867325C14.215926625,8.336125825,13.952455625,8.615847625,13.617832625,8.641714125L13.567129625,8.643665825L7.134477625,8.643665825C6.776156425,8.643665825,6.485679625,8.353189024999999,6.485679625,7.994867325C6.485679625,7.653609325,6.749150725,7.373887525,7.083774525,7.348021525L7.134477625,7.346069325L13.567129625,7.346069325ZM3.596459425,13.333373625Q3.691264125,13.333373625,3.785612625,13.324045625Q3.879960525,13.314714625,3.972943525,13.296144625Q4.065926525,13.277575625,4.1566491249999995,13.249944625Q4.2473716249999995,13.222314625,4.334959725,13.185889625Q4.4225478250000005,13.149465625,4.506158125,13.104596625Q4.589768425,13.059726625,4.668595825000001,13.006845625Q4.747423125,12.953965625,4.820708225000001,12.893581625Q4.893993425,12.833198625,4.961030525,12.765892625Q5.028067625,12.698588625,5.088211025,12.625011425Q5.148354525,12.551433525,5.201025025,12.472291025Q5.253695925000001,12.393149425,5.298386525,12.309205025Q5.343077425000001,12.225261725,5.379357325,12.137322425Q5.415637525,12.049385025,5.443158125,11.958301525Q5.470678325,11.867216125,5.489173924999999,11.773860925Q5.5076697249999995,11.680507625,5.516962325,11.585782025Q5.526254625,11.491057425,5.526254625,11.395874025Q5.526254625,11.300691625,5.516962025,11.205966025Q5.5076697249999995,11.111240425,5.489173924999999,11.017886125Q5.470678325,10.924531925,5.443158125,10.833447425Q5.415637525,10.742363025,5.379357325,10.654424625Q5.343077425000001,10.566487325,5.298386525,10.482543025Q5.253695925000001,10.398598625,5.201025025,10.319456125Q5.148354525,10.240314524999999,5.088211025,10.166737125000001Q5.028067625,10.093159725,4.961030525,10.025854625000001Q4.893993425,9.958550425,4.820708225000001,9.898166625Q4.747423125,9.837782825,4.668595825000001,9.784901625Q4.589768425,9.732020825,4.506158125,9.687151425Q4.4225478250000005,9.642282524999999,4.334959725,9.605857324999999Q4.2473716249999995,9.569432725,4.1566491249999995,9.541802425Q4.065926525,9.514172525,3.972943525,9.495602625Q3.879960525,9.477033625,3.785612625,9.467704325Q3.691264125,9.458374525,3.596459425,9.458374025000001Q3.501654625,9.458374525,3.407306425,9.467703825000001Q3.312958025,9.477033625,3.219974925,9.495602625Q3.126991725,9.514172525,3.036269225,9.541802425Q2.945546725,9.569432225,2.857958525,9.605856925000001Q2.7703705249999997,9.642282524999999,2.686760025,9.687151425Q2.603149775,9.732020425,2.5243225049999998,9.784901125000001Q2.445495305,9.837782425,2.372210205,9.898166225Q2.298925165,9.958549524999999,2.2318880549999998,10.025854125Q2.164851005,10.093159225,2.104707475,10.166736625Q2.044564005,10.240314524999999,1.991893265,10.319456125Q1.939222575,10.398598625,1.894531905,10.482542525Q1.849841235,10.566486325,1.813561025,10.654424225Q1.777280825,10.742363025,1.749760464,10.833447425Q1.7222400900000001,10.924531925,1.703744594,11.017886125Q1.685249107,11.111240425,1.6759566152,11.205966025Q1.66666412354,11.300691625,1.66666412354,11.395874025Q1.66666412354,11.491057425,1.6759566152,11.585783025Q1.685249107,11.680507625,1.703744594,11.773860925Q1.7222400900000001,11.867216125,1.749760456,11.958300625Q1.777280825,12.049385025,1.813561025,12.137322425Q1.849841235,12.225261725,1.894531905,12.309205025Q1.939222545,12.393148425,1.991893235,12.472290025Q2.044563945,12.551432625,2.104707445,12.625010525Q2.164850955,12.698588625,2.231887995,12.765892625Q2.298925105,12.833198625,2.372210205,12.893581625Q2.445495245,12.953965625,2.5243225049999998,13.006845625Q2.603149775,13.059726625,2.686760225,13.104596625Q2.7703705249999997,13.149465625,2.857958525,13.185890625Q2.945546725,13.222315625,3.036269225,13.249945625Q3.126991725,13.277576625,3.219974925,13.296144625Q3.312958025,13.314714625,3.407306325,13.324045625Q3.501654625,13.333373625,3.596459425,13.333373625ZM7.234003025,11.543945325C6.875681925,11.543945325,6.585205125,11.834422125,6.585205125,12.192743325C6.585205125,12.534002325,6.848676225,12.813723625,7.183300025,12.839589625L7.234003025,12.841541625L13.666654625,12.841541625C14.024975625,12.841541625,14.315452625,12.551065425,14.315452625,12.192743325C14.315452625,11.851485225,14.051980625,11.571764025,13.717357625,11.545897525L13.666654625,11.543945325L7.234003025,11.543945325Z" fill-rule="evenodd" fill="#FFFFFF" fill-opacity="1"/></g></g></svg>