<svg xmlns="http://www.w3.org/2000/svg" xmlns:xlink="http://www.w3.org/1999/xlink" fill="none" version="1.1" width="28" height="28" viewBox="0 0 28 28"><g transform="matrix(-1,0,0,1,56,0)"><rect x="28" y="0" width="28" height="28" rx="4" fill="#FFFFFF" fill-opacity="1"/><rect x="28.5" y="0.5" width="27" height="27" rx="3.5" fill-opacity="0" stroke-opacity="1" stroke="#F2F2F5" fill="none" stroke-width="1"/><g><g><g transform="matrix(-1,0,0,1,93.87984466552734,0)"><path d="M56.07992363276367,13.560025215148926C56.35606573276367,13.560025215148926,56.57992363276367,13.783882853898925,56.57992363276367,14.060025213898927C56.57992363276367,14.336167693898926,56.35606573276367,14.560025233898926,56.07992363276367,14.560025233898926L47.43992233276367,14.560025233898926C47.16377997276367,14.560025233898926,46.93992233276367,14.336167693898926,46.93992233276367,14.060025213898927C46.93992233276367,13.783882853898925,47.16377997276367,13.560025215148926,47.43992233276367,13.560025215148926L56.07992363276367,13.560025215148926Z" fill="#8A8A91" fill-opacity="1"/></g><g transform="matrix(-1,0,0,1,82.35850143432617,0)"><path d="M41.324964907163086,10.046478663457032C41.52022704716308,9.851216509457032,41.83680951716308,9.851216509457032,42.03207176716309,10.046478663457032L45.632071517163084,13.646478443457031C45.82733441716309,13.841740643457031,45.82733441716309,14.158323243457032,45.632071517163084,14.353585243457031L42.03207176716309,17.95358464345703C41.83680951716308,18.14884754345703,41.52022704716308,18.14884754345703,41.324964907163086,17.95358464345703C41.129702754163084,17.758322743457033,41.129702754163084,17.44174094345703,41.324964907163086,17.24647804345703L44.571268517163084,14.000031443457031L41.324964907163086,10.753585453457031C41.139979713163086,10.568600173457032,41.13024364816309,10.27472919345703,41.29575671716309,10.078282343457031L41.324964907163086,10.046478663457032Z" fill="#8A8A91" fill-opacity="1"/></g></g></g></g></svg>