<svg xmlns="http://www.w3.org/2000/svg" xmlns:xlink="http://www.w3.org/1999/xlink" fill="none" version="1.1" width="28" height="28" viewBox="0 0 28 28"><g transform="matrix(-1,0,0,1,56,0)"><rect x="28" y="0" width="28" height="28" rx="4" fill="#FFFFFF" fill-opacity="1"/><rect x="28.5" y="0.5" width="27" height="27" rx="3.5" fill-opacity="0" stroke-opacity="1" stroke="#F2F2F5" fill="none" stroke-width="1"/><g transform="matrix(-1,0,0,1,96,0)"><g></g><g><path d="M55.6861148,8.75L52.3138852,8.75L52.1237481,8.7514143598C52.0932372,8.7518908215,52.0632997,8.7524901549,52.0339115,8.7532161165L51.863986,8.7591214729L51.7061019,8.768246207C51.1986175,8.804227956,50.872719599999996,8.89687105,50.5373548,9.07622612C50.1242947,9.297133089999999,49.79713309,9.6242947,49.57622612,10.0373548C49.39687105,10.3727196,49.304227956,10.6986175,49.268246207,11.2061019L49.2591214729,11.363986L49.2532161165,11.5339115C49.2524901549,11.5632997,49.2518908215,11.5932372,49.2514143598,11.6237481L49.25,11.8138852L49.25,16.1861148L49.2514143598,16.3762522C49.2518908215,16.4067631,49.2524901549,16.4367003,49.2532161165,16.4660883L49.2591214729,16.636014L49.268246207,16.7938976C49.304227956,17.301382099999998,49.39687105,17.6272802,49.57622612,17.9626455C49.79713309,18.375705699999997,50.1242947,18.7028666,50.5373548,18.923774C50.872719599999996,19.103129,51.1986175,19.195771999999998,51.7061019,19.231752999999998L51.863986,19.240878000000002L52.0339115,19.246783999999998C52.0632997,19.24751,52.0932372,19.248109,52.1237481,19.248586L52.3138852,19.25L53.4068751,19.25L53.444191000000004,19.248629C53.7029057,19.229540999999998,53.9068751,19.013590999999998,53.9068751,18.75C53.9068751,18.4738579,53.6830177,18.25,53.4068751,18.25L52.2308133,18.249757799999998L52.0762227,18.247773199999997C52.0516882,18.2472706,52.0277514,18.2466803,52.0043857,18.2459993L51.870832,18.2408094L51.749711,18.233325999999998C51.6920466,18.2289886,51.6385667,18.223745299999997,51.5885549,18.217522600000002L51.4929438,18.2037525C51.3558269,18.181078,51.2456261,18.149172800000002,51.1429993,18.1061268L51.0754912,18.075757C51.0532211,18.0650702,51.0311127,18.0538111,51.0089537,18.0419607C50.770162,17.914253199999997,50.5857465,17.7298384,50.4580393,17.491046L50.4229097,17.4217243C50.3508697,17.2708426,50.3049759,17.1121397,50.2787151,16.8797293L50.2679651,16.7669897L50.259861,16.642343C50.2587228,16.6204963,50.257689,16.5980935,50.2567565,16.5751047L50.2523544,16.429898299999998L50.2502422,16.2691865L50.2502422,11.7308133L50.2522268,11.5762227C50.2527295,11.551688200000001,50.25332,11.5277514,50.2540008,11.5043857L50.2591906,11.370832L50.2666745,11.249711C50.271011,11.1920466,50.276255,11.1385667,50.2824773,11.0885549L50.2962474,10.992943799999999C50.3189222,10.8558269,50.3508267,10.745626099999999,50.3938733,10.6429993L50.4242427,10.5754912C50.4349301,10.5532211,50.4461886,10.5311127,50.4580393,10.5089537C50.5857465,10.270162,50.770162,10.085746499999999,51.0089537,9.9580393L51.0782758,9.9229097C51.2291572,9.8508697,51.3878598,9.8049759,51.6202703,9.7787151L51.733010300000004,9.7679651L51.8576572,9.759861C51.8795037,9.7587228,51.9019065,9.757689,51.9248955,9.7567565L52.0701015,9.7523544L52.2308133,9.7502422L55.7691865,9.7502422L55.9237771,9.7522268C55.9483118,9.752729500000001,55.9722486,9.75332,55.9956145,9.7540008L56.129168,9.7591906L56.250289,9.7666745C56.3079534,9.771011,56.361433500000004,9.776254999999999,56.4114451,9.7824773L56.5070562,9.7962474C56.6441731,9.8189222,56.754374,9.8508267,56.8570008,9.8938733L56.9245086,9.9242427C56.9467788,9.9349301,56.9688873,9.9461886,56.9910464,9.9580393C57.2298379,10.085746499999999,57.4142532,10.270162,57.541960700000004,10.5089537C57.553811100000004,10.5311127,57.5650702,10.5532211,57.575756999999996,10.5754912L57.6061268,10.6429993C57.6491728,10.745626099999999,57.681078,10.8558269,57.7037525,10.992943799999999L57.7175226,11.0885549C57.7237453,11.1385667,57.7289886,11.1920466,57.733326,11.249711L57.7408094,11.370832C57.7418623,11.3920195,57.7428188,11.4137251,57.743682899999996,11.435975299999999L57.7477732,11.5762227L57.7497578,11.7308133L57.75,13.4533491L57.7513714,13.490664500000001C57.7704592,13.749379600000001,57.9864092,13.9533491,58.25,13.9533491C58.5261421,13.9533491,58.75,13.7294912,58.75,13.4533491L58.75,11.8138852L58.7485857,11.6237481C58.7481089,11.5932372,58.74751,11.5632997,58.7467842,11.5339115L58.7408781,11.363986L58.7317533,11.2061019C58.6957722,10.6986175,58.6031294,10.3727196,58.4237738,10.0373548C58.2028666,9.6242947,57.8757057,9.297133089999999,57.4626455,9.07622612C57.1272802,8.89687105,56.8013825,8.804227956,56.2938981,8.768246207L56.136014,8.7591214729L55.9660883,8.7532161165C55.9367003,8.7524901549,55.9067631,8.7518908215,55.876252199999996,8.7514143598L55.6861148,8.75ZM56.25,12.625C56.25,12.3488576,56.0261426,12.125,55.75,12.125L52.25,12.125L52.2126844,12.1263714C51.9539695,12.145458699999999,51.75,12.3614097,51.75,12.625C51.75,12.901142100000001,51.9738576,13.125,52.25,13.125L55.75,13.125L55.7873154,13.1236286C56.0460305,13.104541300000001,56.25,12.8885903,56.25,12.625ZM53.75,15.3748002C53.7498899,15.0986581,53.5259428,14.8748899,53.2498004,14.875L52.2498004,14.8753991L52.2124853,14.8767858C51.953778,14.8959761,51.7498949,15.1120086,51.75,15.3755989C51.7501104,15.651741000000001,51.9740572,15.875509300000001,52.2501996,15.8753991L53.2501993,15.875L53.2875147,15.873613800000001C53.546221700000004,15.854423,53.7501049,15.638391,53.75,15.3748002Z" fill-rule="evenodd" fill="#8A8A91" fill-opacity="1"/></g><g><g><path d="M58.5953948,16.578125C58.7152987,16.578125,58.8125,16.68072642,58.8125,16.80729167C58.8125,16.93385693,58.7152987,17.03645834,58.5953948,17.03645834L54.90460528,17.03645834C54.78470134,17.03645834,54.6875,16.93385693,54.6875,16.80729167C54.6875,16.68072642,54.78470134,16.578125,54.90460528,16.578125L58.5953948,16.578125Z" fill="#8A8A91" fill-opacity="1"/><path d="M58.5953948,16.22812504Q58.714148,16.22812504,58.8225889,16.27653992Q58.9250898,16.32230276,59.002995,16.40453598Q59.1624999,16.572902739,59.1624999,16.80729166Q59.1624999,17.04168057,59.002995,17.21004736Q58.9250898,17.29228044,58.8225889,17.33804339Q58.714147600000004,17.38645828,58.5953948,17.38645828L54.90460528,17.38645828Q54.785852276,17.38645828,54.67741132,17.33804351Q54.57491022,17.29228061,54.49700521,17.21004748Q54.33750004,17.0416809,54.33750004,16.80729155Q54.33750004,16.5729023567,54.49700524,16.40453574Q54.57491022,16.3223027,54.677411333,16.27653983Q54.785852291,16.22812504,54.90460528,16.22812504L58.5953948,16.22812504ZM58.5953948,16.92812496L54.90460528,16.92812496Q54.96522346,16.92812496,55.00517207,16.885957Q55.03749996,16.85183311,55.03749996,16.80729155Q55.03749996,16.76275024,55.00517213,16.72862637Q54.96522346,16.68645833,54.90460528,16.68645833L58.5953948,16.68645833Q58.5347764,16.68645833,58.4948277,16.72862659Q58.4624996,16.76275061,58.4624996,16.80729166Q58.4624996,16.85183272,58.4948277,16.88595673Q58.5347764,16.92812496,58.5953948,16.92812496Z" fill="#8A8A91" fill-opacity="1"/></g><g><path d="M56.80729167,14.6875C56.93385693,14.6875,57.03645834,14.78470134,57.03645834,14.90460528L57.03645834,18.5953948C57.03645834,18.715298699999998,56.93385693,18.8125,56.80729167,18.8125C56.68072642,18.8125,56.578125,18.715298699999998,56.578125,18.5953948L56.578125,14.90460528C56.578125,14.78470134,56.68072642,14.6875,56.80729167,14.6875Z" fill="#8A8A91" fill-opacity="1"/><path d="M56.80729166,14.33750004Q57.04168102,14.33750004,57.2100476,14.49700524Q57.29228055,14.57491016,57.33804351,14.677411361Q57.38645828,14.785852343,57.38645828,14.90460528L57.38645828,18.5953948Q57.38645828,18.7141476,57.33804339,18.8225889Q57.29228044,18.925089800000002,57.2100473,19.002995Q57.04168046,19.1624999,56.80729155,19.1624999Q56.572902712,19.1624999,56.40453598,19.002995Q56.32230276,18.925089800000002,56.27653992,18.8225889Q56.22812504,18.714148,56.22812504,18.5953948L56.22812504,14.90460528Q56.22812504,14.785852291,56.27653983,14.677411333Q56.3223027,14.57491022,56.40453574,14.49700524Q56.5729023567,14.33750004,56.80729166,14.33750004ZM56.80729166,15.03749996Q56.85183311,15.03749996,56.885957,15.00517207Q56.92812496,14.96522346,56.92812496,14.90460528L56.92812496,18.5953948Q56.92812496,18.5347764,56.88595673,18.494827700000002Q56.85183272,18.4624996,56.80729155,18.4624996Q56.76275066,18.4624996,56.72862661,18.494827700000002Q56.68645833,18.5347764,56.68645833,18.5953948L56.68645833,14.90460528Q56.68645833,14.96522343,56.72862634,15.00517207Q56.76275025,15.03749996,56.80729166,15.03749996Z" fill="#8A8A91" fill-opacity="1"/></g></g></g></g></svg>