<svg xmlns="http://www.w3.org/2000/svg" xmlns:xlink="http://www.w3.org/1999/xlink" fill="none" version="1.1" width="28" height="28" viewBox="0 0 28 28"><g><g><rect x="0" y="0" width="28" height="28" rx="14" fill="#D7FE03" fill-opacity="1"/><g><g><g><path d="M19.250022888183594,11.999954323632812C19.250022888183594,11.033455963632813,18.466522188183596,10.249954223632812,17.500022888183594,10.249954223632812L10.500022988183593,10.249954223632812C9.533524628183594,10.249954223632812,8.750022888183594,11.033455963632813,8.750022888183594,11.999954323632812L8.751319647783594,12.067662623632813C8.772013357183594,12.607274023632812,9.039071498183594,13.095799923632812,9.458411218183594,13.406493623632812L9.500022888183594,13.435954523632812L9.500022888183594,16.18604992363281C9.500022888183594,17.074368523632813,9.584119678183594,17.509857223632814,9.826249088183594,17.962599723632813C10.047156088183593,18.37565992363281,10.374317688183593,18.702821723632812,10.787377788183594,18.923728023632812C11.240120388183595,19.165857323632814,11.675609088183593,19.249954223632812,12.563908588183594,19.249954223632812L15.436137688183594,19.249954223632812C16.324437188183595,19.249954223632812,16.759925888183595,19.165857323632814,17.212668388183594,18.923728023632812C17.62572858818359,18.702821723632812,17.952890388183594,18.37565992363281,18.173796688183593,17.962599723632813L18.200053188183595,17.912341623632813C18.422040988183596,17.476977323632813,18.500022888183594,17.04146912363281,18.500022888183594,16.18606902363281L18.500022888183594,13.435954523632812L18.54187968818359,13.406312723632812C18.978553888183594,13.082658523632812,19.250022888183594,12.566144423632812,19.250022888183594,11.999954323632812ZM10.500022888183594,11.249954223632812L17.500022888183594,11.249954223632812C17.914236088183593,11.249954223632812,18.250022888183594,11.585740723632812,18.250022888183594,11.999954223632812C18.250022888183594,12.301039923632812,18.071129788183594,12.569196023632813,17.799916288183596,12.687732223632812C17.617837888183594,12.767310623632813,17.500163988183594,12.947155023632813,17.500156388183594,13.145863323632813L17.500022888183594,16.186047523632812C17.500022888183594,16.923403723632813,17.446042988183592,17.202935223632814,17.291983588183594,17.491001123632813C17.16427608818359,17.72979262363281,16.979860288183595,17.914208423632815,16.741069288183596,18.041915423632812C16.453003388183593,18.19597432363281,16.173472388183594,18.249954223632812,15.436137688183594,18.249954223632812L12.563908088183593,18.249954223632812C11.826573888183594,18.249954223632812,11.547042388183595,18.19597432363281,11.258976688183594,18.041915423632812C11.020184988183594,17.914208423632815,10.835769388183593,17.72979262363281,10.708062188183593,17.491001123632813C10.559928188183594,17.214014023632814,10.504323288183594,16.944918623632812,10.500264988183593,16.26914122363281L10.500138188183595,13.146012823632812C10.500145688183594,12.947249923632812,10.382422488183593,12.767357623632812,10.200277588183594,12.687797023632813C9.928985088183595,12.569297123632813,9.750022888183594,12.301098323632813,9.750022888183594,11.999954223632812C9.750022888183594,11.585740723632812,10.085809188183594,11.249954223632812,10.500022888183594,11.249954223632812Z" fill-rule="evenodd" fill="#0C0C0D" fill-opacity="1"/></g><g><path d="M16.49999237060547,10.749954123632813C16.49999237060547,9.645384673632812,15.604561370605468,8.749954223632812,14.499992170605468,8.749954223632812L13.49999227060547,8.749954223632812C12.395422820605468,8.749954223632812,11.499992370605469,9.645384673632812,11.499992370605469,10.749954123632813L11.499992370605469,11.249954223632812L16.49999237060547,11.249954223632812L16.49999237060547,10.749954123632813ZM13.499781370605469,9.749954223632812L14.49978117060547,9.749954223632812L14.549691470605469,9.751178023632812C14.89691167060547,9.768244723632812,15.197575070605469,9.962406923632813,15.363251970605468,10.245235123632813L15.365531470605468,10.249704223632813L12.633781470605468,10.249954223632812L12.636310670605468,10.245235123632813C12.809877070605468,9.948938723632812,13.131591570605469,9.749954223632812,13.499781370605469,9.749954223632812Z" fill-rule="evenodd" fill="#0C0C0D" fill-opacity="1"/></g><g><rect x="12.249992370605469" y="13.500030517578125" width="1" height="2.5" rx="0.5" fill="#0C0C0D" fill-opacity="1"/></g><g><rect x="14.75" y="13.500030517578125" width="1" height="2.5" rx="0.5" fill="#0C0C0D" fill-opacity="1"/></g></g></g></g></g></svg>

