<svg xmlns="http://www.w3.org/2000/svg" xmlns:xlink="http://www.w3.org/1999/xlink" fill="none" version="1.1" width="12" height="12" viewBox="0 0 12 12"><g><g><g><g><path d="M8.5579366296875,2.557966707265625C8.8020143296875,2.313889026265625,9.1977420296875,2.313889026265625,9.441819629687501,2.557966707265625C9.6858973296875,2.802044387265625,9.6858973296875,3.197772507265625,9.441819629687501,3.441850147265625L3.4418196296875,9.441850147265626C3.1977419896875,9.685927847265624,2.8020138696875,9.685927847265624,2.5579361896875,9.441850147265626C2.3138585086875,9.197772547265625,2.3138585086875,8.802044847265625,2.5579361896875,8.557967147265625L8.5579366296875,2.557966707265625Z" fill="#FFFFFF" fill-opacity="1"/></g><g><path d="M2.5579361896875,2.557966707265625C2.8020138696875,2.313889026265625,3.1977419896875,2.313889026265625,3.4418196296875,2.557966707265625L9.441819629687501,8.557967147265625C9.6858973296875,8.802044847265625,9.6858973296875,9.197772547265625,9.441819629687501,9.441850147265626C9.1977420296875,9.685927847265624,8.8020143296875,9.685927847265624,8.5579366296875,9.441850147265626L2.5579361896875,3.441850147265625C2.3138585086875,3.197772507265625,2.3138585086875,2.802044387265625,2.5579361896875,2.557966707265625Z" fill="#FFFFFF" fill-opacity="1"/></g></g></g></g></svg>