<svg xmlns="http://www.w3.org/2000/svg" xmlns:xlink="http://www.w3.org/1999/xlink" fill="none" version="1.1" width="40" height="40" viewBox="0 0 40 40"><g><rect x="0" y="0" width="40" height="40" rx="20" fill="#FFFFFF" fill-opacity="1"/><rect x="0.5" y="0.5" width="39" height="39" rx="19.5" fill-opacity="0" stroke-opacity="1" stroke="#D9D9DE" fill="none" stroke-width="1"/><g><g><g><g><path d="M19.999898441406252,27.3332929765625Q20.17992214140625,27.3332929765625,20.35972834140625,27.3244589765625Q20.53953454140625,27.3156259765625,20.71869084140625,27.2979809765625Q20.89784624140625,27.280333976562503,21.07592104140625,27.2539199765625Q21.253995941406252,27.2275049765625,21.43056014140625,27.1923839765625Q21.607124341406248,27.1572629765625,21.781751641406252,27.113520976562498Q21.95638084140625,27.0697779765625,22.12865254140625,27.0175209765625Q22.30092434140625,26.965261976562502,22.47042274140625,26.9046139765625Q22.63992314140625,26.8439659765625,22.80624194140625,26.7750739765625Q22.972561941406248,26.706182976562502,23.13530194140625,26.6292119765625Q23.298039941406252,26.5522419765625,23.45680694140625,26.4673819765625Q23.61557294140625,26.3825189765625,23.769982941406248,26.2899679765625Q23.92439494140625,26.1974169765625,24.07407894140625,26.0974019765625Q24.22376294140625,25.997386976562503,24.36835894140625,25.8901459765625Q24.51295494140625,25.782907976562498,24.65211494140625,25.668701976562502Q24.79127494140625,25.5544969765625,24.92466294140625,25.433599976562498Q25.05805094140625,25.3127039765625,25.18534694140625,25.1854089765625Q25.31264194140625,25.058112976562498,25.43353794140625,24.9247249765625Q25.55443594140625,24.7913359765625,25.668640941406252,24.6521769765625Q25.782846941406248,24.5130169765625,25.890085941406248,24.3684209765625Q25.997325941406253,24.2238239765625,26.09734094140625,24.0741399765625Q26.19735594140625,23.9244559765625,26.28990694140625,23.770044976562502Q26.38245694140625,23.6156349765625,26.467319941406252,23.4568689765625Q26.55218094140625,23.2981019765625,26.62915094140625,23.1353629765625Q26.706121941406252,22.972623976562502,26.77501294140625,22.8063039765625Q26.84390494140625,22.6399841765625,26.90455294140625,22.4704847765625Q26.965200941406252,22.3009853765625,27.01745994140625,22.1287135765625Q27.06971694140625,21.9564418765625,27.113459941406248,21.7818145765625Q27.15720194140625,21.607185376562498,27.19232294140625,21.4306220765625Q27.22744394140625,21.2540578765625,27.25385894140625,21.0759830765625Q27.280272941406253,20.897908176562503,27.29791994140625,20.7187518765625Q27.31556494140625,20.5395955765625,27.32439894140625,20.3597893765625Q27.33323294140625,20.1799831765625,27.33323194140625,19.999959476562502Q27.33323294140625,19.8199362765625,27.32439894140625,19.6401295765625Q27.31556494140625,19.4603233765625,27.29791994140625,19.2811670765625Q27.280272941406253,19.1020107765625,27.25385894140625,18.9239358765625Q27.22744394140625,18.7458610765625,27.19232294140625,18.5692968765625Q27.15720194140625,18.3927325765625,27.113459941406248,18.2181048765625Q27.06971694140625,18.0434760765625,27.01745994140625,17.8712053765625Q26.965200941406252,17.6989335765625,26.90455294140625,17.5294332765625Q26.84390494140625,17.359933376562502,26.77501294140625,17.1936135765625Q26.706121941406252,17.0272936765625,26.62915094140625,16.8645548765625Q26.55218094140625,16.7018155765625,26.46732094140625,16.5430495765625Q26.38245794140625,16.3842830765625,26.28990694140625,16.2298719765625Q26.19735594140625,16.0754608765625,26.09734094140625,15.9257771765625Q25.997325941406253,15.776093476562501,25.89008494140625,15.6314975765625Q25.782846941406248,15.486901776562501,25.668640941406252,15.3477418765625Q25.55443594140625,15.2085818765625,25.433538941406248,15.075193676562499Q25.31264294140625,14.941805076562499,25.18534794140625,14.8145093765625Q25.058051941406248,14.6872138765625,24.92466394140625,14.5663175765625Q24.79127494140625,14.4454214765625,24.65211594140625,14.3312159765625Q24.51295594140625,14.2170103765625,24.36835994140625,14.1097705765625Q24.22376294140625,14.0025307765625,24.07407894140625,13.9025152765625Q23.92439494140625,13.8024997765625,23.769983941406252,13.7099493765625Q23.61557394140625,13.6173989765625,23.45680794140625,13.5325365665625Q23.29804094140625,13.447674156562499,23.13530194140625,13.3707044165625Q22.972562941406252,13.2937345465625,22.80624294140625,13.2248426665625Q22.63992314140625,13.1559507865625,22.47042374140625,13.0953027865625Q22.30092434140625,13.0346547965625,22.12865254140625,12.9823968365625Q21.95638084140625,12.9301388565625,21.78175354140625,12.8863967765625Q21.607124341406248,12.8426547065625,21.43056104140625,12.8075339065625Q21.25399684140625,12.7724131165625,21.07592204140625,12.7459982265625Q20.897847141406253,12.7195833395625,20.71869084140625,12.7019379805625Q20.53953454140625,12.6842926185625,20.35972834140625,12.6754592973625Q20.17992214140625,12.6666259765625,19.999898441406252,12.6666259765625Q19.81987524140625,12.6666259765625,19.64006854140625,12.6754592973625Q19.46026234140625,12.6842926185625,19.28110604140625,12.7019379805625Q19.10194974140625,12.7195833395625,18.92387484140625,12.7459982335625Q18.74580004140625,12.7724131165625,18.56923584140625,12.8075339065625Q18.39267154140625,12.8426547065625,18.21804384140625,12.8863967665625Q18.04341504140625,12.9301388565625,17.87114434140625,12.9823968365625Q17.69887254140625,13.0346547965625,17.52937224140625,13.0953027865625Q17.359872341406252,13.1559507865625,17.19355254140625,13.2248426665625Q17.02723264140625,13.2937345465625,16.86449384140625,13.3707044165625Q16.70175454140625,13.4476742165625,16.54298854140625,13.5325366265625Q16.38422204140625,13.6173989765625,16.22981094140625,13.7099493765625Q16.07539984140625,13.8024997765625,15.92571614140625,13.9025153765625Q15.776032441406251,14.0025309765625,15.63143654140625,14.1097706765625Q15.486840741406251,14.2170104765625,15.34768084140625,14.3312160765625Q15.20852084140625,14.4454214765625,15.075132641406249,14.5663175765625Q14.941744041406249,14.6872138765625,14.81444834140625,14.8145093765625Q14.68715284140625,14.941805076562499,14.56625654140625,15.075193676562499Q14.44536044140625,15.2085818765625,14.33115494140625,15.3477418765625Q14.21694934140625,15.486901776562501,14.10970954140625,15.6314978765625Q14.00246974140625,15.776093476562501,13.90245424140625,15.9257774765625Q13.80243874140625,16.0754611765625,13.70988834140625,16.2298722765625Q13.61733794140625,16.3842832765625,13.53247553140625,16.5430497765625Q13.447613121406249,16.7018160765625,13.37064338140625,16.8645553765625Q13.29367351140625,17.0272941765625,13.22478163140625,17.1936139765625Q13.15588975140625,17.3599338765625,13.09524175140625,17.5294337765625Q13.03459376140625,17.6989335765625,12.98233580140625,17.8712053765625Q12.93007782140625,18.0434760765625,12.88633574140625,18.2181043765625Q12.84259367140625,18.3927325765625,12.80747287140625,18.5692968765625Q12.77235208140625,18.7458610765625,12.74593719140625,18.9239358765625Q12.71952230440625,19.1020107765625,12.70187694540625,19.2811670765625Q12.68423158340625,19.4603233765625,12.67539826220625,19.6401300765625Q12.66656494140625,19.8199362765625,12.66656494140625,19.999959476562502Q12.66656494140625,20.1799831765625,12.67539826220625,20.3597893765625Q12.68423158340625,20.5395955765625,12.70187694540625,20.7187518765625Q12.71952230440625,20.8979072765625,12.74593719840625,21.0759820765625Q12.77235208140625,21.254056976562502,12.80747287140625,21.4306211765625Q12.84259367140625,21.607185376562498,12.88633573140625,21.781812676562502Q12.93007782140625,21.9564418765625,12.98233580140625,22.1287135765625Q13.03459376140625,22.3009853765625,13.09524175140625,22.4704837765625Q13.15588975140625,22.6399841765625,13.22478163140625,22.8063029765625Q13.29367351140625,22.972622976562498,13.37064338140625,23.1353629765625Q13.44761318140625,23.298100976562502,13.53247559140625,23.4568679765625Q13.61733794140625,23.6156339765625,13.70988834140625,23.770043976562498Q13.80243874140625,23.9244559765625,13.90245434140625,24.0741399765625Q14.00246994140625,24.2238239765625,14.10970964140625,24.3684199765625Q14.21694944140625,24.5130159765625,14.33115504140625,24.6521759765625Q14.44536044140625,24.7913359765625,14.56625654140625,24.9247239765625Q14.68715284140625,25.0581119765625,14.81444834140625,25.1854079765625Q14.941744041406249,25.3127029765625,15.075132641406249,25.4335989765625Q15.20852084140625,25.5544969765625,15.34768084140625,25.668701976562502Q15.486840741406251,25.782907976562498,15.63143684140625,25.890146976562498Q15.776032441406251,25.997386976562503,15.92571644140625,26.0974019765625Q16.07540014140625,26.1974169765625,16.22981124140625,26.2899679765625Q16.38422224140625,26.3825179765625,16.54298874140625,26.467380976562502Q16.70175504140625,26.5522419765625,16.86449434140625,26.6292119765625Q17.02723314140625,26.706182976562502,17.19355294140625,26.7750739765625Q17.35987284140625,26.8439659765625,17.52937274140625,26.9046139765625Q17.69887254140625,26.965261976562502,17.87114434140625,27.0175209765625Q18.04341504140625,27.0697779765625,18.21804334140625,27.113520976562498Q18.39267154140625,27.1572629765625,18.56923584140625,27.1923839765625Q18.74580004140625,27.2275049765625,18.92387484140625,27.2539199765625Q19.10194974140625,27.280333976562503,19.28110604140625,27.2979809765625Q19.46026234140625,27.3156259765625,19.64006904140625,27.3244599765625Q19.81987524140625,27.3332929765625,19.999898441406252,27.3332929765625ZM19.99957274140625,26.0006099765625Q20.14686444140625,26.0006099765625,20.293978641406248,25.9933819765625Q20.44109294140625,25.9861559765625,20.58767554140625,25.9717199765625Q20.73425774140625,25.9572809765625,20.87995534140625,25.9356689765625Q21.02565284140625,25.9140569765625,21.17011454140625,25.8853209765625Q21.31457614140625,25.8565859765625,21.457453741406248,25.820796976562498Q21.60033224140625,25.7850079765625,21.741281541406252,25.7422519765625Q21.88223074140625,25.699494976562498,22.02091124140625,25.6498739765625Q22.15959264140625,25.6002519765625,22.29567244140625,25.5438859765625Q22.43175224140625,25.4875199765625,22.564902341406253,25.4245449765625Q22.69805294140625,25.3615699765625,22.827951941406248,25.2921369765625Q22.95785094140625,25.2227039765625,23.08418794140625,25.1469809765625Q23.21052394140625,25.0712589765625,23.33299294140625,24.9894279765625Q23.45546194140625,24.907596976562502,23.573767941406253,24.8198549765625Q23.69207394140625,24.732112976562497,23.805930941406253,24.6386729765625Q23.91978894140625,24.545232976562502,24.028924941406252,24.4463179765625Q24.13806194140625,24.3474029765625,24.24221194140625,24.2432509765625Q24.346362941406248,24.1390999765625,24.44527794140625,24.0299639765625Q24.54419294140625,23.9208279765625,24.637634941406247,23.8069709765625Q24.73107494140625,23.6931109765625,24.81881694140625,23.5748059765625Q24.90655794140625,23.456499976562498,24.98838894140625,23.3340319765625Q25.07021894140625,23.211562976562497,25.14594294140625,23.085226976562502Q25.22166494140625,22.9588909765625,25.29109894140625,22.8289909765625Q25.36053094140625,22.699090976562502,25.423505941406248,22.5659398765625Q25.48648294140625,22.4327897765625,25.54284894140625,22.2967099765625Q25.599214941406252,22.1606301765625,25.64883594140625,22.0219487765625Q25.69845794140625,21.8832673765625,25.74121494140625,21.7423181765625Q25.78397194140625,21.6013688765625,25.81976094140625,21.458491276562498Q25.855548941406248,21.3156137765625,25.884283941406252,21.1711520765625Q25.91301894140625,21.0266904765625,25.934630941406247,20.8809928765625Q25.95624494140625,20.7352962765625,25.970681941406248,20.5887136765625Q25.98511894140625,20.4421310765625,25.99234594140625,20.2950167765625Q25.99957294140625,20.1479019765625,25.99957294140625,20.0006103765625Q25.99957294140625,19.8533181765625,25.99234594140625,19.7062043765625Q25.98511894140625,19.5590901765625,25.97068094140625,19.4125079765625Q25.95624394140625,19.2659253765625,25.934630941406247,19.1202273765625Q25.91301894140625,18.9745297765625,25.884282941406248,18.8300680765625Q25.855548941406248,18.685606476562498,25.81975894140625,18.5427288765625Q25.78397194140625,18.3998517765625,25.74121494140625,18.258902576562498Q25.69845794140625,18.1179527765625,25.64883594140625,17.9792709765625Q25.599214941406252,17.8405894765625,25.54284894140625,17.7045092765625Q25.48648294140625,17.5684294765625,25.423506941406252,17.435279376562498Q25.36053194140625,17.3021292765625,25.29109994140625,17.1722297765625Q25.22166594140625,17.0423297765625,25.14594294140625,16.915993176562502Q25.07021894140625,16.7896566765625,24.98838894140625,16.6671881765625Q24.90655794140625,16.5447196765625,24.81881594140625,16.426413776562498Q24.73107494140625,16.3081083765625,24.63763394140625,16.1942503765625Q24.54419294140625,16.0803923765625,24.44527794140625,15.9712562765625Q24.346362941406248,15.8621201765625,24.24221194140625,15.7579693765625Q24.13806194140625,15.6538183765625,24.028924941406252,15.5549032765625Q23.91978894140625,15.4559883765625,23.805930941406253,15.3625473765625Q23.69207394140625,15.269106376562501,23.573767941406253,15.1813649765625Q23.45546194140625,15.0936231765625,23.33299294140625,15.0117923765625Q23.21052394140625,14.9299614765625,23.08418794140625,14.8542384765625Q22.95785094140625,14.778515376562499,22.827951941406248,14.7090825765625Q22.69805294140625,14.6396497765625,22.564902341406253,14.5766744765625Q22.43175224140625,14.5136990765625,22.29567244140625,14.4573329765625Q22.15959264140625,14.4009668765625,22.02091124140625,14.3513457765625Q21.88223074140625,14.3017247765625,21.741281541406252,14.2589683765625Q21.60033224140625,14.2162117765625,21.457453741406248,14.1804227765625Q21.31457614140625,14.1446337765625,21.17011454140625,14.1158985765625Q21.02565284140625,14.0871634765625,20.87995534140625,14.0655512765625Q20.73425774140625,14.0439390765625,20.58767554140625,14.0295020765625Q20.44109294140625,14.0150648765625,20.293978641406248,14.0078375765625Q20.14686444140625,14.0006103765625,19.99957274140625,14.0006103765625Q19.85228114140625,14.0006103765625,19.70516684140625,14.0078375765625Q19.55805204140625,14.0150648765625,19.41146944140625,14.0295020765625Q19.264886841406252,14.0439390765625,19.11918924140625,14.0655512765625Q18.973491641406248,14.0871634765625,18.82903054140625,14.1158985765625Q18.68456884140625,14.1446337765625,18.54169134140625,14.1804227765625Q18.39881374140625,14.2162117765625,18.257864441406248,14.2589683765625Q18.116914741406248,14.3017247765625,17.978233341406252,14.3513458765625Q17.83955144140625,14.4009668765625,17.70347164140625,14.4573330765625Q17.56739144140625,14.5136992765625,17.43424174140625,14.5766746765625Q17.301091641406252,14.6396498765625,17.17119214140625,14.7090828765625Q17.04129214140625,14.778515376562499,16.91495614140625,14.8542384765625Q16.78861904140625,14.9299614765625,16.66615084140625,15.0117923765625Q16.54368234140625,15.0936231765625,16.42537664140625,15.1813649765625Q16.30707094140625,15.2691065765625,16.19321294140625,15.3625476765625Q16.07935474140625,15.4559883765625,15.97021894140625,15.554903476562501Q15.861082841406251,15.6538183765625,15.75693174140625,15.7579693765625Q15.65278104140625,15.8621201765625,15.55386594140625,15.9712562765625Q15.45495084140625,16.0803923765625,15.36151024140625,16.1942505765625Q15.26806924140625,16.3081083765625,15.180327641406251,16.4264142765625Q15.09258604140625,16.5447201765625,15.01075504140625,16.6671886765625Q14.92892404140625,16.7896570765625,14.85320094140625,16.9159936765625Q14.77747794140625,17.0423297765625,14.70804524140625,17.1722297765625Q14.63861234140625,17.3021292765625,14.57563694140625,17.435279376562498Q14.51266174140625,17.5684294765625,14.45629544140625,17.7045092765625Q14.39992924140625,17.8405894765625,14.350308341406251,17.9792709765625Q14.30068724140625,18.1179527765625,14.25793074140625,18.258902576562498Q14.21517424140625,18.3998517765625,14.179385041406249,18.5427288765625Q14.14359614140625,18.685606476562498,14.11486104140625,18.8300680765625Q14.08612584140625,18.9745297765625,14.06451364140625,19.1202273765625Q14.04290154140625,19.265924976562502,14.02846444140625,19.4125075765625Q14.01402724140625,19.5590896765625,14.00679994140625,19.7062039765625Q13.99957274140625,19.8533181765625,13.99957274140625,20.0006103765625Q13.99957274140625,20.1479019765625,14.00679994140625,20.2950162765625Q14.01402724140625,20.4421310765625,14.02846444140625,20.5887136765625Q14.04290154140625,20.7352962765625,14.06451364140625,20.8809928765625Q14.08612584140625,21.0266904765625,14.11486104140625,21.1711520765625Q14.14359614140625,21.3156137765625,14.17938514140625,21.458491276562498Q14.21517424140625,21.6013698765625,14.25793074140625,21.742319076562502Q14.30068724140625,21.883268376562498,14.350308341406251,22.0219487765625Q14.39992924140625,22.1606301765625,14.45629544140625,22.2967099765625Q14.51266174140625,22.4327897765625,14.57563714140625,22.5659398765625Q14.63861234140625,22.699090976562502,14.70804524140625,22.8289909765625Q14.77747794140625,22.9588909765625,14.85320114140625,23.085225976562498Q14.92892404140625,23.211562976562497,15.01075504140625,23.334030976562502Q15.09258604140625,23.4564989765625,15.180327641406251,23.5748049765625Q15.26806924140625,23.6931109765625,15.36151024140625,23.8069699765625Q15.45495084140625,23.9208279765625,15.55386594140625,24.0299639765625Q15.65278104140625,24.1390999765625,15.75693174140625,24.2432509765625Q15.861082841406251,24.3474029765625,15.97021894140625,24.4463179765625Q16.07935474140625,24.545232976562502,16.19321294140625,24.6386729765625Q16.30707094140625,24.732112976562497,16.42537664140625,24.8198549765625Q16.54368234140625,24.907596976562502,16.666151041406252,24.9894279765625Q16.78861904140625,25.0712589765625,16.91495564140625,25.1469799765625Q17.04129214140625,25.2227039765625,17.17119214140625,25.2921369765625Q17.301091641406252,25.3615699765625,17.43424174140625,25.4245449765625Q17.56739144140625,25.4875199765625,17.70347164140625,25.5438859765625Q17.83955144140625,25.6002519765625,17.978233341406252,25.6498739765625Q18.116914741406248,25.699494976562498,18.25786404140625,25.7422519765625Q18.398813241406252,25.7850079765625,18.54169134140625,25.820796976562498Q18.68456884140625,25.8565859765625,18.82903054140625,25.8853209765625Q18.973491641406248,25.9140569765625,19.11918974140625,25.9356689765625Q19.264886841406252,25.9572809765625,19.41146994140625,25.9717189765625Q19.558052541406248,25.9861559765625,19.70516684140625,25.9933819765625Q19.85228114140625,26.0006099765625,19.99957274140625,26.0006099765625Z" fill-rule="evenodd" fill="#8A8A91" fill-opacity="1"/></g><g transform="matrix(-1,0,0,-1,46.6666259765625,42.29636001586914)"><path d="M27.14812828828125,21.14818000793457C27.516318288281248,21.14818000793457,27.81479498828125,21.446656877934572,27.81479498828125,21.81484675793457L27.81479498828125,24.96299530793457C27.81479498828125,25.331185307934568,27.516318288281248,25.62966200793457,27.14812828828125,25.62966200793457C26.77993848828125,25.62966200793457,26.48146148828125,25.331185307934568,26.48146148828125,24.96299530793457L26.481313488281252,22.48151350793457L23.99997973828125,22.48151350793457C23.64852577828125,22.48151350793457,23.36059128328125,22.20955430793457,23.33514156728125,21.86460089793457L23.33331298828125,21.81484675793457C23.33331298828125,21.446656877934572,23.631789858281252,21.14818000793457,23.99997973828125,21.14818000793457L27.14812828828125,21.14818000793457Z" fill="#8A8A91" fill-opacity="1"/></g></g></g></g></g></svg>