<svg xmlns="http://www.w3.org/2000/svg" xmlns:xlink="http://www.w3.org/1999/xlink" fill="none" version="1.1" width="36" height="36" viewBox="0 0 36 36"><g><rect x="0" y="0" width="36" height="36" rx="18" fill="#D7FE03" fill-opacity="1"/><g><g><g><g><path d="M17.9148197,14L15.085181200000001,14C13.9007816,14,13.3201299,14.11212905,12.7164731,14.43496817C12.1657264,14.72951078,11.72951078,15.1657264,11.43496817,15.7164731C11.11212905,16.3201299,11,16.900781600000002,11,18.0851812L11,20.9148197C11,22.0992193,11.11212905,22.6798706,11.43496817,23.2835274C11.72951078,23.8342743,12.1657264,24.270491,12.7164731,24.565032000000002C13.3201299,24.887871,13.9007816,25,15.085181200000001,25L17.9148197,25C19.0992193,25,19.6798706,24.887871,20.2835274,24.565032000000002C20.8342743,24.270491,21.270491,23.8342743,21.565032000000002,23.2835274C21.887871,22.6798706,22,22.0992193,22,20.9148197L22,18.0851812C22,16.900781600000002,21.887871,16.3201299,21.565032000000002,15.7164731C21.270491,15.1657264,20.8342743,14.72951078,20.2835274,14.43496817C19.6798706,14.11212905,19.0992193,14,17.9148197,14ZM13.3459229,15.6103935C13.730011000000001,15.4049811,14.1027193,15.3330078,15.085831599999999,15.3330078L17.9154716,15.3330078C18.8985844,15.3330078,19.2712936,15.4049811,19.6553802,15.6103935C19.9737701,15.7806699,20.2196579,16.0265574,20.3899326,16.3449464C20.595346499999998,16.7290344,20.667318299999998,17.1017427,20.667318299999998,18.0848551L20.667318299999998,20.914495C20.667318299999998,21.8976078,20.595346499999998,22.2703171,20.3899326,22.6544037C20.2196579,22.9727936,19.9737701,23.2186813,19.6553802,23.3889561C19.2712936,23.5943699,18.8985844,23.666341799999998,17.9154716,23.666341799999998L15.085831599999999,23.666341799999998C14.1027193,23.666341799999998,13.730011000000001,23.5943699,13.3459229,23.3889561C13.027534,23.2186813,12.7816465,22.9727936,12.6113701,22.6544037C12.4059577,22.2703171,12.3339844,21.8976078,12.3339844,20.914495L12.3339844,18.0848551C12.3339844,17.1017427,12.4059577,16.7290344,12.6113701,16.3449464C12.7816465,16.0265574,13.027534,15.7806699,13.3459229,15.6103935Z" fill-rule="evenodd" fill="#0C0C0D" fill-opacity="1"/></g><g><path d="M20.652565041943358,11.215579986572266C21.85188674194336,11.215579986572266,22.43910214194336,11.328976536572265,23.04955964194336,11.655452576572266C23.60629084194336,11.953195456572265,24.04720114194336,12.394107086572266,24.344944041943357,12.950837886572266C24.67142104194336,13.561294986572266,24.78481674194336,14.148510686572266,24.78481674194336,15.347831686572267L24.78481674194336,17.878510986572266C24.78481674194336,19.077832686572265,24.67142104194336,19.665048586572265,24.344944041943357,20.275505086572267C24.19661524194336,20.552856486572267,24.01222034194336,20.802471186572266,23.79437254194336,21.020318986572263C23.53402324194336,21.280667986572265,23.11191364194336,21.280667986572265,22.85156444194336,21.020318986572263C22.591213241943358,20.759969686572266,22.591213241943358,20.337858186572266,22.85156444194336,20.077509886572265C22.97611044194336,19.952962886572266,23.08224104194336,19.809293786572265,23.16919324194336,19.646707486572268C23.37824444194336,19.255819286572265,23.45148374194336,18.876546886572264,23.45148374194336,17.878510986572266L23.45148374194336,15.347831686572267C23.45148374194336,14.349796986572265,23.37824444194336,13.970524586572266,23.16919324194336,13.579636086572265C22.99571804194336,13.255263786572266,22.74513384194336,13.004680086572266,22.42076114194336,12.831203486572266C22.02987244194336,12.622154086572266,21.65060044194336,12.548913386572266,20.652565041943358,12.548913386572266L18.00943824194336,12.549241886572265C17.09465884194336,12.554748286572266,16.72954464194336,12.630194686572265,16.353690541943358,12.831203486572266C16.19110334194336,12.918155986572266,16.047434041943358,13.024287986572265,15.92288804194336,13.148833986572265C15.662538411943359,13.409183286572265,15.24042842194336,13.409183286572265,14.98007890194336,13.148833986572265C14.719729348943359,12.888484386572266,14.719729348943359,12.466374286572265,14.98007890194336,12.206024646572265C15.197926221943359,11.988177476572266,15.44754118194336,11.803781386572265,15.724891901943359,11.655452576572266C16.33534904194336,11.328976536572265,16.92256494194336,11.215579986572266,18.12188604194336,11.215579986572266L20.652565041943358,11.215579986572266Z" fill="#0C0C0D" fill-opacity="1"/></g></g></g></g></g></svg>

