<svg xmlns="http://www.w3.org/2000/svg" xmlns:xlink="http://www.w3.org/1999/xlink" fill="none" version="1.1" width="16" height="16" viewBox="0 0 16 16"><g><g><path d="M7.3333335,13.666667Q7.4888077,13.666666,7.6440954,13.659038Q7.7993827,13.651408,7.9541092,13.636169Q8.1088352,13.62093,8.2626266,13.598117Q8.4164186,13.575304,8.5689058,13.544972Q8.7213926,13.514641,8.8722086,13.476864Q9.0230236,13.439087,9.1718035,13.393955Q9.3205833,13.348823,9.4669695,13.296444Q9.6133556,13.244066,9.7569952,13.184569Q9.9006348,13.125072,10.0411816,13.058598Q10.1817293,12.992124,10.3188457,12.918834Q10.4559622,12.845543,10.5893173,12.765614Q10.7226715,12.685683,10.851944,12.599306Q10.9812164,12.512929,11.106095,12.420313Q11.230974,12.327698,11.351158,12.229067Q11.471342,12.130434,11.58654,12.026024Q11.701739,11.921614,11.811676,11.811676Q11.921614,11.701739,12.026024,11.58654Q12.130434,11.471342,12.229066,11.351158Q12.327698,11.230974,12.420314,11.106095Q12.512929,10.9812164,12.599306,10.851944Q12.685683,10.7226715,12.765614,10.5893173Q12.845544,10.4559622,12.918835,10.3188457Q12.992125,10.1817293,13.058599,10.0411816Q13.125072,9.9006348,13.18457,9.7569952Q13.244068,9.6133556,13.296446,9.4669695Q13.348824,9.3205833,13.393955,9.1718035Q13.439087,9.0230236,13.476864,8.8722086Q13.514641,8.7213926,13.544972,8.5689054Q13.575304,8.4164181,13.598117,8.2626262Q13.62093,8.1088347,13.63617,7.9541092Q13.651409,7.7993827,13.659038,7.6440954Q13.666666,7.4888077,13.666667,7.3333335Q13.666666,7.1778593,13.659038,7.022572Q13.651408,6.8672848,13.636169,6.7125587Q13.62093,6.5578322,13.598117,6.4040403Q13.575304,6.250248,13.544972,6.0977612Q13.514641,5.9452739,13.476864,5.7944584Q13.439087,5.6436434,13.393955,5.4948635Q13.348823,5.3460836,13.296444,5.1996975Q13.244066,5.0533113,13.184569,4.909671299999999Q13.125072,4.7660317,13.058598,4.625484500000001Q12.992124,4.4849372,12.918834,4.3478208Q12.845543,4.2107043,12.765614,4.0773492000000005Q12.685683,3.943994,12.599306,3.8147218Q12.512929,3.6854494,12.420313,3.5605712Q12.327698,3.4356928,12.229067,3.3155093Q12.130434,3.1953259,12.026024,3.0801268Q11.921614,2.9649276,11.811676,2.8549904Q11.701739,2.7450532,11.58654,2.6406429Q11.471342,2.5362324999999997,11.351158,2.4376005000000003Q11.230974,2.3389683999999997,11.106095,2.2463523Q10.9812164,2.1537360999999997,10.851944,2.0673591Q10.7226715,1.98098207,10.5893173,1.90105218Q10.4559622,1.82112229,10.3188457,1.74783206Q10.1817293,1.67454183,10.0411816,1.60806781Q9.9006348,1.5415937899999999,9.7569952,1.4820962500000001Q9.6133556,1.4225987199999999,9.4669695,1.3702209Q9.3205833,1.31784308,9.1718035,1.2727111899999999Q9.0230236,1.22757928,8.8722086,1.18980205Q8.7213926,1.15202479,8.5689054,1.12169321Q8.4164181,1.091361627,8.2626262,1.068548761Q8.1088347,1.045735903,7.9541092,1.03049673Q7.7993827,1.015257553,7.6440954,1.0076287766Q7.4888077,1,7.3333335,1Q7.1778593,1,7.022572,1.0076287766Q6.8672848,1.015257553,6.7125587,1.03049673Q6.5578322,1.045735903,6.4040403,1.068548761Q6.250248,1.091361627,6.0977612,1.12169321Q5.9452739,1.15202479,5.7944584,1.18980204Q5.6436434,1.22757928,5.4948635,1.2727111899999999Q5.3460836,1.31784308,5.1996975,1.3702209Q5.0533113,1.4225987199999999,4.909671299999999,1.4820962500000001Q4.7660317,1.5415937899999999,4.625484500000001,1.60806781Q4.4849372,1.67454183,4.3478208,1.74783206Q4.2107043,1.82112229,4.0773492000000005,1.9010521200000001Q3.943994,1.98098207,3.8147218,2.0673591Q3.6854494,2.1537360999999997,3.5605712,2.2463522Q3.4356928,2.3389683999999997,3.3155093,2.4376005000000003Q3.1953259,2.5362324999999997,3.0801268,2.6406428Q2.9649276,2.7450532,2.8549904,2.8549904Q2.7450532,2.9649276,2.6406429,3.0801268Q2.5362324999999997,3.1953259,2.4376005000000003,3.3155093Q2.3389683999999997,3.4356928,2.2463523,3.560571Q2.1537360999999997,3.6854494,2.0673591,3.8147218Q1.98098207,3.943994,1.90105218,4.0773492000000005Q1.82112229,4.2107043,1.74783206,4.3478208Q1.67454183,4.4849372,1.60806781,4.625484500000001Q1.5415937899999999,4.7660317,1.4820962500000001,4.909671299999999Q1.4225987199999999,5.0533113,1.3702209,5.1996975Q1.31784308,5.3460836,1.2727111899999999,5.4948635Q1.22757928,5.6436434,1.18980205,5.7944584Q1.15202479,5.9452739,1.12169321,6.0977612Q1.091361627,6.250248,1.068548761,6.4040403Q1.045735903,6.5578322,1.03049673,6.7125587Q1.015257553,6.8672848,1.0076287766,7.022572Q1,7.1778593,1,7.3333335Q1,7.4888077,1.0076287766,7.6440954Q1.015257553,7.7993827,1.03049673,7.9541092Q1.045735903,8.1088352,1.068548761,8.2626266Q1.091361627,8.4164186,1.12169321,8.5689058Q1.15202479,8.7213926,1.18980204,8.8722086Q1.22757928,9.0230236,1.2727111899999999,9.1718035Q1.31784308,9.3205833,1.3702209,9.4669695Q1.4225987199999999,9.6133556,1.4820962500000001,9.7569952Q1.5415937899999999,9.9006348,1.60806781,10.0411816Q1.67454183,10.1817293,1.74783206,10.3188457Q1.82112229,10.4559622,1.9010521200000001,10.5893173Q1.98098207,10.7226715,2.0673591,10.851944Q2.1537360999999997,10.9812164,2.2463522,11.106095Q2.3389683999999997,11.230974,2.4376005000000003,11.351158Q2.5362324999999997,11.471342,2.6406428,11.58654Q2.7450532,11.701739,2.8549904,11.811676Q2.9649276,11.921614,3.0801268,12.026024Q3.1953259,12.130434,3.3155093,12.229066Q3.4356928,12.327698,3.560571,12.420314Q3.6854494,12.512929,3.8147218,12.599306Q3.943994,12.685683,4.0773492000000005,12.765614Q4.2107043,12.845544,4.3478208,12.918835Q4.4849372,12.992125,4.625484500000001,13.058599Q4.7660317,13.125072,4.909671299999999,13.18457Q5.0533113,13.244068,5.1996975,13.296446Q5.3460836,13.348824,5.4948635,13.393955Q5.6436434,13.439087,5.7944584,13.476864Q5.9452739,13.514641,6.0977612,13.544972Q6.250248,13.575304,6.4040403,13.598117Q6.5578322,13.62093,6.7125587,13.63617Q6.8672848,13.651409,7.022572,13.659038Q7.1778593,13.666666,7.3333335,13.666667ZM7.333252,12.333374Q7.4559956,12.333374,7.5785904,12.327351Q7.7011862,12.321329,7.8233385,12.309299Q7.9454899,12.297267,8.0669041,12.279257Q8.1883187,12.261247,8.308703399999999,12.237301Q8.429087599999999,12.213355,8.5481529,12.183531Q8.6672173,12.153707,8.7846756,12.118076Q8.902133,12.082445,9.0177002,12.041094Q9.1332684,11.999743,9.2466688,11.952771Q9.3600683,11.9058,9.4710264,11.85332Q9.5819855,11.800841,9.6902351,11.742981Q9.7984848,11.68512,9.9037647,11.622017Q10.0090456,11.558914,10.1111031,11.490722Q10.2131596,11.422529,10.3117485,11.349411Q10.4103355,11.276293,10.5052185,11.198426Q10.6000996,11.120559,10.6910458,11.03813Q10.781992,10.9556999,10.8687849,10.8689079Q10.9555779,10.7821159,11.038007,10.6911688Q11.120436,10.6002216,11.198304,10.5053406Q11.276171,10.4104576,11.349289,10.3118696Q11.422407,10.2132816,11.490599,10.1112242Q11.558791,10.0091667,11.621893,9.9038868Q11.684996,9.7986069,11.742857,9.6903572Q11.800717,9.5821075,11.853196,9.4711494Q11.905676,9.3601913,11.952648,9.2467909Q11.99962,9.1333914,12.040971,9.0178232Q12.082321,8.902255499999999,12.117952,8.7847977Q12.153584,8.6673393,12.183408,8.548274Q12.213232,8.429209700000001,12.237179,8.308824999999999Q12.261125,8.1884403,12.279135,8.0670261Q12.297145,7.9456115,12.309175,7.8234596Q12.321207,7.7013073,12.327229,7.578712Q12.333252,7.4561167,12.333252,7.333374Q12.333252,7.2106309,12.327229,7.0880356Q12.321207,6.9654403,12.309175,6.8432884Q12.297144,6.7211361,12.279135,6.5997214Q12.261124,6.4783068,12.237178,6.3579221Q12.213232,6.2375374,12.183408,6.1184731Q12.153584,5.9994087,12.117954,5.8819504Q12.082323,5.764493,12.040972,5.6489248Q11.99962,5.5333567,11.952649,5.4199562Q11.905678,5.3065567,11.853198,5.1955981Q11.800719,5.0846395,11.742859,4.9763901Q11.684998,4.8681402,11.621895,4.7628598Q11.558792,4.6575793999999995,11.490599,4.5555224Q11.422407,4.4534655,11.349289,4.354877500000001Q11.276171,4.256289199999999,11.198303,4.1614077Q11.120436,4.0665259,11.038007,3.9755793Q10.9555779,3.8846326,10.8687849,3.7978401Q10.781992,3.7110476,10.6910448,3.6286185Q10.6000986,3.5461893,10.5052176,3.4683218Q10.4103355,3.3904543,10.3117476,3.3173366Q10.2131596,3.2442183,10.1111021,3.1760259Q10.0090446,3.1078334,9.9037647,3.0447309Q9.7984848,2.9816284,9.6902351,2.9237675999999997Q9.5819845,2.8659068000000003,9.4710255,2.8134274Q9.3600674,2.7609478999999997,9.2466679,2.7139761Q9.1332684,2.6670043000000003,9.0177002,2.6256535000000003Q8.902132,2.5843027000000003,8.784675100000001,2.5486723Q8.6672173,2.513042,8.548152,2.4832177Q8.429087599999999,2.4533937,8.308703399999999,2.4294477Q8.1883187,2.4055017000000003,8.0669041,2.3874917Q7.9454899,2.3694813999999997,7.823338,2.3574504999999997Q7.7011862,2.3454194,7.5785909,2.3393967Q7.4559956,2.333374,7.333252,2.333374Q7.2105088,2.333374,7.0879135,2.3393967Q6.9653182,2.3454194,6.8431664,2.3574504999999997Q6.721014,2.3694813,6.5995994,2.3874915000000003Q6.4781847,2.4055016,6.3578,2.4294475Q6.2374153,2.4533935,6.118351,2.4832177Q5.9992862,2.5130419,5.8818283,2.5486723Q5.76437,2.5843027000000003,5.6488018,2.6256535000000003Q5.5332341,2.6670043000000003,5.4198341,2.7139761Q5.3064346,2.7609478999999997,5.1954761,2.8134273Q5.0845175,2.8659068000000003,4.9762681,2.9237675999999997Q4.8680182,2.9816282000000003,4.7627378,3.0447307Q4.6574574,3.1078334,4.5554004,3.1760256Q4.4533432,3.2442181,4.3547549,3.3173363Q4.2561669,3.3904543,4.161285400000001,3.4683218Q4.0664036,3.5461893,3.9754572,3.6286185Q3.8845105,3.7110476,3.797718,3.7978399Q3.7109256,3.8846326,3.6284962,3.9755793Q3.546067,4.0665257,3.4681997,4.1614075Q3.3903322,4.256289000000001,3.3172143,4.3548772Q3.2440963,4.4534655,3.1759038,4.5555224Q3.1077113,4.6575793999999995,3.0446088,4.7628598Q2.9815063,4.8681402,2.9236456,4.9763901Q2.8657849,5.0846395,2.8133054,5.1955981Q2.7608259,5.3065567,2.7138541,5.4199562Q2.6668823,5.5333567,2.6255314,5.6489248Q2.5841806,5.764493,2.5485501,5.8819504Q2.5129197000000003,5.9994087,2.4830955,6.1184731Q2.4532714,6.2375374,2.4293255,6.3579221Q2.4053794,6.4783068,2.3873693,6.5997214Q2.3693591,6.7211361,2.3573283,6.8432884Q2.3452973,6.9654403,2.3392746,7.0880356Q2.333252,7.2106309,2.333252,7.333374Q2.333252,7.4561167,2.3392746,7.5787125Q2.3452973,7.7013073,2.3573283,7.8234596Q2.3693591,7.9456115,2.3873693,8.0670261Q2.4053794,8.1884403,2.4293255,8.308824999999999Q2.4532714,8.429209700000001,2.4830955,8.5482745Q2.5129197000000003,8.6673388,2.5485501,8.784796700000001Q2.5841806,8.9022546,2.6255314,9.0178223Q2.6668823,9.1333904,2.7138541,9.2467899Q2.7608259,9.3601894,2.8133054,9.4711485Q2.8657848,9.5821075,2.9236455,9.6903572Q2.9815062,9.7986069,3.0446088,9.9038868Q3.1077113,10.0091667,3.1759036,10.1112242Q3.244096,10.2132816,3.317214,10.3118696Q3.3903322,10.4104576,3.4681997,10.5053406Q3.5460668,10.6002216,3.6284962,10.6911688Q3.7109251,10.7821159,3.7977178,10.8689079Q3.88451,10.9556999,3.9754567,11.03813Q4.0664034000000004,11.120559,4.1612852,11.198426Q4.2561669,11.276293,4.3547549,11.349411Q4.4533432,11.422529,4.5554004,11.490722Q4.6574574,11.558914,4.7627378,11.622017Q4.8680182,11.68512,4.9762678000000005,11.742981Q5.0845175,11.800841,5.1954756,11.853321Q5.3064346,11.9058,5.4198341,11.952771Q5.5332341,11.999743,5.6488023,12.041094Q5.76437,12.082445,5.8818283,12.118077Q5.9992862,12.153708,6.118351,12.183531Q6.2374153,12.213355,6.3578,12.237301Q6.4781847,12.261247,6.5995994,12.279257Q6.721014,12.297266,6.8431664,12.309298Q6.9653182,12.321328,7.0879135,12.327351Q7.2105088,12.333374,7.333252,12.333374Z" fill-rule="evenodd" fill="#8A8A91" fill-opacity="1"/></g><g><path d="M11.443133558300781,11.443186964375C11.703483078300781,11.182837411375,12.12559306830078,11.182837411375,12.385942658300781,11.443186964375L14.55009725830078,13.607341734375C14.810447258300782,13.867691534375,14.810447258300782,14.289801334375,14.55009725830078,14.550150634375001C14.289747958300781,14.810500634375,13.867638158300782,14.810500634375,13.607288358300782,14.550150634375001L11.443133558300781,12.385996134375C11.182784006300782,12.125646474375,11.182784006300782,11.703536484375,11.443133558300781,11.443186964375Z" fill="#8A8A91" fill-opacity="1"/></g></g></svg>