<svg xmlns="http://www.w3.org/2000/svg" xmlns:xlink="http://www.w3.org/1999/xlink" fill="none" version="1.1" width="12" height="12" viewBox="0 0 12 12"><g><g><g><path d="M3.9680574,1L2.7819427,1C2.3000518999999997,1,2.0433182,1.04957759,1.7757777,1.1926597700000001C1.52568054,1.3264132100000001,1.3264132100000001,1.52568054,1.1926597700000001,1.7757777C1.04957759,2.0433182,1,2.3000518999999997,1,2.7819427L1,3.9680574C1,4.4499481,1.04957759,4.706682,1.1926597700000001,4.9742222C1.3264132100000001,5.2243195,1.52568054,5.4235868,1.7757777,5.5573401C2.0433182,5.7004223,2.3000518999999997,5.75,2.7819427,5.75L3.9680574,5.75C4.4499481,5.75,4.706682,5.7004223,4.9742222,5.5573401C5.2243195,5.4235868,5.4235868,5.2243195,5.5573401,4.9742222C5.7004223,4.706682,5.75,4.4499481,5.75,3.9680574L5.75,2.7819427C5.75,2.3000518999999997,5.7004223,2.0433182,5.5573401,1.7757777C5.4235868,1.52568054,5.2243195,1.3264132100000001,4.9742222,1.1926597700000001C4.706682,1.04957759,4.4499481,1,3.9680574,1ZM2.2473766,2.0744729C2.3502403000000003,2.0194608,2.4510167000000003,2,2.7819426,2L3.9680574,2C4.2989833,2,4.3997598,2.0194608,4.5026233,2.0744729C4.5784521,2.1150266,4.6349733,2.1715479,4.6755271,2.2473766C4.7305391,2.3502403000000003,4.75,2.4510167000000003,4.75,2.7819426L4.75,3.9680574C4.75,4.2989833,4.7305391,4.3997598,4.6755271,4.5026233C4.6349733,4.5784521,4.5784521,4.6349733,4.5026233,4.6755271C4.3997598,4.7305391,4.2989833,4.75,3.9680574,4.75L2.7819426,4.75C2.4510167000000003,4.75,2.3502403000000003,4.7305391,2.2473766,4.6755271C2.1715479,4.6349733,2.1150266,4.5784521,2.0744729,4.5026233C2.022899,4.4061886999999995,2.0025715,4.3115888,2.000232,4.0274656L2,2.7819426C2,2.4510167000000003,2.0194608,2.3502403000000003,2.0744729,2.2473766C2.1150266,2.1715479,2.1715479,2.1150266,2.2473766,2.0744729Z" fill-rule="evenodd" fill="#8A8A91" fill-opacity="1"/></g><g><path d="M3.9680574,6.25L2.7819427,6.25C2.3000518999999997,6.25,2.0433182,6.29957759,1.7757777,6.44265977C1.52568054,6.57641321,1.3264132100000001,6.77568054,1.1926597700000001,7.0257777C1.04957759,7.2933182,1,7.5500519,1,8.0319427L1,9.2180574C1,9.6999481,1.04957759,9.956682,1.1926597700000001,10.2242222C1.3264132100000001,10.4743195,1.52568054,10.673586799999999,1.7757777,10.807340100000001C2.0433182,10.9504223,2.3000518999999997,11,2.7819427,11L3.9680574,11C4.4499481,11,4.706682,10.9504223,4.9742222,10.807340100000001C5.2243195,10.673586799999999,5.4235868,10.4743195,5.5573401,10.2242222C5.7004223,9.956682,5.75,9.6999481,5.75,9.2180574L5.75,8.0319427C5.75,7.5500519,5.7004223,7.2933182,5.5573401,7.0257777C5.4235868,6.77568054,5.2243195,6.57641321,4.9742222,6.44265977C4.706682,6.29957759,4.4499481,6.25,3.9680574,6.25ZM2.2473766,7.3244729C2.3502403000000003,7.2694608,2.4510167000000003,7.25,2.7819426,7.25L3.9680574,7.25C4.2989833,7.25,4.3997598,7.2694608,4.5026233,7.3244729C4.5784521,7.3650266,4.6349733,7.4215479,4.6755271,7.4973766C4.7305391,7.6002403,4.75,7.7010167,4.75,8.0319426L4.75,9.2180574C4.75,9.5489833,4.7305391,9.6497598,4.6755271,9.7526233C4.6349733,9.8284521,4.5784521,9.8849733,4.5026233,9.9255271C4.3997598,9.9805391,4.2989833,10,3.9680574,10L2.7819426,10C2.4510167000000003,10,2.3502403000000003,9.9805391,2.2473766,9.9255271C2.1715479,9.8849733,2.1150266,9.8284521,2.0744729,9.7526233C2.022899,9.6561887,2.0025715,9.561588799999999,2.000232,9.2774656L2,8.0319426C2,7.7010167,2.0194608,7.6002403,2.0744729,7.4973766C2.1150266,7.4215479,2.1715479,7.3650266,2.2473766,7.3244729Z" fill-rule="evenodd" fill="#8A8A91" fill-opacity="1"/></g><g><path d="M8.625,5.75Q8.7416763,5.75,8.857790699999999,5.738564Q8.9739051,5.7271276,9.0883393,5.7043648Q9.202774,5.6816025,9.3144262,5.6477337Q9.4260783,5.6138639,9.533872800000001,5.5692139Q9.6416678,5.5245638,9.7445672,5.4695635Q9.8474665,5.4145622,9.944479,5.34974Q10.041492,5.2849188,10.1316838,5.2108998Q10.2218761,5.1368814,10.3043785,5.0543785Q10.3868814,4.971876099999999,10.460900299999999,4.8816841Q10.5349188,4.791492,10.59974,4.694478999999999Q10.664562199999999,4.5974664999999995,10.719563,4.4945672000000005Q10.7745638,4.3916678000000005,10.819213900000001,4.2838728Q10.8638639,4.1760783,10.8977337,4.0644262Q10.9316025,3.952774,10.9543648,3.8383393Q10.9771276,3.7239051,10.9885635,3.6077909Q11,3.4916763,11,3.375Q11,3.2583237,10.988564,3.1422093Q10.9771276,3.0260949,10.9543648,2.9116603999999997Q10.9316025,2.7972262,10.8977337,2.6855738000000002Q10.8638639,2.5739217,10.819213900000001,2.4661268Q10.7745638,2.358332,10.7195635,2.2554327Q10.664562199999999,2.1525335,10.59974,2.0555206999999998Q10.5349188,1.9585078999999999,10.4608998,1.86831594Q10.3868814,1.77812397,10.3043785,1.69562137Q10.2218761,1.61311883,10.131684100000001,1.53910017Q10.041492,1.46508154,9.944479,1.40025964Q9.8474665,1.3354378,9.7445672,1.28043699Q9.6416678,1.22543618,9.533872800000001,1.18078609Q9.4260783,1.13613603,9.3144262,1.1022667Q9.202774,1.068397366,9.0883393,1.045634951Q8.9739051,1.022872547,8.8577909,1.011436273Q8.7416763,1,8.625,1Q8.5083237,1,8.392209300000001,1.011436273Q8.2760949,1.022872547,8.1616604,1.045634951Q8.0472262,1.068397366,7.9355738,1.1022667Q7.8239217,1.13613603,7.7161268,1.18078609Q7.608332,1.22543618,7.5054327,1.28043699Q7.4025335000000005,1.3354378,7.3055207,1.40025964Q7.2085079,1.46508154,7.1183159400000005,1.53910017Q7.02812397,1.61311883,6.94562137,1.69562137Q6.86311883,1.77812397,6.78910017,1.86831594Q6.71508154,1.9585078999999999,6.65025964,2.0555206999999998Q6.5854378,2.1525334000000003,6.53043699,2.2554326Q6.47543618,2.3583319,6.43078609,2.4661267000000002Q6.38613603,2.5739216000000003,6.3522667,2.6855738000000002Q6.318397366,2.7972261,6.295634951,2.9116603999999997Q6.272872547,3.0260949,6.261436273,3.1422093Q6.25,3.2583237,6.25,3.375Q6.25,3.4916763,6.261436273,3.6077907Q6.272872547,3.7239051,6.295634951,3.8383393Q6.318397366,3.952774,6.3522667,4.0644262Q6.38613603,4.1760783,6.43078609,4.2838728Q6.47543618,4.3916678000000005,6.53043699,4.4945672000000005Q6.5854378,4.5974664999999995,6.65025964,4.694478999999999Q6.71508154,4.791492,6.78910017,4.881683799999999Q6.86311883,4.971876099999999,6.94562137,5.0543785Q7.02812397,5.1368814,7.1183159400000005,5.2109003Q7.2085079,5.2849188,7.3055207,5.34974Q7.4025334,5.4145622,7.5054326,5.469563Q7.6083319,5.5245638,7.7161267,5.5692139Q7.8239216,5.6138639,7.9355738,5.6477337Q8.0472261,5.6816025,8.1616604,5.7043648Q8.2760949,5.7271276,8.392209300000001,5.7385635Q8.5083237,5.75,8.625,5.75ZM8.625,4.75Q8.6925495,4.75,8.7597737,4.7433791Q8.826997800000001,4.736758,8.893249,4.7235794Q8.9595008,4.7104015,9.0241413,4.6907928000000005Q9.0887821,4.6711841,9.1511893,4.6453337999999995Q9.2135968,4.6194839000000005,9.2731702,4.5876415Q9.3327434,4.5557988,9.3889086,4.518269999999999Q9.4450741,4.480741999999999,9.4972906,4.4378891Q9.5495069,4.3950362,9.5972714,4.3472714Q9.6450362,4.2995069,9.6878891,4.2472905999999995Q9.730742,4.195074099999999,9.768270300000001,4.138908600000001Q9.805799,4.0827434,9.8376415,4.0231702Q9.8694839,3.9635968,9.8953338,3.9011893Q9.9211841,3.8387821,9.940793,3.7741413Q9.9604015,3.7095008,9.9735794,3.643249Q9.986758,3.5769978,9.9933791,3.5097737Q10,3.4425495,10,3.375Q10,3.3074508,9.9933791,3.2402265Q9.986758,3.1730022,9.9735794,3.1067505Q9.9604015,3.0404992,9.9407928,2.9758584Q9.9211841,2.9112177,9.8953338,2.8488100999999997Q9.8694839,2.7864027,9.8376415,2.7268293Q9.8057988,2.6672561,9.76827,2.6110907Q9.730742,2.5549254,9.6878891,2.5027092Q9.6450362,2.4504929,9.5972714,2.4027281Q9.5495069,2.3549635,9.4972906,2.3121107Q9.4450741,2.2692578,9.3889086,2.2317291Q9.3327434,2.1942008,9.2731702,2.1623583Q9.2135968,2.1305156,9.1511893,2.1046655000000003Q9.0887821,2.0788156,9.0241413,2.059207Q8.9595008,2.0395985000000003,8.893249,2.0264201Q8.826997800000001,2.013242,8.7597737,2.0066211000000003Q8.6925495,2,8.625,2Q8.5574508,2,8.4902265,2.0066211000000003Q8.423002199999999,2.013242,8.3567505,2.0264202Q8.2904992,2.0395985000000003,8.2258584,2.0592071Q8.1612177,2.0788156,8.0988101,2.1046655000000003Q8.0364027,2.1305156,7.9768293,2.1623583Q7.9172560999999995,2.1942009000000002,7.8610907,2.2317293Q7.8049254,2.2692578,7.7527092,2.3121107Q7.7004929,2.3549635,7.6527281,2.4027281Q7.6049635,2.4504929,7.5621107,2.5027093000000002Q7.5192578,2.5549256,7.4817291,2.6110908Q7.4442008,2.6672561,7.4123583,2.7268295Q7.3805156,2.7864027,7.3546655,2.8488100999999997Q7.3288155,2.9112177,7.309207,2.9758584Q7.2895985,3.0404992,7.2764201,3.1067505Q7.263242,3.1730022,7.256621,3.2402263Q7.25,3.3074508,7.25,3.375Q7.25,3.4425495,7.256621,3.5097737Q7.263242,3.5769978,7.2764201,3.643249Q7.2895985,3.7095008,7.309207,3.7741413Q7.3288155,3.8387821,7.3546655,3.9011893Q7.3805156,3.9635968,7.4123583,4.0231702Q7.4442009,4.0827434,7.4817293,4.138908600000001Q7.5192578,4.195074099999999,7.5621107,4.2472905999999995Q7.6049635,4.2995069,7.6527281,4.3472714Q7.7004929,4.3950362,7.7527093,4.4378891Q7.8049256,4.480741999999999,7.8610907999999995,4.5182703Q7.9172560999999995,4.555799,7.9768295,4.5876415Q8.0364027,4.6194839000000005,8.0988101,4.6453337999999995Q8.1612177,4.6711841,8.2258584,4.690793Q8.2904992,4.7104015,8.3567505,4.7235794Q8.423002199999999,4.736758,8.4902263,4.7433791Q8.5574508,4.75,8.625,4.75Z" fill-rule="evenodd" fill="#8A8A91" fill-opacity="1"/></g><g><path d="M9.2180574,6.25L8.0319427,6.25C7.5500519,6.25,7.2933182,6.29957759,7.0257777,6.44265977C6.77568054,6.57641321,6.57641321,6.77568054,6.44265977,7.0257777C6.29957759,7.2933182,6.25,7.5500519,6.25,8.0319427L6.25,9.2180574C6.25,9.6999481,6.29957759,9.956682,6.44265977,10.2242222C6.57641321,10.4743195,6.77568054,10.673586799999999,7.0257777,10.807340100000001C7.2933182,10.9504223,7.5500519,11,8.0319427,11L9.2180574,11C9.6999481,11,9.956682,10.9504223,10.2242222,10.807340100000001C10.4743195,10.673586799999999,10.673586799999999,10.4743195,10.807340100000001,10.2242222C10.9504223,9.956682,11,9.6999481,11,9.2180574L11,8.0319427C11,7.5500519,10.9504223,7.2933182,10.807340100000001,7.0257777C10.673586799999999,6.77568054,10.4743195,6.57641321,10.2242222,6.44265977C9.956682,6.29957759,9.6999481,6.25,9.2180574,6.25ZM7.4973766,7.3244729C7.6002403,7.2694608,7.7010167,7.25,8.0319426,7.25L9.2180574,7.25C9.5489833,7.25,9.6497598,7.2694608,9.7526233,7.3244729C9.8284521,7.3650266,9.8849733,7.4215479,9.9255271,7.4973766C9.9805391,7.6002403,10,7.7010167,10,8.0319426L10,9.2180574C10,9.5489833,9.9805391,9.6497598,9.9255271,9.7526233C9.8849733,9.8284521,9.8284521,9.8849733,9.7526233,9.9255271C9.6497598,9.9805391,9.5489833,10,9.2180574,10L8.0319426,10C7.7010167,10,7.6002403,9.9805391,7.4973766,9.9255271C7.4215479,9.8849733,7.3650266,9.8284521,7.3244729,9.7526233C7.272899,9.6561887,7.2525715,9.561588799999999,7.2502320000000005,9.2774656L7.25,8.0319426C7.25,7.7010167,7.2694608,7.6002403,7.3244729,7.4973766C7.3650266,7.4215479,7.4215479,7.3650266,7.4973766,7.3244729Z" fill-rule="evenodd" fill="#8A8A91" fill-opacity="1"/></g></g></g></svg>