<svg xmlns="http://www.w3.org/2000/svg" xmlns:xlink="http://www.w3.org/1999/xlink" fill="none" version="1.1" width="12" height="12" viewBox="0 0 12 12"><g><g><g><g><path d="M5.986538887023926,7.542364125952148Q6.097074487023926,7.542364125952148,6.207077787023926,7.531529925952149Q6.3170806870239264,7.520695725952148,6.425492087023926,7.499130725952148Q6.533903587023926,7.4775667259521486,6.639679387023926,7.445479825952148Q6.745455287023926,7.413393025952148,6.847576387023926,7.371092825952148Q6.949697987023926,7.3287925259521485,7.047181587023926,7.2766866259521485Q7.144665287023926,7.224580725952149,7.236571787023926,7.163170325952149Q7.328478787023926,7.101760425952149,7.413923787023926,7.031637625952149Q7.499368687023926,6.961514425952148,7.577528987023926,6.883354225952148Q7.655689287023925,6.805193925952148,7.725812187023926,6.719748925952148Q7.795935187023926,6.634304025952149,7.857345087023925,6.5423968259521486Q7.918755487023926,6.450490025952148,7.970861387023926,6.3530066259521485Q8.022967387023925,6.255522925952148,8.065267587023925,6.1534013259521485Q8.107567787023925,6.051280225952148,8.139654587023927,5.945504425952148Q8.171741487023926,5.8397288259521485,8.193305987023926,5.731317025952149Q8.214870487023926,5.622905725952148,8.225704687023926,5.512902725952149Q8.236538887023926,5.402899725952148,8.236538887023926,5.292364125952148Q8.236538887023926,5.1818287259521485,8.225704687023926,5.071825525952148Q8.214870487023926,4.961822525952148,8.193305487023926,4.853410925952149Q8.171741487023926,4.7449995259521485,8.139654587023927,4.6392237259521485Q8.107567787023925,4.533447725952149,8.065267587023925,4.431326225952148Q8.022967387023925,4.329205025952149,7.970861387023926,4.2317214259521485Q7.918755487023926,4.134238025952149,7.857345087023925,4.042331035952149Q7.795935187023926,3.9504241959521487,7.725811987023926,3.8649791459521485Q7.655689287023925,3.7795341659521484,7.577528987023926,3.7013738159521483Q7.499368687023926,3.6232135259521483,7.413923787023926,3.5530906359521484Q7.328478787023926,3.4829677059521487,7.236571787023926,3.4215574859521483Q7.144665287023926,3.3601472959521486,7.047181387023926,3.3080412759521485Q6.949697987023926,3.2559352259521486,6.847576187023925,3.2136351359521482Q6.745454987023926,3.1713350759521486,6.639679387023926,3.1392483489521483Q6.533903587023926,3.1071616109521485,6.425491787023926,3.0855972279521486Q6.317080487023926,3.0640328469521485,6.207077487023925,3.0531984829521486Q6.097074487023926,3.0423641204821483,5.986538887023926,3.0423641204821483Q5.876003787023926,3.0423641204821483,5.766000287023926,3.0531984849521483Q5.655997287023926,3.0640328489521482,5.547585587023926,3.0855972319521485Q5.439174187023926,3.1071616189521483,5.333398487023926,3.1392483559521485Q5.227622787023925,3.1713350859521485,5.125501187023926,3.2136351459521486Q5.023379787023925,3.2559352259521486,4.925896287023926,3.3080412759521485Q4.828412687023926,3.3601472959521486,4.736505747023926,3.4215574559521484Q4.644598957023926,3.4829676759521484,4.5591539170239255,3.5530906359521484Q4.473708987023926,3.6232135259521483,4.395548587023926,3.7013738159521483Q4.317388297023926,3.7795341659521484,4.247265397023925,3.8649792059521486Q4.177142437023925,3.9504241959521487,4.115732197023926,4.042331035952149Q4.054322067023926,4.134238025952149,4.002216007023926,4.2317214259521485Q3.950109987023926,4.329205025952149,3.9078099170239255,4.431326225952148Q3.865509857023926,4.533447725952149,3.833423123023926,4.639223525952149Q3.801336393023926,4.744999425952148,3.7797719990239256,4.853410825952149Q3.7582076150239256,4.961822425952148,3.7473732510239257,5.071825525952148Q3.736538887023926,5.1818287259521485,3.736538887023926,5.292364125952148Q3.736538887023926,5.402899725952148,3.7473732510239257,5.512902725952149Q3.7582076150239256,5.622905725952148,3.7797719990239256,5.731317025952149Q3.801336393023926,5.8397288259521485,3.833423123023926,5.9455046259521485Q3.865509857023926,6.051280225952148,3.9078099170239255,6.1534013259521485Q3.950109987023926,6.255522725952149,4.002216037023926,6.3530063259521485Q4.054322067023926,6.450490025952148,4.115732227023925,6.542396525952149Q4.177142437023925,6.634303525952149,4.247265337023926,6.719748725952148Q4.317388297023926,6.805193925952148,4.395548587023926,6.883353925952148Q4.473708987023926,6.961514425952148,4.5591539170239255,7.031637425952148Q4.644598957023926,7.101760425952149,4.736505747023926,7.163170325952149Q4.828412487023925,7.224580725952149,4.925896187023926,7.2766866259521485Q5.023379687023926,7.3287925259521485,5.125500987023926,7.371092325952149Q5.227622487023925,7.413393025952148,5.333398487023926,7.445479425952149Q5.439174187023926,7.477566225952148,5.547585587023926,7.499130225952149Q5.655997287023926,7.5206952259521485,5.766000487023925,7.531529925952149Q5.876003787023926,7.542364125952148,5.986538887023926,7.542364125952148ZM5.986538887023926,6.542364125952148Q6.047947387023926,6.542364125952148,6.109060287023926,6.536345225952148Q6.170173187023925,6.530325925952148,6.230401487023926,6.518345325952149Q6.290630387023926,6.506365325952149,6.349394587023926,6.4885394259521485Q6.408158787023925,6.470713425952148,6.464892887023925,6.447213125952148Q6.521627187023926,6.423713225952149,6.575784687023926,6.394765425952148Q6.629942387023926,6.365817825952148,6.681001387023926,6.331700825952149Q6.732060887023925,6.2975843259521485,6.779530487023926,6.258627225952148Q6.826999687023926,6.219669825952149,6.870422087023925,6.176247325952149Q6.913844587023926,6.132824925952148,6.952801687023926,6.085355525952148Q6.991758787023926,6.037886125952149,7.025875287023926,5.9868266259521485Q7.059992287023926,5.935767625952149,7.088940187023926,5.8816101259521485Q7.117887987023925,5.827452425952148,7.141387987023926,5.770718125952149Q7.164888387023925,5.713984025952149,7.182714187023926,5.655219525952148Q7.200540087023926,5.596455525952148,7.212520087023925,5.536226725952148Q7.224500687023926,5.475998425952149,7.230519787023926,5.4148855259521484Q7.236538887023926,5.353772625952148,7.236538887023926,5.292364125952148Q7.236538887023926,5.230955625952149,7.230519487023926,5.169842725952148Q7.224500687023926,5.108729825952148,7.212520087023925,5.048501025952149Q7.200540087023926,4.988272525952149,7.182713987023925,4.929508225952149Q7.164887887023926,4.870744025952148,7.141387687023926,4.814009625952148Q7.117887987023925,4.757275625952149,7.088940187023926,4.703118125952148Q7.059992287023926,4.6489606259521485,7.025875587023926,4.5979011259521485Q6.991758787023926,4.546841825952148,6.952801687023926,4.499372525952149Q6.913844587023926,4.451903025952149,6.870422087023925,4.4084805259521485Q6.826999687023926,4.365058225952149,6.779530487023926,4.326100925952148Q6.732060887023925,4.2871437259521485,6.681001387023926,4.253026925952149Q6.629942387023926,4.218910225952149,6.575784687023926,4.189962525952149Q6.521627187023926,4.161014825952148,6.464892887023925,4.137514625952148Q6.408158787023925,4.114014625952148,6.349394587023926,4.096188825952148Q6.290630387023926,4.078362825952149,6.230401487023926,4.066382525952148Q6.170173187023925,4.0544023259521484,6.109060287023926,4.048383225952149Q6.047947387023926,4.042364115952148,5.986538887023926,4.042364115952148Q5.925130387023925,4.042364115952148,5.864017487023926,4.048383225952149Q5.802904587023926,4.0544023259521484,5.742675987023926,4.066382425952148Q5.682447387023926,4.078362725952148,5.623683087023926,4.0961886259521485Q5.564918787023926,4.114014625952148,5.508184387023926,4.137514625952148Q5.451450387023925,4.161014825952148,5.397292887023926,4.189962525952149Q5.343135387023926,4.218910225952149,5.292075887023926,4.253026925952149Q5.241016587023926,4.2871437259521485,5.1935470870239255,4.326101025952148Q5.146077787023926,4.365058225952149,5.102655287023926,4.4084805259521485Q5.059232787023926,4.451903025952149,5.020275587023926,4.499372525952149Q4.981318487023926,4.546841825952148,4.947201587023926,4.5979011259521485Q4.913084987023925,4.6489606259521485,4.884137187023926,4.703118125952148Q4.855189287023926,4.757275625952149,4.831689387023926,4.814009625952148Q4.808189387023926,4.870744025952148,4.790363287023926,4.929508225952149Q4.772537487023926,4.988272525952149,4.760557187023926,5.048501025952149Q4.748576987023926,5.108729825952148,4.742557987023925,5.169842725952148Q4.736538887023926,5.230955625952149,4.736538887023926,5.292364125952148Q4.736538887023926,5.353772625952148,4.742557987023925,5.4148855259521484Q4.748576987023926,5.475998425952149,4.760557187023926,5.536226725952148Q4.772537487023926,5.596455525952148,4.790363287023926,5.655219825952148Q4.808189387023926,5.713984025952149,4.831689387023926,5.770718125952149Q4.855189287023926,5.827452425952148,4.884137187023926,5.881609925952148Q4.913084987023925,5.935767625952149,4.947201587023926,5.9868266259521485Q4.981318487023926,6.037886125952149,5.020275587023926,6.085355525952148Q5.059232787023926,6.132824925952148,5.102655287023926,6.176247325952149Q5.146077787023926,6.219669825952149,5.193547287023926,6.258626925952148Q5.241016587023926,6.2975843259521485,5.292075887023926,6.331700825952149Q5.343135387023926,6.365817825952148,5.397292887023926,6.394765625952148Q5.451450387023925,6.423713225952149,5.508184387023926,6.447213125952148Q5.564918787023926,6.470713425952148,5.623682987023926,6.4885394259521485Q5.682447287023926,6.506365525952148,5.742675787023925,6.518345625952149Q5.802904587023926,6.530326125952149,5.864017487023926,6.536345225952148Q5.925130387023925,6.542364125952148,5.986538887023926,6.542364125952148Z" fill-rule="evenodd" fill="#8A8A91" fill-opacity="1"/></g></g><g><path d="M9.464450442726136,1.9093904960464478C7.585264342726135,0.030203996046447745,4.538500942726135,0.030203996046447745,2.659314142726135,1.9093904960464478C0.7801277027261353,3.7885771960464476,0.7801277027261353,6.835340596046448,2.659314142726135,8.714526796046448L4.862666442726136,10.917342596046447C5.127493942726135,11.176097596046448,5.317096842726135,11.312713596046448,5.534911742726135,11.398045596046448L5.602556842726135,11.422501596046448L5.648247342726135,11.437284596046448C5.922281842726135,11.520373596046447,6.201482442726135,11.520373596046447,6.470357542726135,11.438879596046448C6.497034142726135,11.430793596046447,6.522613642726135,11.422412596046447,6.547897442726136,11.413374596046447L6.6159998427261355,11.386901596046448C6.8445307427261355,11.288876596046448,7.036767642726136,11.142210596046448,7.308844242726135,10.870132596046448L9.464450442726136,8.714526796046448C11.343638442726135,6.835340596046448,11.343638442726135,3.7885771960464476,9.464450442726136,1.9093904960464478ZM3.366426342726135,2.616497196046448C4.855088342726136,1.1278350360464477,7.268686842726135,1.1278350360464477,8.757349142726135,2.616497196046448C10.246011342726135,4.105159396046448,10.246011342726135,6.518757496046447,8.757349142726135,8.007419696046448L6.601742342726135,10.163027396046449C6.411394242726136,10.353374096046448,6.311540242726135,10.429557396046448,6.235760342726135,10.462156896046448L6.198189342726136,10.476462996046449L6.188552942726135,10.479339196046448C6.186038642726135,10.480116496046447,6.183214342726135,10.480988096046447,6.1802975427261355,10.481872196046448C6.1005512427261355,10.506042596046449,6.023224442726136,10.506042596046449,5.943477742726135,10.481872196046448L5.921330142726135,10.474867496046448L5.885877242726135,10.461771596046448C5.825870142726135,10.438028896046447,5.738756742726135,10.375259996046447,5.565579542726136,10.206084896046448L3.366383242726135,8.007377296046448C1.8777641027261351,6.518757496046447,1.8777641027261351,4.105159396046448,3.366426342726135,2.616497196046448Z" fill-rule="evenodd" fill="#8A8A91" fill-opacity="1"/></g></g></g></svg>