<svg xmlns="http://www.w3.org/2000/svg" xmlns:xlink="http://www.w3.org/1999/xlink" fill="none" version="1.1" width="16" height="16" viewBox="0 0 16 16"><g><g><path d="M13.414641,4.333942420169068L11.9992666,2.9185819601690675C11.1237736,2.0430975601690675,9.704328499999999,2.0430975601690675,8.8288355,2.9185819601690675C8.7193971,3.0280190701690675,8.7193971,3.2054526801690675,8.828835,3.3148898201690673L13.018344,7.5043556201690675C13.127779,7.6137898201690675,13.305206,7.6137898201690675,13.414642,7.504356120169067C14.290133,6.628873120169067,14.290133,5.209425220169067,13.414641,4.333942420169068ZM11.1447363,7.511623120169068L8.821676700000001,5.188586720169067C8.4256606,4.792574920169067,8.2223744,4.590894020169067,7.9935341,4.518301720169067C7.7965617,4.455818620169067,7.5840611,4.455818620169067,7.3870888,4.518301720169067C7.1582484,4.590894020169067,6.9549623,4.792575120169067,6.5589461,5.188586920169067L2.70715845,9.040335920169067C2.47213089,9.275360820169068,2.32556549,9.584399020169068,2.2922874699999998,9.915104620169068L2.0072414996,12.747796220169068C1.997586167,12.843747220169067,1.997586167,12.940425220169068,2.0072414996,13.036377220169067C2.08693181,13.828313220169067,2.79353064,14.405702220169067,3.585474,14.326013220169067L6.4181943,14.040969220169067C6.7489033,14.007691220169068,7.0579443,13.861128220169068,7.2929716,13.626102220169068L11.1447372,9.774376620169068C11.54076,9.378357620169067,11.7424469,9.175069620169069,11.8150406,8.946226320169067C11.8775253,8.749251620169067,11.8775253,8.536748220169066,11.8150406,8.339773420169067C11.7424469,8.110930220169067,11.54076,7.907642620169067,11.1447363,7.511623120169068Z" fill-rule="evenodd" fill="#FFFFFF" fill-opacity="1"/></g></g></svg>