<svg xmlns="http://www.w3.org/2000/svg" xmlns:xlink="http://www.w3.org/1999/xlink" fill="none" version="1.1" width="16" height="16" viewBox="0 0 16 16"><g><g><g><path d="M15.00018310546875,5.3329672890625C15.00018310546875,4.0443027890625,13.95551610546875,2.9996337890625,12.66685010546875,2.9996337890625L3.33351660546875,2.9996337890625C2.04485210546875,2.9996337890625,1.00018310546875,4.0443027890625,1.00018310546875,5.3329672890625L1.00191211826875,5.4232449890625C1.02950373146875,6.1427268890625,1.3855812554687499,6.7940947890625,1.94470089546875,7.2083530890625L2.00018310546875,7.2476343890625L2.00018310546875,10.9144281890625C2.00018310546875,12.0988530890625,2.1123122054687498,12.6795043890625,2.43515150546875,13.2831607890625C2.72969410546875,13.8339077890625,3.16590950546875,14.2701247890625,3.71665640546875,14.5646657890625C4.32031320546875,14.8875047890625,4.90096470546875,14.9996337890625,6.08536430546875,14.9996337890625L9.91500280546875,14.9996337890625C11.09940210546875,14.9996337890625,11.68005410546875,14.8875047890625,12.28371010546875,14.5646657890625C12.83445710546875,14.2701247890625,13.27067410546875,13.8339077890625,13.56521510546875,13.2831607890625L13.60022310546875,13.2161497890625C13.89620810546875,12.6356649890625,14.00018310546875,12.0549869890625,14.00018310546875,10.914453489062499L14.00018310546875,7.2476343890625L14.05599210546875,7.2081117890625C14.63822410546875,6.7765729890625,15.00018310546875,6.0878874890625,15.00018310546875,5.3329672890625ZM3.33319090546875,4.3336181890625L12.66652510546875,4.3336181890625C13.21880910546875,4.3336181890625,13.66652510546875,4.7813334890625,13.66652510546875,5.3336181890625C13.66652510546875,5.735065889062501,13.42800010546875,6.092607289062499,13.06638210546875,6.2506556890625C12.82361210546875,6.3567599890625,12.66671410546875,6.5965523890625,12.66670210546875,6.8614968890625L12.66652510546875,10.915076289062501C12.66652510546875,11.8982181890625,12.59455110546875,12.2709264890625,12.38913910546875,12.6550139890625C12.21886210546875,12.9734029890625,11.97297510546875,13.2192907890625,11.65458710546875,13.3895667890625C11.27049810546875,13.5949787890625,10.89779090546875,13.6669517890625,9.91467760546875,13.6669517890625L6.08503820546875,13.6669517890625C5.10192580546875,13.6669517890625,4.72921700546875,13.5949787890625,4.3451295054687495,13.3895667890625C4.02674030546875,13.2192907890625,3.78085300546875,12.9734029890625,3.61057660546875,12.6550139890625C3.41306470546875,12.2856978890625,3.33892460546875,11.9269046890625,3.33351370546875,11.0258674890625L3.33334470546875,6.8616962890625C3.33335470546875,6.5966791890625,3.17639020546875,6.356822689062501,2.9335304054687503,6.2507419890625C2.57180730546875,6.0927419890625,2.33319090546875,5.7351436890625,2.33319090546875,5.3336181890625C2.33319090546875,4.7813334890625,2.78090620546875,4.3336181890625,3.33319090546875,4.3336181890625Z" fill-rule="evenodd" fill="#0C0C0D" fill-opacity="1"/></g><g><path d="M11.333323494140625,3.6663002890625C11.333323494140625,2.1935410890625002,10.139415294140626,0.9996337890625,8.666656294140624,0.9996337890625L7.333322994140625,0.9996337890625C5.860563794140625,0.9996337890625,4.666656494140625,2.1935410890625002,4.666656494140625,3.6663002890625L4.666656494140625,4.3329672890625L11.333323494140625,4.3329672890625L11.333323494140625,3.6663002890625ZM7.333530194140625,2.3336181890625003L8.666863394140625,2.3336181890625003L8.733410394140625,2.3352498890625C9.196370594140625,2.3580054890625,9.597255194140626,2.6168882890625,9.818157694140625,2.9939926890625L9.821196994140625,2.9999513890625L6.178863494140625,3.0002848890625L6.182235994140625,2.9939926890625C6.413657694140625,2.5989307890625,6.842610394140625,2.3336181890625003,7.333530194140625,2.3336181890625003Z" fill-rule="evenodd" fill="#0C0C0D" fill-opacity="1"/></g><g><rect x="5.666656494140625" y="7.3333740234375" width="1.3333333730697632" height="3.3333334922790527" rx="0.6666666865348816" fill="#0C0C0D" fill-opacity="1"/></g><g><rect x="9" y="7.3333740234375" width="1.3333333730697632" height="3.3333334922790527" rx="0.6666666865348816" fill="#0C0C0D" fill-opacity="1"/></g></g></g></svg>

