<svg xmlns="http://www.w3.org/2000/svg" xmlns:xlink="http://www.w3.org/1999/xlink" fill="none" version="1.1" width="16" height="16" viewBox="0 0 16 16"><g><g><g><g><path d="M7.9148197,4L5.0851812,4C3.9007816,4,3.3201299,4.11212905,2.7164731,4.43496817C2.1657264,4.72951078,1.72951078,5.1657264000000005,1.4349681699999999,5.7164731C1.11212905,6.3201298999999995,1,6.9007816,1,8.085181200000001L1,10.914819699999999C1,12.0992193,1.11212905,12.6798706,1.4349681699999999,13.2835274C1.72951078,13.8342743,2.1657264,14.270491,2.7164731,14.565032C3.3201299,14.887871,3.9007816,15,5.0851812,15L7.9148197,15C9.0992193,15,9.6798706,14.887871,10.2835274,14.565032C10.8342743,14.270491,11.270491,13.8342743,11.565032,13.2835274C11.887871,12.6798706,12,12.0992193,12,10.914819699999999L12,8.085181200000001C12,6.9007816,11.887871,6.3201298999999995,11.565032,5.7164731C11.270491,5.1657264000000005,10.8342743,4.72951078,10.2835274,4.43496817C9.6798706,4.11212905,9.0992193,4,7.9148197,4ZM3.3449464,5.6103935C3.7290344,5.4049811000000005,4.1017427,5.3330078,5.0848551,5.3330078L7.914495,5.3330078C8.8976078,5.3330078,9.2703171,5.4049811000000005,9.6544037,5.6103935C9.9727936,5.7806698999999995,10.2186813,6.0265574,10.3889561,6.3449463999999995C10.5943699,6.7290344,10.6663418,7.1017427,10.6663418,8.0848551L10.6663418,10.914494999999999C10.6663418,11.8976078,10.5943699,12.2703171,10.3889561,12.6544037C10.2186813,12.9727936,9.9727936,13.2186813,9.6544037,13.3889561C9.2703171,13.5943699,8.8976078,13.6663418,7.914495,13.6663418L5.0848551,13.6663418C4.1017427,13.6663418,3.7290344,13.5943699,3.3449464,13.3889561C3.0265574,13.2186813,2.7806699,12.9727936,2.6103935,12.6544037C2.4049811,12.2703171,2.3330078,11.8976078,2.3330078,10.914494999999999L2.3330078,8.0848551C2.3330078,7.1017427,2.4049811,6.7290344,2.6103935,6.3449463999999995C2.7806699,6.0265574,3.0265574,5.7806698999999995,3.3449464,5.6103935Z" fill-rule="evenodd" fill="#0C0C0D" fill-opacity="1"/></g><g><path d="M10.652076760693358,1.2150917053222656C11.85139846069336,1.2150917053222656,12.438613860693359,1.3284882553222657,13.04907136069336,1.6549642953222656C13.605802560693359,1.9527071753222658,14.04671286069336,2.393618805322266,14.344455760693359,2.9503496053222653C14.67093276069336,3.560806705322266,14.78432846069336,4.148022405322266,14.78432846069336,5.347343405322266L14.78432846069336,7.878022705322266C14.78432846069336,9.077344405322265,14.67093276069336,9.664560305322265,14.344455760693359,10.275016805322265C14.196126960693359,10.552368205322265,14.01173206069336,10.801982905322266,13.793884260693359,11.019830705322265C13.533534960693359,11.280179705322265,13.11142536069336,11.280179705322265,12.85107616069336,11.019830705322265C12.59072496069336,10.759481405322266,12.59072496069336,10.337369905322266,12.85107616069336,10.077021605322265C12.975622160693359,9.952474605322266,13.081752760693359,9.808805505322265,13.16870496069336,9.646219205322266C13.377756160693359,9.255331005322265,13.45099546069336,8.876058605322266,13.45099546069336,7.878022705322266L13.45099546069336,5.347343405322266C13.45099546069336,4.349308705322265,13.377756160693359,3.9700363053222656,13.16870496069336,3.5791478053222656C12.995229760693359,3.254775505322266,12.74464556069336,3.0041918053222654,12.420272860693359,2.8307152053222655C12.02938416069336,2.621665805322266,11.650112160693359,2.5484251053222655,10.652076760693358,2.5484251053222655L8.008949960693359,2.5487536053222657C7.094170560693359,2.5542600053222655,6.7290563606933596,2.6297064053222656,6.35320226069336,2.8307152053222655C6.190615060693359,2.9176677053222657,6.04694576069336,3.023799705322266,5.922399760693359,3.1483457053222654C5.662050130693359,3.4086950053222655,5.239940140693359,3.4086950053222655,4.97959062069336,3.1483457053222654C4.71924106769336,2.887996105322266,4.71924106769336,2.4658860053222655,4.97959062069336,2.2055363653222657C5.1974379406933595,1.9876891953222655,5.447052900693359,1.8032931053222656,5.7244036206933595,1.6549642953222656C6.33486076069336,1.3284882553222657,6.922076660693359,1.2150917053222656,8.121397760693359,1.2150917053222656L10.652076760693358,1.2150917053222656Z" fill="#0C0C0D" fill-opacity="1"/></g></g></g></g></svg>

