<svg xmlns="http://www.w3.org/2000/svg" xmlns:xlink="http://www.w3.org/1999/xlink" fill="none" version="1.1" width="12" height="12" viewBox="0 0 12 12"><g><g><rect x="8.00006103515625" y="9.500015258789062" width="3" height="1" rx="0.5" fill="#8A8A91" fill-opacity="1"/></g><g transform="matrix(0,1,-1,0,18.499923706054688,-1.4999542236328125)"><rect x="9.99993896484375" y="8.499984741210938" width="3" height="1" rx="0.5" fill="#8A8A91" fill-opacity="1"/></g><g><path d="M8.750087252734374,3.00455666484375C8.750091552734375,1.48350556484375,7.517913852734375,0.24993896484375,6.000091552734375,0.24993896484375C4.478776352734375,0.24993896484375,3.250091552734375,1.48192496484375,3.250091552734375,3.00247576484375C3.250091552734375,4.48747346484375,4.419420352734375,5.69992926484375,5.8971264527343745,5.74965616484375C5.917854752734375,5.75035376484375,5.9386064527343745,5.74976066484375,5.959261152734375,5.74788096484375C5.984068852734374,5.74562306484375,6.013097252734375,5.74562306484375,6.031364952734375,5.74745176484375C6.053498952734375,5.74966816484375,6.075756352734375,5.75040436484375,6.097988352734375,5.74965616484375C7.574369452734375,5.69997406484375,8.743907952734375,4.48926636484375,8.750087252734374,3.00455666484375ZM4.250091552734375,3.00247576484375C4.250091552734375,2.03360996484375,5.031662652734375,1.24993896484375,6.000091552734375,1.24993896484375C6.965376852734375,1.24993896484375,7.750091552734375,2.0355383648437497,7.750091552734375,3.00247576484375L7.748840352734375,3.06262536484375C7.715157952734375,3.96112016484375,7.013870752734375,4.68714666484375,6.1239578527343745,4.74720956484375L6.086591752734375,4.74918886484375L6.067124852734375,4.74774076484375C6.0236878527343745,4.74564746484375,5.9788370527343755,4.74560736484375,5.934501152734375,4.74756626484375L5.909591652734375,4.74918886484375L5.930758952734375,4.75022176484375C4.992510152734375,4.71864846484375,4.250091552734375,3.94884796484375,4.250091552734375,3.00247576484375Z" fill-rule="evenodd" fill="#8A8A91" fill-opacity="1"/></g><g><path d="M2.74247730546875,6.74674356C4.41775580546875,5.75102212,7.59430500546875,5.75102212,9.25807620546875,6.74712372C9.37089440546875,6.81440538,9.47718430546875,6.88720393,9.57654280546875,6.96518791C9.79376890546875,7.1356806,9.83165260546875,7.4499881,9.66116050546875,7.6672136C9.490667305468751,7.8844389,9.17635960546875,7.9223231,8.95913510546875,7.7518305000000005C8.89355560546875,7.7003599000000005,8.82242200546875,7.6516397000000005,8.745136305468751,7.6055478C7.39644770546875,6.79808754,4.61331750546875,6.79808754,3.25521400546875,7.6052871C2.2483999754687503,8.209455,2.2483999754687503,9.290685700000001,3.25512040546875,9.891070599999999C4.01315590546875,10.345727,5.28446410546875,10.5703249,6.54814340546875,10.4807644C6.71255110546875,10.4691124,6.87474300546875,10.4522281,7.03336910546875,10.430233999999999C7.30689430546875,10.3923068,7.55937620546875,10.5832973,7.59730340546875,10.856823C7.63522960546875,11.1303482,7.44423870546875,11.3828306,7.17071340546875,11.4207568C6.98977470546875,11.4458456,6.80535750546875,11.465043999999999,6.61883880546875,11.4782629C5.16638110546875,11.5812025,3.69565460546875,11.321373900000001,2.74183880546875,10.7492895C1.08619147546875,9.7619033,1.08619147546875,7.740641,2.74247730546875,6.74674356Z" fill="#8A8A91" fill-opacity="1"/></g></g></svg>