<svg xmlns="http://www.w3.org/2000/svg" xmlns:xlink="http://www.w3.org/1999/xlink" fill="none" version="1.1" width="16" height="16" viewBox="0 0 16 16"><g><g></g><g><path d="M5.75192830625,1L5.49841210625,1.0018858131C5.45773100625,1.0025210953,5.41781420625,1.0033202067,5.3786302062499995,1.0042881556L5.15206290625,1.012161965L4.94155070625,1.024328277C4.26490470625,1.072303943,3.83037420625,1.19582807,3.3832211062499997,1.4349681699999999C2.83247430625,1.72951078,2.39625882625,2.1657263,2.10171621625,2.7164731C1.86257611625,3.1636262,1.73905199025,3.5981567,1.69107632325,4.2748027L1.67891001125,4.485314799999999L1.67103620245,4.7118821C1.66910030485,4.7902503,1.66783975715,4.8715491,1.66721449175,4.9560332L1.66674804687,10.9148197L1.66863386005,11.168337C1.66926914225,11.209018,1.67006825355,11.248934,1.67103620245,11.288118L1.67891001125,11.514686L1.69107632325,11.725197C1.73905199025,12.401843,1.86257611625,12.836374,2.10171621625,13.283527C2.39625882625,13.834274,2.83247430625,14.270489,3.3832211062499997,14.565032C3.83037420625,14.804173,4.26490470625,14.927696,4.94155070625,14.975672L5.15206290625,14.987838L5.3786302062499995,14.995712C5.41781420625,14.99668,5.45773100625,14.997478,5.49841210625,14.998115L5.75192830625,15L10.24823470625,15L10.50175090625,14.998115C10.54243280625,14.997478,10.58234880625,14.99668,10.62153240625,14.995712L10.84810070625,14.987838L11.05861280625,14.975672C11.73525790625,14.927696,12.16978790625,14.804173,12.61694190625,14.565032C13.16768890625,14.270489,13.60390390625,13.834274,13.89844690625,13.283527C14.13758790625,12.836374,14.26111090625,12.401843,14.30908590625,11.725197L14.32125290625,11.514686L14.32912690625,11.288118C14.33009490625,11.248934,14.33089390625,11.209018,14.33152990625,11.168337L14.33341490625,10.9148197L14.33341490625,5.0851803L14.33152990625,4.831664099999999C14.33089390625,4.790983000000001,14.33009490625,4.7510662,14.32912690625,4.7118821L14.32125290625,4.485314799999999L14.30908590625,4.2748027C14.26111090625,3.5981567,14.13758790625,3.1636262,13.89844690625,2.7164731C13.60390390625,2.1657263,13.16768890625,1.72951078,12.61694190625,1.4349681699999999C12.16978790625,1.19582807,11.73525790625,1.072303943,11.05861280625,1.024328277L10.84810070625,1.012161965L10.62153240625,1.0042881556C10.54316520625,1.002352258,10.46186640625,1.0010917103,10.37738230625,1.00046644485L5.75192830625,1ZM10.33333400625,5.5C10.70152380625,5.5,11.00000000625,5.7984767,11.00000000625,6.1666665C11.00000000625,6.5181208,10.72804070625,6.8060551,10.38308720625,6.8315048L10.33333400625,6.8333335L5.66666650625,6.8333335C5.29847690625,6.8333335,5.00000000625,6.5348568,5.00000000625,6.1666665C5.00000000625,5.8152127,5.27195930625,5.5272784,5.6169126062500006,5.5018287L5.66666650625,5.5L10.33333400625,5.5ZM11.00000000625,9.83144C10.99985310625,9.4632502,10.70125770625,9.1648922,10.33306690625,9.1650391L5.66640040625,9.1669025L5.616647206250001,9.1687508C5.271704006249999,9.1943378,4.99985980625,9.4823809,5.00000000625,9.8338346C5.00014710625,10.2020245,5.29874300625,10.5003824,5.66693310625,10.5002356L10.33360000625,10.4983721L10.38335320625,10.4965239C10.72829630625,10.4709368,11.00014110625,10.1828938,11.00000000625,9.83144Z" fill-rule="evenodd" fill="#0C0C0D" fill-opacity="1"/></g></g></svg>