<svg xmlns="http://www.w3.org/2000/svg" xmlns:xlink="http://www.w3.org/1999/xlink" fill="none" version="1.1" width="28" height="28" viewBox="0 0 28 28"><g><rect x="0.75" y="0.75" width="26.5" height="26.5" rx="13.25" fill-opacity="0" stroke-opacity="1" stroke="#D9D9DE" fill="none" stroke-width="1.5"/><g><g><path d="M19.368422000000002,13.5C19.717232,13.5,20,13.79847685,20,14.16666669C20,14.5348566,19.717232,14.8333334,19.368422000000002,14.8333334L8.63157904,14.8333334C8.28276753,14.8333334,8,14.5348566,8,14.16666669C8,13.79847685,8.28276753,13.5,8.63157904,13.5L19.368422000000002,13.5Z" fill="#FFFFFF" fill-opacity="1"/></g><g><path d="M14.16666669,8C14.5348566,8,14.8333334,8.28276753,14.8333334,8.63157904L14.8333334,19.368422000000002C14.8333334,19.717232,14.5348566,20,14.16666669,20C13.79847685,20,13.5,19.717232,13.5,19.368422000000002L13.5,8.63157904C13.5,8.28276753,13.79847685,8,14.16666669,8Z" fill="#FFFFFF" fill-opacity="1"/></g></g></g></svg>