<svg xmlns="http://www.w3.org/2000/svg" xmlns:xlink="http://www.w3.org/1999/xlink" fill="none" version="1.1" width="28" height="28" viewBox="0 0 28 28"><g><g><rect x="0" y="0" width="28" height="28" rx="14" fill="#D7FE03" fill-opacity="1"/><g><g><g transform="matrix(1,0,0,-1,0,28.879745483398438)"><path d="M18.200021746777345,14.439872741699219C18.476163846777343,14.439872741699219,18.700021746777345,14.663730381699219,18.700021746777345,14.939872741699219C18.700021746777345,15.21601522169922,18.476163846777343,15.439872741699219,18.200021746777345,15.439872741699219L9.560020446777344,15.439872741699219C9.283878086777344,15.439872741699219,9.060020446777344,15.21601522169922,9.060020446777344,14.939872741699219C9.060020446777344,14.663730381699219,9.283878086777344,14.439872741699219,9.560020446777344,14.439872741699219L18.200021746777345,14.439872741699219Z" fill="#0C0C0D" fill-opacity="1"/></g><g><path d="M14.966652308476563,10.046478663457032C15.161914438476563,9.85121651345703,15.478496908476563,9.85121651345703,15.673759158476562,10.046478663457032L19.273758888476564,13.646478443457031C19.469021788476564,13.841740343457031,19.469021788476564,14.158323243457032,19.273758888476564,14.353585243457031L15.673759158476562,17.95358464345703C15.478496908476563,18.14884664345703,15.161914438476563,18.14884664345703,14.966652308476563,17.95358464345703C14.771390143476562,17.75832224345703,14.771390143476562,17.44174094345703,14.966652308476563,17.24647764345703L18.21295618847656,14.000031443457031L14.966652308476563,10.753585453457031C14.781667105476563,10.56860011345703,14.771931037476563,10.274729163457032,14.937444118476563,10.078282323457032L14.966652308476563,10.046478663457032Z" fill="#0C0C0D" fill-opacity="1"/></g></g></g></g></g></svg>

