<svg xmlns="http://www.w3.org/2000/svg" xmlns:xlink="http://www.w3.org/1999/xlink" fill="none" version="1.1" width="40" height="40" viewBox="0 0 40 40"><g><rect x="0" y="0" width="40" height="40" rx="20" fill="#FFFFFF" fill-opacity="1"/><rect x="0.5" y="0.5" width="39" height="39" rx="19.5" fill-opacity="0" stroke-opacity="1" stroke="#D9D9DE" fill="none" stroke-width="1"/><g><g><g><path d="M25.665609,18.887588C25.609073000000002,15.6346502,23.103817,13,19.9999189,13C16.8603444,13,14.333252,15.695565,14.333252,19L14.333252,21.1138325C13.55649954,21.3884125,13,22.1292181,13,23C13,24.104568999999998,13.89543051,25,15,25L25,25L25.07498,24.998621C26.144809000000002,24.95919,27,24.079466,27,23C27,22.1291571,26.443423,21.3883104,25.666586000000002,21.1137753L25.666586000000002,19L25.665609,18.887588ZM24.333252,21.5556545L24.333252,19C24.333252,16.4133976,22.383192100000002,14.3333334,19.9999189,14.3333334C17.6497469,14.3333334,15.7208371,16.3560195,15.6677098,18.8925223L15.6665854,19L15.6665854,21.405279200000003C15.7008276,21.4855423,15.7197785,21.5738916,15.7197785,21.666667C15.7197785,22.0181208,15.4478192,22.306055100000002,15.1028659,22.331504799999998L15.0531118,22.333333L14.9999187,22.333333C14.6317662,22.333376899999998,14.3333334,22.6318369,14.3333334,23C14.3333334,23.351454,14.6052927,23.639389,14.9502459,23.664839L15,23.666667L25,23.666667C25.36819,23.666667,25.666667,23.36819,25.666667,23C25.666667,22.6485462,25.394709,22.360611900000002,25.049754,22.3351622L24.990718,22.333333C24.622528000000003,22.333333,24.324051,22.0348568,24.324051,21.666667C24.324051,21.6288443,24.327201000000002,21.5917578,24.333252,21.5556545Z" fill-rule="evenodd" fill="#8A8A91" fill-opacity="1"/></g><g transform="matrix(1,0,0,-1,0,37.01799011230469)"><path d="M21.843809871655274,18.935112236152342C21.976760671655274,18.591764286152344,22.362877171655274,18.421203717152345,22.706225171655273,18.554154575152342C23.049572971655273,18.687105416152345,23.220133571655275,19.073221926152343,23.08718277165527,19.416569886152345C23.032037471655272,19.558983356152343,22.968050671655273,19.697654456152343,22.895656571655273,19.831840956152345C22.48540687165527,20.592263456152345,21.817014071655272,21.187177456152344,21.012217521655273,21.504727856152343C20.669724581655274,21.639865856152344,20.282528011655273,21.471771756152343,20.147389799655272,21.129278656152344C20.012251585655275,20.786785856152342,20.180345818655272,20.399589056152344,20.522838771655273,20.264450956152345C21.03454608165527,20.062545556152344,21.460945871655273,19.683021556152344,21.722205471655272,19.198761166152345C21.768194571655272,19.113517766152345,21.808817271655272,19.025480806152345,21.843809871655274,18.935112236152342Z" fill="#8A8A91" fill-opacity="1"/></g><g><path d="M23,24.33335369625L23,23.66668701172L17,23.66668701172L17,24.33335369625C17,25.80611320625,18.1939074,27.00002050625,19.6666667,27.00002050625L20.333333500000002,27.00002050625C21.8060927,27.00002050625,23,25.80611320625,23,24.33335369625ZM18.5119629,25.00000000625L21.4876299,25.00000000625L21.4845905,25.00629220625C21.2531691,25.40135390625,20.8242161,25.66666670625,20.3332963,25.66666670625L19.6666296,25.66666670625L19.6000829,25.66503490625C19.1371222,25.64227930625,18.736238,25.38339660625,18.5153353,25.00629220625L18.5119629,25.00000000625Z" fill-rule="evenodd" fill="#8A8A91" fill-opacity="1"/></g></g></g></g></svg>