<svg xmlns="http://www.w3.org/2000/svg" xmlns:xlink="http://www.w3.org/1999/xlink" fill="none" version="1.1" width="16" height="16" viewBox="0 0 16 16"><g><g></g><g><path d="M5.553451107727051,7.579989888671875C5.626784307727051,7.573323288671875,5.7067842077270505,7.573323288671875,5.773450807727051,7.579989888671875C7.360117907727051,7.526656588671875,8.620117207727052,6.226656888671875,8.626783807727051,4.626656488671875C8.626783807727051,2.9933231886718747,7.30011800772705,1.666656494141875,5.666784307727051,1.666656494141875C4.026784407727051,1.666656494141875,2.7067842077270505,2.9933231886718747,2.7067842077270505,4.626656488671875C2.7067842077270505,6.226656888671875,3.9667842077270508,7.526656588671875,5.553451107727051,7.579989888671875ZM9.886702507727051,7.579989888671875C9.556509007727051,7.568891088671875,9.24046230772705,7.503801788671875,8.946974707727051,7.393253788671875C9.57613850772705,6.647414688671875,9.95566650772705,5.683715388671875,9.960047707727052,4.632171588671875C9.96005250772705,3.574966888671875,9.57897950772705,2.607235488671875,8.947107307727052,1.858766438671875C9.273953407727051,1.734636910671875,9.62879660772705,1.666656494141875,10.000036207727051,1.666656494141875C11.63337060772705,1.666656494141875,12.960036607727051,2.9933231886718747,12.960036607727051,4.626656488671875C12.953369607727051,6.226656888671875,11.693369607727051,7.526656588671875,10.10670280772705,7.579989888671875C10.04003620772705,7.573323288671875,9.960036307727052,7.573323288671875,9.886702507727051,7.579989888671875ZM2.4399776077270507,13.619989388671875C0.8266442377270508,12.546656388671876,0.8266442377270508,10.786656388671876,2.4399776077270507,9.706656488671875C4.27997780772705,8.486656688671875,7.286644907727051,8.486656688671875,9.113311807727051,9.706656488671875C10.726645507727051,10.779990188671874,10.726645507727051,12.539989388671875,9.113311807727051,13.619989388671875C7.279978307727051,14.846656388671875,4.273311107727051,14.846656388671875,2.4399776077270507,13.619989388671875ZM13.44680760772705,13.619989388671875C12.53195660772705,14.232109388671875,11.32493160772705,14.538774388671875,10.117328607727051,14.539986388671876C12.16685360772705,12.967371388671875,12.17019560772705,10.360959088671875,10.12506200772705,8.791663688671875C11.331744607727051,8.793326388671876,12.535970607727052,9.098323788671875,13.44680760772705,9.706656488671875C15.06014160772705,10.779990188671874,15.06014160772705,12.539989388671875,13.44680760772705,13.619989388671875Z" fill-rule="evenodd" fill="#FFFFFF" fill-opacity="1"/></g></g></svg>