<svg xmlns="http://www.w3.org/2000/svg" xmlns:xlink="http://www.w3.org/1999/xlink" fill="none" version="1.1" width="12" height="12" viewBox="0 0 12 12"><g><g></g><g><path d="M7.6861148,0.75L4.3138852,0.75L4.1237481,0.7514143598C4.0932372,0.7518908215,4.0632997,0.7524901549,4.0339115,0.7532161165L3.863986,0.7591214729L3.7061019,0.768246207C3.1986175,0.804227956,2.8727196,0.89687105,2.5373548,1.07622612C2.1242947,1.29713309,1.79713309,1.6242947,1.57622612,2.0373548C1.3968710500000001,2.3727196,1.304227956,2.6986175,1.268246207,3.2061019L1.2591214729,3.363986L1.2532161165,3.5339115C1.2524901549,3.5632997,1.2518908215,3.5932372,1.2514143598,3.6237481L1.25,3.8138852L1.25,8.1861148L1.2514143598,8.3762522C1.2518908215,8.4067631,1.2524901549,8.4367003,1.2532161165,8.4660883L1.2591214729,8.636014L1.268246207,8.7938976C1.304227956,9.3013821,1.3968710500000001,9.6272802,1.57622612,9.9626455C1.79713309,10.3757057,2.1242947,10.7028666,2.5373548,10.923774C2.8727196,11.103129,3.1986175,11.195772,3.7061019,11.231753L3.863986,11.240878L4.0339115,11.246784C4.0632997,11.24751,4.0932372,11.248109,4.1237481,11.248586L4.3138852,11.25L5.4068751,11.25L5.444191,11.248629C5.7029057,11.229541,5.9068751,11.013591,5.9068751,10.75C5.9068751,10.4738579,5.6830177,10.25,5.4068751,10.25L4.230813299999999,10.2497578L4.076222700000001,10.2477732C4.0516882,10.2472706,4.0277514,10.2466803,4.0043857,10.2459993L3.870832,10.2408094L3.749711,10.233326C3.6920466,10.2289886,3.6385667,10.2237453,3.5885549,10.2175226L3.4929438,10.2037525C3.3558269,10.181078,3.2456261,10.1491728,3.1429993,10.1061268L3.0754912,10.075757C3.0532211,10.0650702,3.0311127,10.0538111,3.0089537,10.0419607C2.770162,9.9142532,2.5857465,9.7298384,2.4580393000000003,9.491046L2.4229097,9.4217243C2.3508697,9.2708426,2.3049759,9.1121397,2.2787151000000003,8.8797293L2.2679651,8.7669897L2.259861,8.642343C2.2587228,8.6204963,2.257689,8.598093500000001,2.2567565,8.5751047L2.2523543999999998,8.4298983L2.2502421999999997,8.2691865L2.2502421999999997,3.7308133L2.2522268,3.5762227C2.2527295,3.5516882,2.25332,3.5277514,2.2540008,3.5043857L2.2591906,3.370832L2.2666744999999997,3.249711C2.2710109999999997,3.1920466,2.276255,3.1385667,2.2824773,3.0885549L2.2962474,2.9929438C2.3189222000000003,2.8558269,2.3508267,2.7456261,2.3938733,2.6429993L2.4242426999999998,2.5754912C2.4349301,2.5532211,2.4461886,2.5311127,2.4580393000000003,2.5089537C2.5857465,2.270162,2.770162,2.0857465,3.0089537,1.9580393L3.0782758,1.9229097C3.2291572,1.8508697,3.3878598,1.8049759,3.6202703,1.7787151L3.7330103,1.7679651L3.8576572,1.759861C3.8795037,1.7587228,3.9019065,1.757689,3.9248955,1.7567565L4.0701015,1.7523544L4.230813299999999,1.7502422L7.7691865,1.7502422L7.9237771,1.7522268C7.9483118,1.7527295,7.9722486,1.75332,7.9956145,1.7540008L8.129168,1.7591906L8.250289,1.7666745C8.307953399999999,1.771011,8.3614335,1.776255,8.4114451,1.7824773L8.507056200000001,1.7962474C8.6441731,1.8189222,8.754374,1.8508267,8.8570008,1.8938733L8.9245086,1.9242427C8.9467788,1.9349301,8.968887299999999,1.9461886,8.9910464,1.9580393C9.2298379,2.0857465,9.4142532,2.270162,9.5419607,2.5089537C9.5538111,2.5311127,9.5650702,2.5532211,9.575757,2.5754912L9.6061268,2.6429993C9.6491728,2.7456261,9.681078,2.8558269,9.7037525,2.9929438L9.7175226,3.0885549C9.7237453,3.1385667,9.7289886,3.1920466,9.733326,3.249711L9.7408094,3.370832C9.7418623,3.3920195,9.7428188,3.4137251,9.7436829,3.4359753L9.7477732,3.5762227L9.7497578,3.7308133L9.75,5.4533491L9.7513714,5.4906645C9.7704592,5.7493796,9.9864092,5.9533491,10.25,5.9533491C10.5261421,5.9533491,10.75,5.7294912,10.75,5.4533491L10.75,3.8138852L10.7485857,3.6237481C10.7481089,3.5932372,10.74751,3.5632997,10.7467842,3.5339115L10.7408781,3.363986L10.7317533,3.2061019C10.6957722,2.6986175,10.6031294,2.3727196,10.4237738,2.0373548C10.2028666,1.6242947,9.8757057,1.29713309,9.4626455,1.07622612C9.127280200000001,0.89687105,8.801382499999999,0.804227956,8.2938981,0.768246207L8.136014,0.7591214729L7.9660883,0.7532161165C7.9367003,0.7524901549,7.9067631,0.7518908215,7.8762522,0.7514143598L7.6861148,0.75ZM8.25,4.625C8.25,4.3488576000000005,8.0261426,4.125,7.75,4.125L4.25,4.125L4.2126844000000006,4.1263714C3.9539695,4.1454587,3.75,4.361409699999999,3.75,4.625C3.75,4.9011421,3.9738576,5.125,4.25,5.125L7.75,5.125L7.7873154,5.1236286C8.0460305,5.1045413,8.25,4.8885903,8.25,4.625ZM5.75,7.3751664C5.7498899,7.0990243,5.5259428,6.8752561,5.2498004,6.8753662L4.2498004,6.8757653L4.2124853,6.877152C3.953778,6.8963423,3.7498949,7.1123748,3.75,7.3759651C3.7501104,7.6521072,3.9740572,7.8758755,4.2501996,7.8757653L5.2501993,7.8753662L5.2875147,7.87398C5.5462217,7.8547893,5.7501049,7.6387572,5.75,7.3751664Z" fill-rule="evenodd" fill="#0C0C0D" fill-opacity="1"/></g><g><g><path d="M10.5953948,8.578125C10.7152987,8.578125,10.8125,8.68072642,10.8125,8.80729167C10.8125,8.93385693,10.7152987,9.03645834,10.5953948,9.03645834L6.90460528,9.03645834C6.78470134,9.03645834,6.6875,8.93385693,6.6875,8.80729167C6.6875,8.68072642,6.78470134,8.578125,6.90460528,8.578125L10.5953948,8.578125Z" fill="#0C0C0D" fill-opacity="1"/><path d="M10.5953948,8.22812504Q10.714148,8.22812504,10.8225889,8.27653992Q10.9250898,8.32230276,11.002995,8.40453598Q11.1624999,8.572902739,11.1624999,8.80729166Q11.1624999,9.04168057,11.002995,9.21004736Q10.9250898,9.29228044,10.8225889,9.33804339Q10.7141476,9.38645828,10.5953948,9.38645828L6.90460528,9.38645828Q6.785852276,9.38645828,6.67741132,9.33804351Q6.57491022,9.29228061,6.49700521,9.21004748Q6.33750004,9.0416809,6.33750004,8.80729155Q6.33750004,8.5729023567,6.49700524,8.40453574Q6.57491022,8.3223027,6.677411333,8.27653983Q6.785852291,8.22812504,6.90460528,8.22812504L10.5953948,8.22812504ZM10.5953948,8.92812496L6.90460528,8.92812496Q6.96522346,8.92812496,7.00517207,8.885957Q7.03749996,8.85183311,7.03749996,8.80729155Q7.03749996,8.76275024,7.00517213,8.72862637Q6.96522346,8.68645833,6.90460528,8.68645833L10.5953948,8.68645833Q10.5347764,8.68645833,10.4948277,8.72862659Q10.462499600000001,8.76275061,10.462499600000001,8.80729166Q10.462499600000001,8.85183272,10.4948277,8.88595673Q10.5347764,8.92812496,10.5953948,8.92812496Z" fill="#0C0C0D" fill-opacity="1"/></g><g><path d="M8.80729167,6.6875C8.93385693,6.6875,9.03645834,6.78470134,9.03645834,6.90460528L9.03645834,10.5953948C9.03645834,10.7152987,8.93385693,10.8125,8.80729167,10.8125C8.68072642,10.8125,8.578125,10.7152987,8.578125,10.5953948L8.578125,6.90460528C8.578125,6.78470134,8.68072642,6.6875,8.80729167,6.6875Z" fill="#0C0C0D" fill-opacity="1"/><path d="M8.80729166,6.33750004Q9.04168102,6.33750004,9.2100476,6.49700524Q9.29228055,6.57491016,9.33804351,6.677411361Q9.38645828,6.785852343,9.38645828,6.90460528L9.38645828,10.5953948Q9.38645828,10.7141476,9.33804339,10.8225889Q9.29228044,10.9250898,9.2100473,11.002995Q9.04168046,11.1624999,8.80729155,11.1624999Q8.572902712,11.1624999,8.40453598,11.002995Q8.32230276,10.9250898,8.27653992,10.8225889Q8.22812504,10.714148,8.22812504,10.5953948L8.22812504,6.90460528Q8.22812504,6.785852291,8.27653983,6.677411333Q8.3223027,6.57491022,8.40453574,6.49700524Q8.5729023567,6.33750004,8.80729166,6.33750004ZM8.80729166,7.03749996Q8.85183311,7.03749996,8.885957,7.00517207Q8.92812496,6.96522346,8.92812496,6.90460528L8.92812496,10.5953948Q8.92812496,10.5347764,8.88595673,10.4948277Q8.85183272,10.462499600000001,8.80729155,10.462499600000001Q8.76275066,10.462499600000001,8.72862661,10.4948277Q8.68645833,10.5347764,8.68645833,10.5953948L8.68645833,6.90460528Q8.68645833,6.96522343,8.72862634,7.00517207Q8.76275025,7.03749996,8.80729166,7.03749996Z" fill="#0C0C0D" fill-opacity="1"/></g></g></g></svg>