<svg xmlns="http://www.w3.org/2000/svg" xmlns:xlink="http://www.w3.org/1999/xlink" fill="none" version="1.1" width="12" height="12" viewBox="0 0 12 12"><g transform="matrix(-1,0,0,1,24,0)"><g><g><path d="M15.665387120657348,1.3476100789311523C15.887634320657348,1.1837172809311522,16.20066282065735,1.2310227859311524,16.36455532065735,1.4532698969311524C16.528448320657347,1.6755169969311523,16.48114272065735,1.9885451769311522,16.25889562065735,2.1524379869311523L14.77028822065735,3.2500243169311522L19.500038420657347,3.2500243169311522C21.54489062065735,3.2500243169311522,23.207471220657347,4.886720616931152,23.24923322065735,6.921566916931153L23.25003822065735,7.000023816931153C23.25003822065735,9.071091616931152,21.57110622065735,10.750023816931153,19.500038420657347,10.750023816931153L17.000038420657347,10.750023816931153C16.72389622065735,10.750023816931153,16.500038420657347,10.526165916931152,16.500038420657347,10.250023816931153C16.500038420657347,9.973881716931153,16.72389622065735,9.750023816931153,17.000038420657347,9.750023816931153L19.500038420657347,9.750023816931153C21.01882102065735,9.750023816931153,22.250038420657347,8.518807416931153,22.250038420657347,7.000023816931153C22.250038420657347,5.481241216931152,21.01882102065735,4.250024316931152,19.500038420657347,4.250024316931152L13.250038090657348,4.250024316931152C12.76748011665735,4.250024316931152,12.564907820657348,3.6340122169311524,12.953283960657348,3.3476100169311525L15.665387120657348,1.3476100789311523Z" fill="#0C0C0D" fill-opacity="1"/></g></g></g></svg>