<svg xmlns="http://www.w3.org/2000/svg" xmlns:xlink="http://www.w3.org/1999/xlink" fill="none" version="1.1" width="16" height="16" viewBox="0 0 16 16"><g><g><path d="M14.666585953125,3.0000002C14.666585953125,1.8954305599999999,13.771154953125,1,12.666585953125,1L3.3332518531249997,1C2.228682403125,1,1.333251953125,1.8954305599999999,1.333251953125,3.0000002L1.333251953125,4.192372799999999C1.333251953125,4.6730602,1.506375533125,5.1376681,1.820930543125,5.5011449L5.070692553124999,9.2563334C5.175544253125,9.377492,5.233252053125,9.532362,5.233252053125,9.6925917L5.233252053125,13.10321C5.233252053125,13.334052,5.273215753125,13.563151,5.351372753125,13.780359C5.725351353125,14.819693,6.871067953125,15.359069,7.910399953125,14.985091L9.443735153125,14.433359C10.237400053125,14.147776,10.766584353125,13.394962,10.766584353125,12.551478L10.766584353125,9.6925917C10.766584353125,9.532362,10.824293153125,9.377492,10.929145853125,9.2563334L14.178906953125,5.5011449C14.493460953125,5.1376681,14.666585953125,4.6730602,14.666585953125,4.192372799999999L14.666585953125,3.0000002ZM3.333414753125,2.333252L12.666747953125,2.333252C13.034938953125,2.333252,13.333414953125,2.6317288999999997,13.333414953125,2.9999187000000003L13.333414953125,4.1922913C13.333414953125,4.3525205,13.275706953125,4.5073895,13.170855953125,4.6285484L9.921094853125,8.383737100000001C9.606538753125,8.7472143,9.433414453125,9.2118216,9.433414453125,9.6925087L9.433414453125,12.551395C9.433414453125,12.832557,9.257020453125001,13.083494,8.992464053125001,13.178688L7.459131253125,13.730421C7.112687153125,13.855083,6.730781553125,13.675288,6.606122053125,13.328845C6.580069553125,13.256442,6.566748653125,13.180077,6.566748653125,13.103129L6.566748653125,9.6925087C6.566748653125,9.2118216,6.393624753125,8.7472143,6.079070053125,8.383737100000001L2.829307553125,4.6285484C2.724455953125,4.5073895,2.666748053125,4.3525205,2.666748053125,4.1922913L2.666748053125,2.9999187000000003C2.666748053125,2.6317288999999997,2.965224953125,2.333252,3.333414753125,2.333252Z" fill-rule="evenodd" fill="#8A8A91" fill-opacity="1"/></g></g></svg>