<svg xmlns="http://www.w3.org/2000/svg" xmlns:xlink="http://www.w3.org/1999/xlink" fill="none" version="1.1" width="40" height="40" viewBox="0 0 40 40"><g><rect x="0" y="0" width="40" height="40" rx="20" fill="#D7FE03" fill-opacity="1"/><g><g></g><g><path d="M17.4181881125,13.333251953125C17.2865884125,13.333251953125,17.1624420125,13.334636262425,17.0448899125,13.337540108725L16.8183226125,13.345413918125L16.6078105125,13.357580230125C15.9311645125,13.405555896125,15.4966340125,13.529080023125,15.0494809125,13.768220123125C14.4987341125,14.062762733125,14.0625185925,14.498978253125,13.7679759825,15.049725053125C13.5288358825,15.496878153125,13.4053117555,15.931408653125,13.3573360895,16.608054653125L13.3451697775,16.818566753125L13.3372959681,17.045134053125C13.3353600705,17.123502253125,13.3340995228,17.204801053125,13.33347425735,17.289285153125L13.3330078125,22.581405653125C13.3330078125,22.713005053125002,13.3343921218,22.837151553125,13.3372959681,22.954703353124998L13.3451697775,23.181270553125L13.3573360895,23.391782953125002C13.4053117555,24.068427953125,13.5288358825,24.502958953125002,13.7679759825,24.950112953125C14.0625185925,25.500859953125,14.4987341125,25.937074953125,15.0494809125,26.231616953125C15.4966340125,26.470757953125002,15.9311645125,26.594281953124998,16.6078105125,26.642256953125L16.8183226125,26.654422953125L17.0448899125,26.662297953124998C17.0840740125,26.663264953125,17.1239908125,26.664063953125,17.1646719125,26.664699953125L17.4181881125,26.666585953125L22.5811615125,26.666585953125L22.8346777125,26.664699953125C22.8753586125,26.664063953125,22.9152756125,26.663264953125,22.954459212499998,26.662297953124998L23.1810264125,26.654422953125L23.391538812500002,26.642256953125C24.0681838125,26.594281953124998,24.502714812500002,26.470757953125002,24.9498688125,26.231616953125C25.5006158125,25.937074953125,25.9368308125,25.500859953125,26.2313728125,24.950112953125C26.470513812500002,24.502958953125002,26.594037812499998,24.068427953125,26.6420128125,23.391782953125002L26.6541788125,23.181270553125L26.662053812499998,22.954703353124998C26.6630208125,22.915519753125,26.6638198125,22.875602753125,26.6644558125,22.834921853125L26.6663418125,22.581405653125L26.6663418125,17.418432253125L26.6644558125,17.164916053125C26.6638198125,17.124234953125,26.6630208125,17.084318153125,26.662053812499998,17.045134053125L26.6541788125,16.818566753125L26.6420128125,16.608054653125C26.594037812499998,15.931408653125,26.470513812500002,15.496878153125,26.2313728125,15.049725053125C25.9368308125,14.498978253125,25.5006158125,14.062762733125,24.9498688125,13.768220123125C24.502714812500002,13.529080023125,24.0681838125,13.405555896125,23.391538812500002,13.357580230125L23.1810264125,13.345413918125L22.954459212499998,13.337540108725C22.876091012499998,13.335604211125,22.7947922125,13.334343663425,22.7103081125,13.333718397975L17.4181881125,13.333251953125ZM22.6922521125,14.667236353125L22.898372612499998,14.669882553125L23.0853691125,14.675335753125C23.1150360125,14.676487953125001,23.1439762125,14.677763953125,23.1722269125,14.679167553125L23.333720812499998,14.689146053125C23.4106078125,14.694928053125,23.4819148125,14.701920053125,23.5485968125,14.710216553125L23.6760778125,14.728576653125C23.8588998125,14.758809553125,24.005834812499998,14.801349153125,24.1426708125,14.858744653125001L24.2326808125,14.899237053125C24.2623748125,14.913486853125,24.2918528125,14.928498253125,24.321397812500003,14.944299253125C24.6397868125,15.114575353125,24.8856748125,15.360462953125,25.0559498125,15.678851853125C25.0717518125,15.708396953125,25.0867638125,15.737874953125,25.101012812500002,15.767568353125L25.1415048125,15.857579253125C25.198899812500002,15.994414853125,25.241439812499998,16.141349353125,25.2716728125,16.324172053125L25.2900338125,16.451653453125C25.2983298125,16.518335553125,25.3053218125,16.589642253125,25.3111038125,16.666528253125L25.321081812499997,16.828022953125L25.3280018125,17.006094453125C25.3289098125,17.037248653125,25.3296968125,17.069164553125,25.3303668125,17.101877253125L25.3330138125,17.307997953125L25.3330138125,20.009033153125L23.6942078125,20.009033153125L23.609330812499998,20.010830353125C22.9888477125,20.037130853125,22.4137287125,20.350700853124998,22.055744212500002,20.862108753125L21.6852808125,21.391341253125L21.6524830125,21.434374853125C21.5264568125,21.586512553125,21.3385401125,21.675700153125,21.139125812499998,21.675700153125L18.8608742125,21.675700153125L18.8068113125,21.673508653124998C18.6099043125,21.657508853125,18.4290762125,21.554707553125,18.3147197125,21.391341253125L17.9442568125,20.862108753125L17.8941107125,20.793605853125C17.5167408125,20.300368353125002,16.9300451125,20.009033153125,16.305792812500002,20.009033153125L14.6669922125,20.009033153125L14.6669922125,17.307997953125L14.6696384125,17.101877253125L14.6750916125,16.914880553125002C14.676243812500001,16.885213653125,14.6775198125,16.856272953125,14.6789234125,16.828022953125L14.6889019125,16.666528253125C14.6946839125,16.589642253125,14.7016759125,16.518335553125,14.7099724125,16.451653453125L14.7283325125,16.324172053125C14.7585654125,16.141349353125,14.8011050125,15.994414853125,14.858500512500001,15.857579253125L14.8989929125,15.767568353125C14.9132427125,15.737874953125,14.9282541125,15.708396953125,14.9440551125,15.678851853125C15.1143312125,15.360462953125,15.3602188125,15.114575353125,15.6786077125,14.944299253125L15.7710371125,14.897459753125C15.9722123125,14.801406353125,16.183815912500002,14.740214553125,16.4936964125,14.705200153125L16.6440163125,14.690866953125L16.8102121125,14.680061353125L16.9942031125,14.672593853125C17.0264578125,14.671616953125,17.0595338125,14.670771153125,17.0934715125,14.670052553125L17.3077538125,14.667236353125L22.6922521125,14.667236353125ZM14.6669922125,21.342366253125L14.6669922125,22.692496253125L14.6698084125,22.906778353125C14.6705270125,22.940715753124998,14.6713728125,22.973792053125003,14.6723497125,23.006046253125L14.6798172125,23.190037753125L14.6906228125,23.356233953125L14.7049560125,23.506553953125C14.7399704125,23.816433953125,14.8011622125,24.028037953125,14.8972156125,24.229212953125L14.9440551125,24.321641953125003C15.1143312125,24.640030953125,15.3602188125,24.885918953125,15.6786077125,25.056193953125C15.7081528125,25.071995953125,15.7376308125,25.087007953125,15.7673242125,25.101256953125002L15.8573351125,25.141748953125C15.9941707125,25.199143953125002,16.1411052125,25.241683953124998,16.3239279125,25.271916953125L16.4514093125,25.290277953125C16.5180914125,25.298573953125,16.5893981125,25.305565953125,16.6662841125,25.311347953125L16.8277788125,25.321325953124997C16.8560288125,25.322729953125,16.8849695125,25.324005953125003,16.914636412500002,25.325157953125L17.1016331125,25.330610953125L17.3077538125,25.333257953125L22.6922521125,25.333257953125L22.898372612499998,25.330610953125C22.9310856125,25.329940953125,22.9630012125,25.329153953125,22.9941559125,25.328245953125L23.1722269125,25.321325953124997L23.333720812499998,25.311347953125C23.4106078125,25.305565953125,23.4819148125,25.298573953125,23.5485968125,25.290277953125L23.6760778125,25.271916953125C23.8588998125,25.241683953124998,24.005834812499998,25.199143953125002,24.1426708125,25.141748953125L24.2326808125,25.101256953125002C24.2623748125,25.087007953125,24.2918528125,25.071995953125,24.321397812500003,25.056193953125C24.6397868125,24.885918953125,24.8856748125,24.640030953125,25.0559498125,24.321641953125003C25.0717518125,24.292096953125,25.0867638125,24.262618953125,25.101012812500002,24.232924953125L25.1415048125,24.142914953125C25.198899812500002,24.006078953124998,25.241439812499998,23.859143953125,25.2716728125,23.676321953125L25.2900338125,23.548840953125C25.2983298125,23.482158953125,25.3053218125,23.410851953125,25.3111038125,23.333964953124998L25.321081812499997,23.172471053125C25.3224858125,23.144220353125,25.323761812500003,23.115280153125,25.3249138125,23.085613253125L25.3303668125,22.898616753124998L25.3330138125,22.692496253125L25.3330138125,21.342366253125L23.6942078125,21.342366253125C23.4947938125,21.342366253125,23.3068771125,21.431553853125,23.1808510125,21.583691553125L23.148053212500002,21.626725153125L22.7775898125,22.155958153125C22.419605212500002,22.667366053125,21.8444862125,22.980936053125,21.224002312499998,23.007236453125L21.139125812499998,23.009033153125L18.8608742125,23.009033153125C18.2366218125,23.009033153125,17.6499262125,22.717698053124998,17.2725563125,22.224460553125L17.2224102125,22.155958153125L16.851947312500002,21.626725153125C16.7375908125,21.463358853125,16.5567624125,21.360557553125,16.3598554125,21.344557753125002L16.305792812500002,21.342366253125L14.6669922125,21.342366253125Z" fill-rule="evenodd" fill="#0C0C0D" fill-opacity="1"/></g></g></g></svg>