<svg xmlns="http://www.w3.org/2000/svg" xmlns:xlink="http://www.w3.org/1999/xlink" fill="none" version="1.1" width="16" height="16" viewBox="0 0 16 16"><g><g></g><g><path d="M2.333343505859375,9.58618640625C2.333343505859375,10.75592990625,3.186285915859375,11.63686850625,4.521849405859375,12.80622290625C5.6910131058593745,13.83049990625,7.467927905859375,14.66668690625,7.960929905859375,14.66668690625C8.531287205859375,14.66668690625,10.308988605859376,13.83048190625,11.478171305859375,12.80622290625C12.813735505859375,11.63700680625,13.666677505859376,10.75599860625,13.666677505859376,9.58618640625L13.666677505859376,3.45559580625C13.664034505859375,3.23589650625,13.441560505859375,2.95455730625,13.197711505859376,2.88314500625Q9.068925905859375,1.66668701172,7.960929905859375,1.66668701172Q6.931094605859375,1.66668701172,2.802309035859375,2.88314500625C2.562734645859375,2.95942430625,2.333343505859375,3.23603410625,2.333343505859375,3.45559580625L2.333343505859375,9.58618640625ZM8.618127805859375,5.95022580625C8.592678105859374,5.60527230625,8.304743305859375,5.33331300625,7.953289505859375,5.33331300625C7.585099705859375,5.33331300625,7.286623005859375,5.63178990625,7.286623005859375,5.99997950625L7.286343605859375,7.33331300625L6.000010205859375,7.33331300625L5.950256105859375,7.33514170625C5.605302805859375,7.36059140625,5.333343505859375,7.64852570625,5.333343505859375,7.99998000625C5.333343505859375,8.36816980625,5.631820405859375,8.66664650625,6.000010205859375,8.66664650625L7.286343605859375,8.66664650625L7.286623005859375,9.99998000625L7.288451205859375,10.04973410625C7.313900905859375,10.39468760625,7.601835205859375,10.66664700625,7.953289505859375,10.66664700625C8.321479305859375,10.66664700625,8.619956005859375,10.36816980625,8.619956005859375,9.99998000625L8.619677105859374,8.66664650625L10.000010505859375,8.66664650625L10.049764605859375,8.66481780625C10.394718205859375,8.63936810625,10.666677505859376,8.351433706249999,10.666677505859376,7.99998000625C10.666677505859376,7.63179020625,10.368200305859375,7.33331300625,10.000010505859375,7.33331300625L8.619677105859374,7.33331300625L8.619956005859375,5.99997950625L8.618127805859375,5.95022580625Z" fill-rule="evenodd" fill="#FFFFFF" fill-opacity="1"/></g></g></svg>