<svg xmlns="http://www.w3.org/2000/svg" xmlns:xlink="http://www.w3.org/1999/xlink" fill="none" version="1.1" width="16" height="16" viewBox="0 0 16 16"><g><rect x="0" y="0" width="16" height="16" rx="4" fill="#FF5E93" fill-opacity="1"/><g><g></g><g><path d="M8,13Q8.122743100000001,13,8.2453384,12.9939775Q8.3679338,12.9879551,8.4900861,12.9759245Q8.6122379,12.9638929,8.7336521,12.9458818Q8.8550663,12.9278717,8.9754515,12.9039259Q9.0958357,12.8799801,9.214900499999999,12.8501549Q9.3339653,12.8203316,9.4514232,12.7847013Q9.568881000000001,12.7490711,9.6844492,12.7077198Q9.8000164,12.6663685,9.9134164,12.6193972Q10.026816400000001,12.5724258,10.137774499999999,12.5199461Q10.248733,12.4674664,10.3569832,12.409606Q10.465232799999999,12.3517456,10.5705128,12.2886419Q10.675792699999999,12.2255392,10.7778502,12.1573467Q10.8799076,12.0891542,10.978495599999999,12.016037Q11.0770836,11.9429188,11.1719656,11.8650522Q11.2668476,11.7871847,11.3577938,11.7047548Q11.448741,11.6223259,11.5355339,11.5355339Q11.6223259,11.448741,11.7047558,11.3577948Q11.7871857,11.2668476,11.8650532,11.1719666Q11.9429207,11.0770845,12.0160379,10.978496100000001Q12.0891552,10.8799076,12.1573477,10.7778502Q12.2255402,10.675792699999999,12.2886429,10.5705128Q12.3517456,10.465232799999999,12.409606,10.3569832Q12.4674664,10.248733,12.5199461,10.1377749Q12.5724258,10.026816400000001,12.6193972,9.9134169Q12.6663685,9.8000169,12.7077198,9.6844487Q12.7490711,9.568881000000001,12.7847013,9.4514232Q12.8203316,9.3339653,12.8501568,9.214900499999999Q12.8799801,9.0958357,12.9039268,8.9754515Q12.9278727,8.8550663,12.9458828,8.7336521Q12.9638939,8.6122379,12.9759245,8.4900861Q12.9879551,8.3679338,12.9939785,8.2453384Q13,8.122743100000001,13,8Q13,7.8772569,12.9939785,7.7546616Q12.9879551,7.6320662,12.9759245,7.5099144Q12.9638929,7.3877621,12.9458818,7.2663474Q12.9278717,7.1449327,12.9039259,7.0245481Q12.8799801,6.9041634,12.8501549,6.7850985999999995Q12.8203316,6.6660342,12.7847013,6.5485766000000005Q12.7490711,6.4311185,12.7077198,6.3155506Q12.6663685,6.1999824,12.6193972,6.0865827Q12.5724258,5.973182700000001,12.5199461,5.862224599999999Q12.4674664,5.751266,12.409606,5.6430163Q12.3517456,5.5347667000000005,12.2886419,5.429486300000001Q12.2255392,5.3242059,12.1573467,5.2221487Q12.0891542,5.1200914,12.016037,5.0215032Q11.9429188,4.9229152,11.8650522,4.8280334Q11.7871847,4.7331517000000005,11.7047548,4.642205Q11.6223259,4.5512584,11.5355339,4.464466Q11.448741,4.3776735,11.3577948,4.2952442Q11.2668476,4.212815,11.1719666,4.1349477Q11.0770845,4.0570803,10.978496100000001,3.98396218Q10.8799076,3.91084421,10.7778502,3.8426517799999997Q10.675792699999999,3.77445936,10.5705128,3.71135676Q10.465232799999999,3.6482542799999997,10.3569832,3.5903936Q10.248733,3.53253293,10.1377749,3.4800534499999998Q10.026816400000001,3.42757404,9.9134169,3.38060227Q9.8000169,3.3336305,9.6844487,3.2922796Q9.568881000000001,3.25092873,9.4514232,3.2152983Q9.3339653,3.17966786,9.214900499999999,3.14984372Q9.0958357,3.12001957,8.9754515,3.096073583Q8.8550663,3.072127596,8.7336521,3.054117441Q8.6122379,3.036107291,8.4900861,3.024076365Q8.3679338,3.012045437,8.2453384,3.0060227183Q8.122743100000001,3,8,3Q7.8772569,3,7.7546616,3.0060227183Q7.6320662,3.012045437,7.5099144,3.024076365Q7.3877621,3.036107291,7.2663474,3.054117441Q7.1449327,3.072127596,7.0245481,3.096073583Q6.9041634,3.12001957,6.7850985999999995,3.14984371Q6.6660342,3.17966786,6.5485766000000005,3.2152983Q6.4311185,3.25092873,6.3155506,3.29227963Q6.1999824,3.3336305,6.0865827,3.38060227Q5.973182700000001,3.42757404,5.862224599999999,3.4800534499999998Q5.751266,3.53253293,5.6430163,3.5903936Q5.5347667000000005,3.6482542799999997,5.429486300000001,3.71135688Q5.3242059,3.77445936,5.2221487,3.8426517799999997Q5.1200914,3.91084421,5.0215032,3.98396218Q4.9229152,4.0570803,4.8280334,4.1349477Q4.7331517000000005,4.212815,4.642205,4.2952442Q4.5512584,4.3776735,4.464466,4.464466Q4.3776735,4.5512584,4.2952442,4.642205Q4.212815,4.7331518,4.1349477,4.8280335999999995Q4.0570803,4.9229152,3.98396218,5.0215034Q3.91084421,5.1200914,3.8426517799999997,5.2221487Q3.77445936,5.3242059,3.71135676,5.429486300000001Q3.6482542799999997,5.5347667000000005,3.5903936,5.6430163Q3.53253293,5.751266,3.4800534499999998,5.862224100000001Q3.42757404,5.973182700000001,3.38060227,6.0865824Q3.3336305,6.1999822,3.2922796,6.3155503Q3.25092873,6.4311185,3.2152983,6.5485766000000005Q3.17966786,6.6660345,3.14984372,6.785099000000001Q3.12001957,6.9041638,3.096073583,7.0245485Q3.072127596,7.1449327,3.054117441,7.2663474Q3.036107291,7.3877621,3.024076365,7.5099144Q3.012045437,7.6320662,3.0060227183,7.7546616Q3,7.8772569,3,8Q3,8.122743100000001,3.0060227183,8.2453384Q3.012045437,8.3679338,3.024076365,8.4900861Q3.036107291,8.6122379,3.054117441,8.7336521Q3.072127596,8.8550663,3.096073583,8.9754515Q3.12001957,9.0958357,3.14984371,9.214900499999999Q3.17966786,9.3339653,3.2152983,9.4514232Q3.25092873,9.568881000000001,3.29227963,9.6844492Q3.3336305,9.8000164,3.38060227,9.9134164Q3.42757404,10.026816400000001,3.4800534499999998,10.137774499999999Q3.53253293,10.248733,3.5903936,10.3569832Q3.6482542799999997,10.465232799999999,3.71135688,10.5705128Q3.77445936,10.675792699999999,3.8426517799999997,10.7778502Q3.91084421,10.8799076,3.98396218,10.978495599999999Q4.0570803,11.0770836,4.1349477,11.1719656Q4.212815,11.2668476,4.2952442,11.3577938Q4.3776735,11.448741,4.464466,11.5355339Q4.5512584,11.6223259,4.642205,11.7047558Q4.7331518,11.7871857,4.8280335999999995,11.8650532Q4.9229152,11.9429207,5.0215034,12.0160379Q5.1200914,12.0891552,5.2221487,12.1573477Q5.3242059,12.2255402,5.429486300000001,12.2886429Q5.5347667000000005,12.3517456,5.6430163,12.409606Q5.751266,12.4674664,5.862224100000001,12.5199461Q5.973182700000001,12.5724258,6.0865824,12.6193972Q6.1999822,12.6663685,6.3155503,12.7077198Q6.4311185,12.7490711,6.5485766000000005,12.7847013Q6.6660345,12.8203316,6.785099000000001,12.8501568Q6.9041638,12.8799801,7.0245485,12.9039268Q7.1449327,12.9278727,7.2663474,12.9458828Q7.3877621,12.9638939,7.5099144,12.9759245Q7.6320662,12.9879551,7.7546616,12.9939775Q7.8772569,13,8,13ZM5.75,6.25L5.75,6.75Q5.75,6.7992454,5.7596071,6.8475447Q5.7692146,6.8958442,5.7880599,6.941341400000001Q5.8069055,6.9868383000000005,5.834265,7.0277848Q5.8616245,7.0687313,5.8964465,7.1035533Q5.9312682,7.1383753,5.9722145,7.1657348Q6.0131607,7.1930943,6.0586579,7.2119393Q6.1041551,7.2307854,6.1524546,7.2403927Q6.2007542,7.25,6.25,7.25Q6.2992456,7.25,6.3475451,7.2403927Q6.3958445,7.2307854,6.441341400000001,7.2119393Q6.4868386000000005,7.1930943,6.5277848,7.1657348Q6.5687313,7.1383753,6.6035533,7.1035533Q6.6383753,7.0687313,6.6657348,7.0277848Q6.6930938,6.9868383000000005,6.7119393,6.941341400000001Q6.7307849,6.8958442,6.7403922000000005,6.8475449Q6.749999799999999,6.7992454,6.75,6.75L6.75,6.25Q6.749999799999999,6.2007542,6.7403922000000005,6.1524546Q6.7307849,6.1041551,6.7119393,6.0586579Q6.6930938,6.0131607,6.6657343000000004,5.9722145Q6.638374799999999,5.9312682,6.6035531,5.8964462Q6.5687313,5.8616242,6.5277848,5.8342648Q6.4868386000000005,5.8069055,6.441341400000001,5.7880599Q6.3958445,5.7692146,6.3475449,5.7596073Q6.2992456,5.75,6.25,5.75Q6.2007542,5.75,6.1524546,5.7596073Q6.1041551,5.7692146,6.0586579,5.7880602Q6.0131607,5.8069057,5.9722145,5.8342652Q5.9312682,5.8616247,5.8964462,5.8964465Q5.8616242,5.9312682,5.8342648,5.9722145Q5.8069053,6.0131607,5.7880599,6.0586579Q5.7692146,6.1041551,5.7596071,6.1524546Q5.75,6.2007542,5.75,6.25ZM9.25,6.75L9.25,6.25Q9.249999500000001,6.2007542,9.2596064,6.1524546Q9.2692137,6.1041551,9.2880592,6.0586579Q9.3069048,6.0131607,9.3342648,5.9722145Q9.3616238,5.9312682,9.3964462,5.8964462Q9.4312677,5.8616242,9.4722142,5.8342648Q9.5131607,5.8069055,9.5586576,5.7880599Q9.604154600000001,5.7692146,9.6524544,5.7596073Q9.7007542,5.75,9.75,5.75Q9.7992458,5.75,9.8475451,5.7596073Q9.895844499999999,5.7692146,9.941341399999999,5.7880602Q9.986838299999999,5.8069057,10.0277843,5.8342652Q10.0687304,5.8616247,10.1035528,5.8964465Q10.138374299999999,5.9312682,10.1657338,5.9722145Q10.193093300000001,6.0131607,10.2119389,6.0586579Q10.230784400000001,6.1041551,10.2403917,6.1524546Q10.25,6.2007542,10.25,6.25L10.25,6.75Q10.25,6.7992454,10.240392199999999,6.8475447Q10.230784400000001,6.8958442,10.2119389,6.941341400000001Q10.193093300000001,6.9868383000000005,10.1657338,7.0277848Q10.138374299999999,7.0687313,10.1035528,7.1035533Q10.0687304,7.1383753,10.0277843,7.1657348Q9.986837900000001,7.1930943,9.9413409,7.2119393Q9.895844,7.2307854,9.8475447,7.2403927Q9.7992458,7.25,9.75,7.25Q9.7007542,7.25,9.6524544,7.2403927Q9.604154600000001,7.2307854,9.5586576,7.2119393Q9.5131607,7.1930943,9.4722147,7.1657348Q9.4312677,7.1383753,9.3964462,7.1035533Q9.3616238,7.0687313,9.334264300000001,7.0277848Q9.3069048,6.9868383000000005,9.2880592,6.941341400000001Q9.2692137,6.8958442,9.2596068,6.8475449Q9.249999500000001,6.7992454,9.25,6.75ZM9.9413629,10.6026688C9.746589700000001,10.798418,9.4300079,10.799209600000001,9.2342587,10.6044359C8.908127799999999,10.279931999999999,8.4692988,10.0949869,7.9999437,10.0949869C7.5326881,10.0949869,7.0956688,10.278265000000001,6.7699118,10.6001887C6.5734973,10.7942915,6.2569203,10.792418,6.0628173,10.5960035C5.868714300000001,10.3995891,5.8705881,10.083012100000001,6.0670025,9.8889089C6.5780969,9.3838291,7.2668295,9.0949869,7.9999437,9.0949869C8.736360999999999,9.0949869,9.427928399999999,9.386448399999999,9.9395957,9.8955641C10.135345000000001,10.0903373,10.1361365,10.406919,9.9413629,10.6026688Z" fill-rule="evenodd" fill="#FFFFFF" fill-opacity="1"/></g></g></g></svg>