<svg xmlns="http://www.w3.org/2000/svg" xmlns:xlink="http://www.w3.org/1999/xlink" fill="none" version="1.1" width="12" height="12" viewBox="0 0 12 12"><g><g><g><path d="M6.8834815,0.6388410583337403C6.328414,0.35615177433374023,5.6715865,0.35615177433374023,5.116519,0.6388410583337403L1.8132739,2.3211439983337403C1.16082716,2.65342709833374,0.75,3.32369449833374,0.75,4.05588199833374L0.75,7.944126598333741C0.75,8.67631479833374,1.16082716,9.34658099833374,1.8132739,9.67886399833374L5.116519,11.36116719833374C5.6715865,11.64385619833374,6.328414,11.64385619833374,6.8834815,11.36116719833374L10.1867275,9.67886399833374C10.839172,9.34658099833374,11.25,8.67631479833374,11.25,7.944126598333741L11.25,4.05588199833374C11.25,3.32369449833374,10.839172,2.65342709833374,10.1867275,2.3211439983337403L6.8834815,0.6388410583337403ZM5.5703416,1.5299331983337403C5.8402843,1.3924543883337401,6.1597157,1.3924543883337401,6.4296589,1.5299331983337403L9.7329044,3.21223589833374C10.0502043,3.37383369833374,10.25,3.6998009983337403,10.25,4.05588199833374L10.25,7.944126598333741C10.25,8.30020759833374,10.0502043,8.62617449833374,9.7329044,8.78777269833374L6.4296589,10.47007519833374C6.1597157,10.60755519833374,5.8402843,10.60755519833374,5.5703416,10.47007519833374L2.2670964,8.78777269833374C1.9497954,8.62617449833374,1.75,8.30020759833374,1.75,7.944126598333741L1.75,4.05588199833374C1.75,3.6998009983337403,1.9497954,3.37383369833374,2.2670964,3.21223589833374L5.5703416,1.5299331983337403Z" fill-rule="evenodd" fill="#8A8A91" fill-opacity="1"/></g><g><path d="M1.48114633875,2.7256946563695705L6.00384476875,5.08210806730957L10.52490046875,2.8016706253095705L10.97528836875,3.69450354730957L6.22528936875,6.09063286730957L5.99639606875,6.20609756730957L5.76904296875,6.08762976730957L1.01904296875,3.61252081730957L1.48114633875,2.7256946563695705Z" fill="#8A8A91" fill-opacity="1"/></g><g><path d="M5.5,5.644289016723633L5.5,11.250062416723633L6.5,11.250062416723633L6.5,5.644289016723633L5.5,5.644289016723633Z" fill="#8A8A91" fill-opacity="1"/></g></g></g></svg>