<svg xmlns="http://www.w3.org/2000/svg" xmlns:xlink="http://www.w3.org/1999/xlink" fill="none" version="1.1" width="40" height="40" viewBox="0 0 40 40"><g><rect x="0" y="0" width="40" height="40" rx="20" fill="#FFFFFF" fill-opacity="1"/><rect x="0.5" y="0.5" width="39" height="39" rx="19.5" fill-opacity="0" stroke-opacity="1" stroke="#D9D9DE" fill="none" stroke-width="1"/><g><g><g transform="matrix(-1,0,0,1,53.17308807373047,0)"><path d="M38.77321203686523,19.41325092315674C39.14140203686523,19.41325092315674,39.439879036865236,19.71172774315674,39.439879036865236,20.07991755315674C39.439879036865236,20.44810752315674,39.14140203686523,20.746584223156738,38.77321203686523,20.746584223156738L27.253210726865234,20.746584223156738C26.885020906865236,20.746584223156738,26.586544036865234,20.44810752315674,26.586544036865234,20.07991755315674C26.586544036865234,19.71172774315674,26.885020906865236,19.41325092315674,27.253210726865234,19.41325092315674L38.77321203686523,19.41325092315674Z" fill="#8A8A91" fill-opacity="1"/></g><g transform="matrix(-1,0,0,1,37.8138542175293,0)"><path d="M19.102189268764647,14.728305067714844C19.36253878876465,14.467955529714844,19.784648778764648,14.467955529714844,20.04499840876465,14.728305067714844L24.84499840876465,19.52830500771484C25.10534860876465,19.788654307714843,25.10534860876465,20.210764907714843,24.84499840876465,20.471114207714844L20.04499840876465,25.271112907714844C19.784648778764648,25.531463907714844,19.36253878876465,25.531463907714844,19.102189268764647,25.271112907714844C18.84183971576465,25.010763907714846,18.84183971576465,24.588655907714845,19.102189268764647,24.328304307714845L23.430594408764648,19.999709107714843L19.102189268764647,15.671114207714844C18.85554233176465,15.424467087714843,18.84256090976465,15.032639117714844,19.06324500876465,14.770709977714844L19.102189268764647,14.728305067714844Z" fill="#8A8A91" fill-opacity="1"/></g></g></g></g></svg>

