<svg xmlns="http://www.w3.org/2000/svg" xmlns:xlink="http://www.w3.org/1999/xlink" fill="none" version="1.1" width="36" height="36" viewBox="0 0 36 36"><g><rect x="0" y="0" width="36" height="36" rx="18" fill="#D7FE03" fill-opacity="1"/><g><g transform="matrix(-1,0,0,1,50.001365661621094,0)"><g><path d="M28.889100030810546,11.796531472868653C29.185429530810545,11.578007734868653,29.602801330810546,11.641081744868652,29.821324330810548,11.937411252868653C30.039848330810546,12.233740682868653,29.97677423081055,12.651111602868653,29.680444730810546,12.869635352868652L27.695634830810548,14.333083852868652L34.00196843081055,14.333083852868652C36.728438830810546,14.333083852868652,38.94521283081055,16.515345552868652,39.00089583081055,19.228474152868653L39.00196883081055,19.333083152868653C39.00196883081055,22.094507252868652,36.763392830810545,24.333083252868654,34.00196843081055,24.333083252868654L30.668635330810545,24.333083252868654C30.300445530810546,24.333083252868654,30.001968430810546,24.034606252868652,30.001968430810546,23.666417252868655C30.001968430810546,23.298227252868653,30.300445530810546,22.99975025286865,30.668635330810545,22.99975025286865L34.00196843081055,22.99975025286865C36.02701183081055,22.99975025286865,37.668635830810544,21.358128552868653,37.668635830810544,19.333083152868653C37.668635830810544,17.30803965286865,36.02701183081055,15.666417152868652,34.00196843081055,15.666417152868652L25.668634650810546,15.666417152868652C25.025224025810548,15.666417152868652,24.755127620810548,14.845067752868653,25.272962510810547,14.463198152868653L28.889100030810546,11.796531472868653Z" fill="#0C0C0D" fill-opacity="1"/></g></g></g></g></svg>