<svg xmlns="http://www.w3.org/2000/svg" xmlns:xlink="http://www.w3.org/1999/xlink" fill="none" version="1.1" width="36" height="36" viewBox="0 0 36 36"><g><rect x="0" y="0" width="36" height="36" rx="18" fill="#FFFFFF" fill-opacity="1"/><rect x="0.5" y="0.5" width="35" height="35" rx="17.5" fill-opacity="0" stroke-opacity="1" stroke="#D9D9DE" fill="none" stroke-width="1"/><g><g transform="matrix(-1,0,0,1,50.001365661621094,0)"><g><path d="M28.889100030810546,11.797508032868652C29.185429530810545,11.578984297868653,29.602801330810546,11.642058306868652,29.821324330810548,11.938387812868653C30.039848330810546,12.234717252868652,29.97677423081055,12.652088162868653,29.680444730810546,12.870611952868652L27.695634830810548,14.334060452868652L34.00196843081055,14.334060452868652C36.728438830810546,14.334060452868652,38.94521283081055,16.516322152868653,39.00089583081055,19.229450652868653L39.00196883081055,19.334059752868654C39.00196883081055,22.09548425286865,36.763392830810545,24.334059252868652,34.00196843081055,24.334059252868652L30.668635330810545,24.334059252868652C30.300445530810546,24.334059252868652,30.001968430810546,24.03558225286865,30.001968430810546,23.667393252868653C30.001968430810546,23.299204252868652,30.300445530810546,23.000726252868652,30.668635330810545,23.000726252868652L34.00196843081055,23.000726252868652C36.02701183081055,23.000726252868652,37.668635830810544,21.35910515286865,37.668635830810544,19.334059752868654C37.668635830810544,17.309016252868652,36.02701183081055,15.667393652868652,34.00196843081055,15.667393652868652L25.668634650810546,15.667393652868652C25.025224025810548,15.667393652868652,24.755127620810548,14.846044252868651,25.272962510810547,14.464174752868653L28.889100030810546,11.797508032868652Z" fill="#8A8A91" fill-opacity="1"/></g></g></g></g></svg>